P2
4 4
255
255 1 2 254 
4 5 253 7 
8 252 9 10 
251 12 13 150 
