P2
128 85
255
203 31 49 220 202 88 109 91 94 129 135 112 255 251 253 250 254 253 253 253 253 253 253 253 253 253 252 253 253 253 253 252 252 252 207 210 212 145 158 210 150 150 156 148 157 160 160 163 145 155 153 144 148 151 143 250 224 110 144 153 183 233 147 185 254 68 93 145 52 47 49 59 59 78 80 69 74 84 66 77 84 74 46 44 48 53 43 49 43 44 44 48 42 16 245 246 225 120 47 66 80 35 55 128 248 252 254 249 249 248 248 248 247 247 247 247 247 245 245 223 220 221 222 223 222 221 220 219 
158 55 202 252 100 152 143 137 121 126 108 113 255 254 255 252 254 253 253 253 253 253 253 253 253 252 252 253 253 253 252 252 252 207 211 212 147 160 199 165 151 155 152 158 162 164 160 139 158 153 151 146 151 142 248 216 124 142 155 180 231 153 179 248 138 125 100 122 39 53 52 50 65 86 59 64 86 80 100 80 93 48 47 56 49 52 48 39 43 45 44 41 50 115 255 244 153 63 50 97 33 45 85 253 249 247 249 249 249 248 248 248 247 247 247 247 247 245 223 221 219 222 223 223 220 220 219 209 
181 184 252 140 83 102 112 112 109 87 114 251 251 250 254 253 253 253 253 253 253 253 253 253 252 252 253 253 253 253 252 252 206 209 212 166 130 198 172 162 163 166 159 159 158 155 156 161 148 149 151 148 146 124 215 103 142 159 171 236 159 175 251 162 135 51 67 72 61 51 64 67 71 71 72 100 107 93 86 84 66 59 42 43 44 46 42 43 46 41 39 43 34 237 249 224 94 41 84 48 64 83 229 250 248 247 249 249 248 248 248 247 247 247 247 247 245 221 222 219 223 222 224 218 225 215 213 150 
185 244 179 51 99 150 99 132 97 93 199 252 253 254 254 253 253 253 253 253 253 253 253 253 252 252 253 253 253 252 252 206 210 209 174 100 200 188 146 155 165 145 158 163 158 158 155 159 149 147 149 147 126 213 87 149 159 160 232 161 176 250 165 1 105 3 95 63 52 50 50 68 58 54 71 102 93 83 83 74 75 45 43 42 43 53 43 47 45 40 38 50 95 255 246 143 58 69 85 85 74 99 250 250 255 249 249 248 248 248 248 247 247 247 247 247 219 225 218 223 223 223 219 224 201 212 154 185 
157 231 67 93 127 101 127 88 61 135 254 255 253 254 253 253 253 253 253 253 253 253 253 252 252 253 253 252 252 252 207 209 211 191 128 170 191 152 158 170 145 161 163 160 156 159 161 153 147 151 150 123 115 79 140 167 153 229 167 175 247 172 1 60 32 34 70 51 49 64 33 41 43 70 85 106 79 81 66 54 59 43 39 48 51 43 44 51 41 47 50 37 226 248 216 86 57 110 60 86 122 245 248 250 249 249 249 248 248 248 247 247 248 247 247 219 225 218 223 223 224 221 227 184 215 170 169 186 
144 133 78 62 111 96 81 71 159 250 254 255 251 253 253 253 253 253 253 253 253 253 252 252 252 253 252 252 252 207 209 211 203 119 177 204 152 148 151 157 156 157 148 148 164 161 159 147 150 147 126 119 105 120 168 150 227 163 172 247 181 1 28 61 47 60 56 50 52 13 42 40 55 81 108 65 89 91 84 51 46 43 48 65 46 37 38 36 47 38 47 70 255 243 136 83 110 39 83 65 176 251 248 249 249 249 248 248 248 248 247 248 247 247 219 226 219 222 224 225 221 228 181 218 194 99 204 167 
140 85 143 128 75 68 79 132 242 252 252 254 253 253 253 253 253 253 253 253 253 253 252 252 253 252 252 252 207 209 210 208 114 163 207 156 141 166 160 162 160 156 143 155 152 151 154 152 148 132 121 135 116 165 141 217 164 170 249 188 2 50 43 78 30 40 40 49 56 52 39 41 56 82 89 101 70 98 65 47 48 48 60 50 41 36 43 43 41 48 45 207 254 213 91 146 94 61 73 153 251 253 251 248 249 249 248 248 248 247 248 248 247 219 227 218 222 224 224 222 228 179 213 210 108 191 182 157 
158 125 93 76 96 80 48 249 247 252 253 253 253 253 253 253 253 253 253 253 253 252 252 252 252 252 252 211 208 209 210 130 131 209 159 143 156 156 157 158 155 156 151 156 156 151 151 151 132 122 143 126 162 148 178 172 170 246 191 1 49 29 61 35 55 36 54 46 83 42 38 38 95 66 85 91 83 99 33 40 40 48 71 43 43 40 42 48 50 49 48 255 246 128 169 144 62 94 140 247 249 250 249 249 249 248 248 248 247 248 248 246 220 225 218 223 224 223 223 230 181 207 218 143 156 182 158 133 
144 90 92 126 81 74 219 245 253 254 253 253 253 253 253 253 253 253 253 253 252 252 252 252 252 252 212 208 210 211 158 132 193 169 143 165 161 162 167 161 159 150 148 155 153 153 147 130 119 145 191 159 153 203 171 170 248 198 0 48 32 35 25 38 44 45 47 79 53 40 51 59 64 99 85 88 65 50 49 55 55 59 45 59 46 46 41 57 52 45 185 251 212 117 146 22 82 46 241 251 250 247 249 249 248 248 248 248 248 248 248 218 225 219 222 225 221 223 229 186 200 221 137 155 176 152 138 159 
173 107 127 147 100 174 250 248 254 253 253 253 253 253 253 253 253 253 253 252 252 252 252 252 252 212 210 211 212 167 130 174 169 157 158 156 160 163 157 156 165 152 152 154 148 144 130 120 145 194 152 152 204 136 173 247 203 0 48 30 30 35 38 57 43 54 43 78 42 49 55 81 83 101 82 53 50 55 58 65 49 49 41 41 48 42 45 50 45 39 255 247 108 87 89 96 74 222 248 249 251 249 249 249 248 248 248 248 248 248 221 226 223 222 226 225 228 225 191 178 222 167 150 204 149 146 154 159 
174 132 235 165 162 249 247 252 253 253 253 253 253 253 253 253 253 253 252 252 252 252 252 252 212 212 213 213 180 136 180 182 162 155 157 149 160 152 146 163 159 155 158 163 147 132 122 145 193 182 152 200 179 166 248 202 1 49 31 31 42 33 41 41 44 50 74 43 43 53 68 63 111 80 67 55 58 64 71 46 54 40 51 52 41 43 46 45 55 176 249 206 78 133 95 138 109 254 251 252 249 249 249 248 248 248 249 248 248 221 224 223 223 225 222 222 225 199 175 223 190 130 200 152 137 153 155 171 
145 196 245 194 248 248 246 252 253 253 253 253 253 253 253 253 253 253 252 252 252 252 252 214 212 215 212 193 129 157 199 153 160 164 138 171 163 149 164 157 157 151 160 146 129 117 140 192 179 146 193 180 141 247 215 0 48 29 33 29 45 37 56 42 52 42 34 44 52 78 82 99 95 57 58 65 72 87 73 54 63 43 36 37 36 42 43 47 42 255 243 101 119 95 161 80 248 252 252 250 249 249 248 248 248 249 248 248 222 226 225 223 224 223 224 221 209 189 225 200 141 182 162 151 153 150 168 175 
168 250 238 253 246 247 252 252 253 253 253 253 253 253 253 253 253 252 252 252 252 252 215 212 211 212 205 124 129 206 152 151 165 122 181 163 156 151 161 161 153 159 150 129 118 143 190 177 127 192 172 169 244 187 1 45 34 30 33 40 33 37 55 30 52 31 42 57 62 76 72 97 65 62 85 82 66 87 41 59 45 36 37 40 48 41 40 55 170 248 191 47 126 213 202 238 248 247 248 249 249 249 248 248 249 249 248 220 224 224 223 226 225 223 224 217 175 227 210 148 187 176 153 155 157 164 175 156 
213 247 250 247 247 246 252 253 253 253 253 253 253 253 253 253 252 252 252 252 252 215 214 211 213 211 111 113 207 155 157 163 159 163 163 161 154 163 154 157 155 146 129 120 152 191 181 133 189 186 180 192 167 1 48 33 35 32 34 43 39 61 49 54 39 38 48 60 80 69 86 74 56 64 82 58 92 104 47 47 45 40 37 38 43 55 48 19 254 236 85 78 105 218 233 252 250 250 249 249 249 248 248 249 249 248 220 224 226 225 225 224 227 223 223 153 224 220 157 165 193 151 152 158 155 171 163 179 
213 249 246 245 247 252 252 253 253 252 253 253 253 253 253 252 252 252 252 252 215 215 212 213 215 138 118 202 156 157 162 164 145 165 157 156 158 161 159 154 148 131 124 149 192 181 131 151 193 180 212 161 1 44 37 34 36 33 41 36 46 75 36 51 40 48 50 60 83 71 109 56 54 82 52 89 79 53 42 42 40 44 40 35 55 65 51 156 245 169 75 175 242 246 254 252 250 249 249 249 248 248 249 249 249 220 221 223 224 224 226 223 225 228 155 221 220 167 165 210 145 154 166 155 173 157 185 213 
208 249 249 247 246 252 252 253 253 252 253 253 253 253 252 252 252 252 252 216 215 213 213 216 152 101 198 183 158 164 156 161 163 157 158 159 153 160 161 148 134 123 150 187 178 129 144 196 182 195 156 50 43 36 33 33 34 38 43 35 63 37 45 36 48 41 52 82 75 111 76 52 85 58 95 49 62 50 42 38 44 48 43 53 89 43 2 251 230 69 184 214 255 252 248 250 249 249 249 249 248 249 249 249 220 224 223 227 225 225 219 225 227 172 221 219 175 159 200 153 166 160 152 168 176 198 217 215 
223 247 247 246 252 252 252 253 252 253 253 253 253 252 252 252 252 252 216 215 213 213 216 169 136 181 182 161 158 157 161 162 157 153 158 151 164 158 148 132 122 154 193 181 133 148 151 181 193 177 88 56 32 37 34 36 36 40 35 47 43 46 45 38 47 47 66 100 69 100 55 74 57 79 81 57 49 45 65 43 42 48 40 88 51 62 156 246 133 93 243 251 252 251 250 250 249 249 249 248 249 249 249 223 224 222 225 224 227 223 223 226 177 220 221 193 159 177 167 161 163 139 162 186 196 216 216 210 
183 247 247 246 252 252 252 252 252 252 253 253 252 252 252 252 252 216 216 213 213 217 182 124 169 186 156 153 161 161 159 150 156 162 155 157 161 148 132 125 157 193 186 130 162 153 185 173 191 114 101 36 38 34 33 32 36 43 47 58 39 49 39 46 47 53 95 102 92 88 49 97 59 77 46 55 42 60 41 44 42 48 86 63 64 73 242 229 94 250 252 249 249 249 250 249 249 249 249 249 249 249 224 223 223 226 226 225 224 231 227 185 213 222 215 159 165 190 150 164 154 168 189 205 215 216 213 223 
174 247 246 252 252 252 252 252 252 253 253 252 252 252 252 252 215 218 214 213 216 191 130 186 188 162 161 168 153 159 151 157 159 155 154 159 142 131 127 163 196 185 132 164 156 99 170 204 118 121 15 35 40 35 36 35 41 35 43 40 36 47 42 40 52 70 104 73 105 76 102 61 73 38 51 39 40 57 60 48 71 90 67 61 91 125 253 96 212 252 251 249 251 250 250 249 249 249 249 249 249 223 224 221 225 224 223 223 225 227 202 211 220 221 154 145 207 155 152 156 163 198 208 214 214 214 224 186 
254 246 246 252 252 252 252 252 252 253 253 252 252 252 252 215 218 214 213 216 203 144 177 201 160 145 166 159 160 159 148 160 155 160 158 144 132 130 165 198 186 138 156 167 87 157 203 159 128 40 29 42 37 37 31 35 44 54 56 44 47 41 36 55 44 64 116 97 99 90 91 94 58 52 46 49 62 58 28 73 90 76 66 84 60 221 210 132 254 250 253 252 250 250 249 249 249 249 249 249 223 225 221 227 225 224 226 223 223 214 137 223 216 173 149 190 149 157 156 169 202 213 217 217 215 226 190 170 
252 246 252 252 252 252 252 252 253 253 252 252 252 252 215 218 214 213 215 210 115 175 204 159 150 169 162 151 156 151 161 155 162 158 142 134 130 158 199 189 140 150 168 73 107 203 170 144 61 36 41 38 38 34 34 44 45 40 42 35 46 38 50 22 66 143 98 117 106 100 96 72 67 48 60 44 42 65 67 100 78 43 89 70 94 231 124 245 249 252 250 250 250 249 249 249 250 249 249 223 225 222 226 225 224 228 225 228 226 167 211 218 201 164 149 216 158 167 181 210 217 216 217 217 227 189 171 252 
253 246 252 252 252 252 252 252 253 252 252 252 252 215 218 215 212 215 218 144 168 208 160 153 168 156 163 167 163 159 154 160 159 143 131 130 153 201 187 135 146 156 66 94 208 178 155 91 31 39 42 38 36 32 38 47 46 56 42 46 44 40 51 131 151 167 117 105 102 91 90 60 51 51 48 58 71 74 90 68 29 85 68 49 136 186 193 250 252 250 250 250 249 249 249 250 249 250 223 226 223 226 227 224 226 224 229 223 214 133 224 209 142 157 197 171 162 181 207 216 214 218 219 228 189 174 250 252 
254 252 252 252 252 252 252 252 252 252 252 252 216 217 216 212 214 218 144 120 200 161 155 160 152 163 172 162 160 152 160 160 146 133 134 151 196 187 137 141 150 69 38 94 142 167 75 31 34 40 36 38 34 36 43 49 38 47 38 46 44 48 93 91 221 131 115 85 75 86 58 75 55 62 65 44 74 86 68 37 67 64 78 96 144 207 249 251 253 250 250 250 249 249 250 250 249 225 226 222 228 226 226 226 223 228 225 196 178 186 209 178 166 158 185 173 193 208 214 214 220 220 228 191 172 246 249 253 
245 252 252 252 252 252 252 252 252 252 252 216 217 217 212 214 218 165 119 197 168 162 165 161 164 171 158 161 156 159 160 140 132 130 159 191 189 139 136 150 75 2 89 125 157 1 62 32 41 37 39 35 35 39 51 41 59 37 45 38 46 31 101 200 206 143 90 66 74 64 81 52 74 53 54 68 84 61 48 55 77 72 91 45 157 255 253 250 250 250 250 249 249 250 250 249 227 223 223 228 226 225 226 224 230 215 222 213 150 221 205 140 149 157 180 201 214 215 216 219 218 229 188 167 249 247 252 254 
234 252 252 252 252 252 252 252 252 252 217 217 218 213 216 216 186 81 170 176 163 164 170 155 171 163 160 160 157 159 140 132 132 168 196 192 144 136 138 71 34 3 98 122 1 5 40 39 37 37 39 36 39 47 40 35 50 42 50 36 49 99 196 253 154 82 69 77 73 68 56 89 80 65 50 89 75 40 39 29 78 87 138 137 241 247 252 251 250 250 250 249 249 250 250 228 223 225 226 228 224 222 226 232 200 229 146 161 182 210 171 139 156 179 206 214 214 218 220 222 232 187 163 246 242 248 253 255 
223 252 252 252 252 252 252 252 252 217 217 218 214 215 215 198 142 154 174 155 150 163 160 173 158 159 156 159 159 146 135 130 168 197 194 146 137 131 73 43 30 76 36 4 78 68 34 40 39 39 39 39 41 53 35 76 54 48 43 43 51 184 227 215 139 95 71 65 77 67 87 78 65 47 65 51 73 45 90 62 76 148 84 217 251 252 251 250 250 250 249 249 249 250 228 223 222 226 228 227 227 227 231 196 222 211 165 160 222 203 149 158 192 211 214 215 219 222 222 232 191 158 234 242 250 252 254 247 
203 252 252 252 252 252 252 252 215 219 219 214 214 216 211 128 144 180 161 141 162 163 170 157 168 156 163 158 143 137 130 171 197 195 147 138 129 79 2 24 2 64 27 93 55 39 39 40 36 39 38 42 56 31 55 56 48 42 44 49 110 224 243 207 83 91 84 86 67 58 69 75 58 40 46 59 52 61 145 129 165 110 189 253 251 251 251 250 250 250 249 249 250 227 223 222 228 226 227 224 228 229 199 215 230 104 129 168 208 186 183 209 217 217 218 218 223 224 237 193 160 216 241 243 248 253 255 234 
195 252 252 252 252 252 252 214 219 220 216 213 217 215 116 154 202 159 151 160 149 172 145 160 163 167 156 140 141 132 168 194 196 148 137 132 75 1 20 31 48 40 47 64 67 36 41 37 40 41 44 49 47 56 69 62 47 42 48 51 235 248 246 149 100 73 84 64 59 81 78 82 50 38 51 61 61 119 197 164 122 171 253 249 251 251 250 250 250 249 249 249 227 223 222 226 226 224 225 226 227 197 204 229 165 135 96 218 211 204 213 218 214 219 217 221 226 236 193 160 205 222 237 249 252 254 247 214 
148 252 252 252 252 252 214 218 220 218 212 215 217 161 116 200 162 157 157 146 175 148 165 171 166 157 146 134 138 166 202 195 151 136 133 73 1 32 26 8 55 59 97 51 42 36 39 41 41 42 46 53 51 72 61 49 44 47 50 152 165 251 250 132 74 85 66 73 85 68 65 54 46 63 54 78 124 216 205 219 204 249 254 251 251 251 250 250 250 249 249 228 224 222 226 227 224 228 229 226 199 197 236 185 1 1 145 209 210 220 212 216 219 220 221 226 240 198 156 208 202 229 244 249 252 254 231 197 
109 252 252 252 252 215 218 220 220 213 219 212 168 101 200 153 160 163 145 166 155 163 163 164 161 151 139 137 166 203 190 151 141 129 81 1 31 23 16 45 12 81 61 69 34 42 43 38 43 49 54 52 54 53 57 48 44 48 136 150 249 254 191 97 91 80 76 88 63 67 80 39 77 60 73 132 185 254 253 208 255 251 251 251 251 250 250 250 249 249 229 226 222 228 229 226 226 225 226 210 185 235 188 162 111 3 218 213 220 218 218 218 223 222 227 240 200 152 193 193 218 235 249 252 253 247 206 172 
79 252 252 252 215 219 219 221 214 220 219 187 142 187 157 157 167 156 158 164 165 164 165 160 146 144 136 165 199 195 151 140 126 84 3 31 24 18 45 72 93 79 40 41 39 44 37 43 48 48 45 56 56 59 51 51 51 150 138 246 249 255 152 85 94 78 98 84 67 95 44 72 105 57 90 221 231 246 226 255 252 251 251 251 251 250 250 250 249 230 228 223 229 228 227 226 228 232 218 163 234 191 225 46 62 145 217 219 214 216 221 224 223 229 241 205 151 186 191 191 216 247 251 252 253 228 174 118 
37 252 252 214 220 219 221 216 221 216 200 97 194 155 152 152 161 152 169 166 171 166 160 144 141 140 166 198 198 144 128 129 81 1 30 22 24 41 78 115 132 52 72 40 45 37 38 49 52 33 59 52 44 57 45 48 39 108 189 255 254 196 103 99 59 102 94 39 95 76 87 115 63 63 136 247 250 253 254 250 251 251 251 251 250 250 250 249 231 228 225 228 229 226 226 225 224 221 155 238 202 207 175 102 71 227 216 216 220 222 224 224 231 241 200 152 176 184 182 205 240 251 252 254 246 197 162 98 
45 252 214 220 219 221 215 219 216 210 131 199 178 146 145 169 146 180 168 168 162 160 145 143 140 170 196 200 145 124 126 75 24 31 23 18 28 74 42 135 31 38 49 40 39 37 44 45 38 70 51 45 70 50 58 54 83 127 238 253 210 124 105 72 103 98 63 82 74 84 103 92 74 75 221 255 252 254 252 251 251 251 251 250 250 250 250 230 227 227 227 230 226 230 228 227 229 165 231 208 198 229 11 87 131 218 219 220 224 225 224 232 241 202 162 162 187 165 186 218 246 252 253 253 225 173 102 60 
40 216 219 220 221 216 219 219 215 151 182 202 141 154 164 149 173 163 166 163 163 148 146 139 172 197 205 147 122 120 71 6 35 21 23 21 52 51 116 77 30 70 42 44 38 37 48 38 70 41 66 63 51 50 47 59 115 96 254 241 100 113 94 120 113 85 78 76 89 115 61 47 85 164 249 250 253 250 251 251 251 251 251 250 250 250 227 226 226 227 229 226 228 227 225 233 152 225 213 191 225 181 99 116 223 218 223 225 224 225 231 242 200 158 150 175 182 174 203 238 254 252 255 245 183 137 79 36 
34 219 219 221 218 218 218 217 161 167 197 147 150 168 151 169 160 167 160 161 150 145 145 168 200 206 153 128 126 75 1 48 27 19 18 43 60 53 102 100 40 46 44 37 37 37 37 59 56 67 44 73 52 52 59 107 91 239 251 149 164 126 91 113 79 80 78 77 96 71 85 89 133 248 253 252 251 251 251 251 251 251 250 250 250 224 226 224 228 227 227 228 226 228 236 156 231 223 194 227 226 62 111 154 220 223 224 225 227 231 243 200 166 154 162 178 160 195 224 244 253 254 253 217 160 103 52 40 
37 219 221 219 218 219 216 161 154 196 142 149 165 151 160 166 167 166 162 151 146 147 168 201 209 161 133 130 85 4 42 10 20 25 19 59 49 81 106 87 60 49 41 40 35 36 35 58 45 55 82 53 54 47 90 151 201 253 208 198 155 92 126 78 82 88 83 79 50 95 85 129 198 253 253 252 251 251 251 251 251 250 250 250 224 226 224 228 228 228 227 229 228 230 174 227 215 191 231 217 181 73 84 225 223 226 223 224 233 243 203 165 145 157 156 187 176 215 232 255 252 254 241 178 116 69 36 42 
33 221 220 215 219 218 190 145 205 154 136 162 161 162 170 163 162 159 152 145 145 176 202 212 174 139 134 85 12 27 48 23 21 22 33 45 56 100 111 101 46 37 42 38 38 45 44 54 57 44 40 51 48 59 169 152 253 253 244 226 110 135 82 90 114 91 98 47 76 112 72 109 255 249 249 252 251 251 251 251 251 250 250 226 226 225 228 229 228 227 228 226 229 186 217 190 185 233 222 228 23 106 154 222 226 228 224 234 243 206 157 155 158 126 163 177 200 226 247 253 254 253 213 144 88 52 41 40 
31 221 215 221 217 197 101 200 149 147 152 166 157 170 163 157 159 154 144 144 180 203 210 180 141 134 88 40 25 31 11 23 32 40 61 55 113 99 107 59 39 49 41 41 48 33 46 47 45 46 57 52 52 110 51 255 253 254 254 117 153 83 75 82 99 76 64 73 118 121 101 220 251 252 252 251 251 251 251 251 250 250 227 226 227 229 230 228 227 226 229 226 199 199 196 222 223 220 218 190 68 23 226 223 224 226 238 243 209 151 152 124 153 108 198 182 224 233 255 252 253 237 174 107 65 38 41 38 
37 218 225 218 209 135 185 168 161 153 149 164 168 165 161 160 153 141 146 186 204 209 190 142 133 86 1 40 18 47 24 37 34 44 42 80 100 98 85 47 46 40 37 44 42 58 55 57 47 58 40 51 49 66 213 254 254 253 212 183 92 86 122 86 61 87 80 81 150 87 191 251 254 252 252 251 251 251 251 251 250 228 227 228 230 231 227 227 226 228 229 220 181 200 221 157 232 226 224 2 93 117 229 224 228 237 244 208 152 131 125 134 99 150 192 199 228 249 253 252 250 210 123 69 37 36 45 33 
35 221 218 216 144 184 177 163 155 153 163 169 173 165 156 151 145 152 185 209 207 194 147 131 87 3 56 11 35 11 27 39 51 45 36 104 127 126 69 46 43 46 45 55 65 48 49 44 42 53 50 67 80 123 252 253 253 255 169 145 91 119 81 86 70 68 80 76 124 162 251 252 252 252 252 251 251 251 251 250 231 231 228 232 230 227 226 228 227 226 231 158 196 215 202 214 222 220 191 70 1 224 227 228 240 245 210 153 112 131 95 125 99 201 200 223 237 255 252 252 235 161 93 47 33 37 33 35 
43 220 220 156 182 185 159 153 163 148 168 167 164 154 152 142 154 189 207 208 185 153 135 87 1 23 39 18 49 32 32 40 33 36 57 128 118 44 64 45 37 36 43 43 60 49 42 49 51 52 58 70 96 254 251 253 253 232 254 139 142 91 77 75 69 79 86 176 96 253 254 252 252 252 252 251 251 251 251 234 229 228 232 230 227 225 229 228 226 227 168 215 213 234 127 169 223 235 6 145 92 227 232 238 243 211 150 111 134 104 80 121 114 209 206 231 247 255 252 249 204 111 68 32 40 34 34 36 
62 214 170 187 205 150 157 163 158 160 158 155 165 151 142 161 194 207 212 177 167 146 89 1 32 55 11 30 20 33 37 43 66 29 141 102 66 73 43 40 38 41 45 62 44 56 47 50 60 47 66 94 246 254 253 255 254 199 197 179 118 67 65 73 92 76 124 147 196 251 252 252 252 252 251 251 251 251 232 229 225 231 229 226 227 229 229 227 227 223 186 207 229 198 146 221 226 199 48 1 231 227 241 244 214 148 116 132 108 46 113 109 176 216 216 232 253 252 251 232 154 81 44 36 39 39 34 41 
41 190 135 212 154 155 156 154 148 157 157 157 151 137 165 193 207 210 172 176 148 90 2 29 10 40 14 48 28 31 53 54 59 39 93 33 39 49 38 40 42 46 50 48 67 36 45 42 63 59 81 189 252 253 252 252 250 232 173 217 99 58 85 83 82 114 139 141 252 251 252 252 252 252 251 251 251 231 230 224 229 229 225 227 229 230 229 228 221 159 150 228 229 99 72 225 230 82 169 125 232 242 244 216 148 116 125 112 34 52 135 95 213 213 227 245 254 250 248 197 110 54 39 41 37 33 32 53 
43 119 213 155 158 160 158 153 150 162 161 153 135 173 194 206 210 167 185 156 85 1 31 25 56 12 30 17 37 55 68 93 59 85 33 41 62 36 39 42 36 43 53 52 48 45 48 72 51 74 134 254 252 251 253 254 180 232 254 125 80 124 99 84 97 133 143 230 251 252 252 252 252 251 251 251 232 230 223 232 229 225 227 225 230 230 228 231 214 19 244 226 193 56 230 221 219 58 2 225 234 244 218 153 113 128 106 44 57 102 133 165 213 220 230 255 250 250 226 146 60 43 43 38 37 28 38 40 
51 194 175 165 153 153 148 157 160 158 148 141 178 194 202 211 155 195 169 85 2 32 24 2 44 25 50 32 38 71 96 93 48 50 42 45 46 42 41 42 40 52 38 56 44 42 56 66 62 84 252 254 254 255 253 248 226 241 199 84 124 71 99 90 142 121 204 252 251 252 252 252 252 251 251 232 229 222 232 228 225 227 226 229 230 228 231 185 124 171 225 241 40 123 228 229 10 96 111 231 239 217 159 108 131 103 35 55 47 133 117 194 224 222 247 252 247 245 189 82 40 46 47 43 29 30 40 40 
137 177 160 155 160 154 165 151 163 153 143 177 201 201 211 152 195 182 88 8 32 25 23 60 12 35 19 33 64 86 94 69 43 50 47 69 41 37 50 36 37 55 44 43 44 48 75 51 78 239 253 252 254 254 254 184 255 248 102 83 103 117 94 179 192 188 253 251 252 252 252 251 251 251 209 228 220 230 233 225 227 226 229 229 229 231 225 156 60 232 225 130 121 218 224 213 34 1 134 247 222 163 113 139 104 3 35 49 77 147 141 192 225 216 255 247 250 218 130 41 45 42 41 25 31 32 41 38 
240 153 154 152 143 161 159 166 156 140 181 202 198 212 152 188 202 100 17 31 25 23 27 38 25 50 27 47 54 82 76 88 65 44 39 48 46 38 41 41 55 45 46 43 48 72 62 72 211 252 254 254 251 254 250 253 255 172 85 180 105 91 124 212 170 253 252 252 252 252 251 251 251 207 226 218 225 233 226 228 227 229 228 229 230 228 149 141 195 227 212 78 101 235 233 26 33 1 223 219 160 122 136 104 3 39 63 50 103 124 154 199 218 240 252 248 239 178 67 45 45 48 39 29 31 39 40 102 
226 144 156 152 161 168 163 154 141 183 204 200 217 156 181 216 127 32 29 23 22 22 72 17 33 29 23 26 47 52 73 66 50 39 72 44 40 49 41 60 51 51 43 46 50 57 53 161 255 254 251 254 254 254 189 252 241 138 200 76 127 69 243 240 253 252 252 252 252 252 251 251 203 187 219 218 232 222 228 227 230 232 230 229 232 192 170 63 236 227 28 132 194 227 211 46 45 30 227 166 124 132 116 8 42 39 38 58 141 134 157 214 215 255 249 249 212 105 46 50 36 45 28 33 46 29 46 177 
204 151 154 152 163 165 150 145 182 207 199 214 158 175 215 146 44 32 25 24 26 40 41 25 50 28 29 32 21 55 69 61 44 42 46 41 50 38 61 64 48 43 42 51 58 61 110 252 250 253 253 250 251 251 244 254 175 195 141 145 74 235 253 253 252 252 252 252 252 251 251 201 191 221 213 233 224 228 227 230 232 231 229 233 226 178 42 182 225 114 100 1 235 235 78 46 2 209 172 130 134 125 8 43 37 48 45 66 139 158 176 214 237 253 248 236 168 44 62 40 37 35 32 32 33 50 1 161 
137 153 149 162 170 146 141 186 209 201 214 165 173 213 153 55 32 26 25 25 17 57 15 38 23 27 28 27 59 50 49 54 33 76 35 45 48 74 62 61 50 46 48 65 57 84 236 251 255 252 253 252 255 201 251 251 208 241 139 101 204 250 253 252 252 252 252 252 251 251 201 197 135 212 235 225 231 227 230 231 230 230 232 231 150 70 59 232 229 71 76 160 229 223 4 25 74 164 127 136 131 6 41 30 40 35 67 127 141 173 193 197 255 249 245 202 91 59 50 32 34 35 28 47 51 43 98 161 
66 142 176 174 152 143 193 207 203 214 164 170 212 161 94 41 32 27 25 25 20 40 26 52 28 29 31 49 42 55 62 45 83 53 43 73 74 62 53 48 47 49 59 65 65 206 254 253 252 252 255 250 253 253 255 243 255 170 101 201 255 252 253 252 252 252 252 251 251 146 191 139 214 233 226 230 227 229 231 230 232 231 232 223 115 72 154 226 148 93 1 240 235 88 12 6 166 136 137 146 26 35 38 41 36 41 75 136 176 182 201 225 252 244 233 160 44 66 33 32 32 34 37 38 48 41 6 190 
87 167 170 150 146 194 209 203 216 166 174 214 161 99 28 29 29 25 21 33 57 22 43 29 31 38 72 67 63 54 57 101 76 45 53 85 69 57 8 40 44 55 83 63 133 251 252 253 255 253 255 253 253 253 251 251 248 189 210 252 252 253 252 252 252 252 252 251 137 195 140 142 231 226 228 228 229 231 229 232 231 235 231 159 28 158 236 237 60 61 169 232 169 1 30 118 127 129 137 47 51 39 46 47 39 75 105 136 202 188 175 253 245 242 202 84 55 46 37 29 27 34 30 51 47 1 87 88 
51 176 146 148 202 211 202 217 168 173 216 170 138 79 37 24 24 25 22 27 42 30 51 30 38 47 78 94 66 51 121 42 48 43 77 57 57 27 56 47 53 65 73 100 248 254 255 254 253 254 253 253 253 253 254 253 239 190 255 252 252 252 252 252 254 252 251 138 192 149 144 231 226 228 230 229 231 229 232 231 234 229 227 106 152 121 227 197 117 30 233 133 115 40 5 134 140 137 53 55 34 29 41 43 27 95 132 179 197 182 224 249 238 230 155 46 52 29 28 30 30 34 35 39 0 97 82 94 
176 142 155 206 213 203 218 170 178 223 188 133 87 45 30 28 24 20 31 62 27 38 25 28 42 95 96 102 64 71 69 71 41 44 61 50 53 119 43 51 56 63 160 206 255 255 252 254 251 253 253 253 251 254 252 250 226 254 252 252 252 252 252 254 252 252 122 191 149 149 137 227 230 232 227 232 230 232 233 232 230 231 134 14 148 230 238 117 110 171 127 165 4 49 110 138 141 45 35 81 58 36 71 51 88 80 112 211 191 156 254 240 237 203 88 49 66 33 35 38 50 36 22 1 155 163 72 35 
198 161 207 211 205 221 172 176 226 196 141 119 55 43 24 25 25 30 14 40 36 50 32 54 81 105 102 103 39 63 44 50 43 46 40 54 100 88 43 57 60 120 200 254 253 252 253 253 252 253 253 253 253 255 251 252 255 252 252 252 252 252 252 253 252 134 194 166 144 129 228 231 231 228 232 230 232 233 233 233 234 202 127 162 91 234 198 115 57 150 101 187 36 2 140 142 30 41 79 75 26 60 45 19 83 115 158 209 168 209 249 237 230 151 59 71 34 32 28 45 34 29 1 175 239 130 59 186 
251 211 213 208 222 175 176 232 209 170 137 87 42 32 32 35 30 32 56 30 30 18 63 62 88 78 89 72 50 34 73 47 40 44 58 1 131 19 49 69 127 220 254 252 253 253 252 253 253 253 253 255 250 252 254 255 251 252 252 252 252 252 253 252 126 184 174 141 136 153 232 229 229 232 231 232 233 232 236 235 234 57 24 109 234 236 30 138 79 160 219 61 25 88 129 64 37 52 98 70 35 62 62 60 43 126 208 198 130 255 241 236 200 89 60 58 28 39 50 46 29 38 130 252 246 1 212 245 
248 213 211 222 179 177 240 214 176 132 81 35 54 34 33 36 28 6 45 32 50 57 60 77 93 92 112 52 42 37 49 52 40 47 58 146 110 48 62 93 229 255 255 252 253 253 252 253 253 253 253 253 252 252 252 251 252 252 252 252 252 253 253 123 160 172 157 134 153 231 228 230 231 232 233 234 233 233 230 232 95 79 122 99 227 170 147 4 171 123 156 1 3 143 51 48 62 82 92 34 85 53 33 71 99 162 205 128 199 247 238 231 148 58 51 34 38 62 45 32 30 76 254 254 180 214 251 251 
249 209 223 180 177 243 225 201 153 133 86 35 34 34 37 28 23 62 31 32 56 78 93 93 105 92 55 49 40 70 50 53 49 54 96 83 56 70 80 236 252 252 253 253 254 253 253 253 253 253 252 255 253 250 251 252 252 252 252 252 253 253 153 149 185 140 146 155 155 229 231 230 232 233 233 233 231 233 229 223 1 35 123 236 240 31 83 44 239 118 100 1 107 69 54 40 64 121 55 51 44 82 47 34 137 208 185 83 254 245 237 200 81 47 38 32 42 47 38 27 2 244 250 253 208 254 249 251 
248 223 179 177 250 234 209 175 146 72 36 43 27 30 30 28 31 46 30 55 75 105 102 112 121 98 58 51 46 51 47 44 50 44 86 48 56 94 143 254 250 252 253 254 254 253 253 253 253 253 253 254 255 253 252 252 252 252 252 252 253 160 160 196 134 150 155 147 231 231 230 234 233 233 233 232 234 235 238 86 6 106 122 235 167 100 16 232 85 143 55 1 86 44 45 76 86 111 4 61 61 35 77 69 173 199 74 194 247 237 232 143 63 49 32 1 60 37 30 41 159 247 245 245 255 248 246 247 
250 178 176 254 239 216 199 148 124 79 52 36 35 33 30 41 62 39 38 69 96 121 114 131 127 60 51 64 78 49 57 45 60 96 104 62 69 142 240 253 253 254 254 253 253 253 253 253 253 253 250 254 253 251 252 252 252 252 252 253 118 158 201 155 140 155 153 145 231 230 235 233 233 233 233 232 236 233 234 41 49 77 234 232 58 27 65 165 63 86 7 83 66 59 42 98 114 84 52 54 45 35 61 124 177 155 30 254 244 238 199 75 49 41 16 85 49 31 33 76 251 249 250 255 245 249 245 247 
247 175 254 247 230 214 163 143 88 47 41 37 33 31 32 40 54 36 58 65 114 123 105 117 105 70 70 66 59 62 50 59 47 47 103 65 116 209 252 254 255 253 251 253 253 253 253 253 253 254 250 253 252 252 252 252 252 252 252 92 157 201 158 139 153 166 136 230 230 233 232 232 232 233 234 234 232 235 131 80 136 86 233 153 4 15 157 175 4 76 37 54 42 42 84 115 118 14 73 45 36 68 32 146 161 55 199 248 237 233 136 54 43 41 92 60 31 28 16 235 249 249 250 247 250 248 248 247 
247 255 251 236 213 192 134 83 57 40 32 32 33 34 59 63 41 42 53 80 84 95 102 110 71 61 60 72 55 62 52 75 2 130 94 84 162 255 252 253 253 252 253 253 253 253 253 253 252 255 253 252 252 252 252 252 252 252 135 141 201 154 137 150 153 146 159 230 230 233 233 233 233 235 233 234 230 224 139 57 115 191 157 37 60 50 195 102 29 0 49 77 62 64 105 78 69 45 44 40 16 82 87 123 113 37 254 245 240 194 78 46 42 71 94 27 30 38 171 251 251 249 246 248 247 250 246 247 
247 252 246 227 221 154 125 120 44 34 30 34 32 36 69 81 43 76 59 66 72 103 91 74 69 61 64 73 73 56 70 66 125 100 69 84 242 252 251 251 253 253 253 253 253 253 253 253 251 253 253 252 252 252 252 252 252 154 114 203 154 140 144 158 149 147 230 228 234 233 234 233 235 235 232 233 229 167 113 168 2 156 106 27 1 141 178 0 80 51 79 75 91 91 75 101 40 66 44 39 67 49 116 86 47 192 249 239 230 134 60 44 28 111 28 40 38 90 247 246 250 248 249 247 247 251 247 247 
246 253 233 220 192 134 111 14 36 29 32 30 34 55 75 37 82 60 65 41 54 100 68 81 61 73 80 61 62 63 91 89 87 76 65 164 250 255 253 252 253 253 253 253 253 253 253 254 253 253 252 252 252 252 252 252 135 167 185 163 142 140 164 150 154 145 229 236 234 235 233 233 236 235 232 236 84 126 59 137 71 168 49 0 24 179 124 187 2 53 98 92 94 77 89 75 53 42 34 20 86 70 89 31 27 254 247 242 192 79 40 43 69 23 34 34 34 219 250 251 252 251 249 253 247 248 247 247 
246 245 227 218 156 129 84 38 35 32 35 35 31 60 34 65 72 77 64 66 92 60 106 70 53 65 63 71 65 75 80 99 43 100 143 255 249 252 255 253 253 253 253 253 253 253 253 253 253 252 252 252 252 252 252 166 130 158 170 142 144 165 147 142 140 230 236 233 234 233 233 235 235 236 234 215 163 52 167 3 168 163 1 70 140 142 168 36 40 76 69 116 82 57 117 49 46 34 38 51 83 93 41 44 197 251 240 230 123 67 46 42 14 36 5 0 231 251 251 248 247 248 247 249 248 247 247 246 
246 233 218 185 125 129 37 38 31 30 37 36 51 51 53 98 71 68 62 80 59 85 85 68 66 74 53 77 89 110 80 60 61 173 224 255 254 252 253 253 253 253 253 253 253 253 253 253 252 252 252 252 252 252 185 80 191 173 133 131 170 157 155 149 152 235 232 233 236 234 235 235 233 233 238 83 87 76 60 55 246 80 63 75 140 111 158 29 54 76 108 69 41 101 54 48 38 38 35 89 76 63 49 32 254 247 246 196 78 45 52 27 28 19 41 190 252 250 247 249 248 254 248 248 248 247 247 246 
252 227 211 149 103 37 38 34 28 30 29 55 56 68 78 84 83 57 84 75 67 83 64 56 60 65 78 94 118 60 36 71 161 232 253 254 252 253 253 253 253 253 253 253 253 253 253 253 252 252 252 252 252 200 118 187 198 142 136 156 152 145 153 150 233 232 235 236 236 235 235 235 232 232 212 182 1 117 1 229 134 84 43 117 105 131 0 55 93 89 87 44 76 75 37 41 40 35 15 96 79 57 41 194 251 243 225 120 56 44 49 62 5 67 82 255 248 250 251 251 248 249 248 248 247 247 246 246 
252 217 193 135 59 35 34 28 28 26 39 45 66 87 77 74 66 72 95 59 94 81 82 72 87 77 97 99 75 73 79 73 228 251 254 253 253 253 253 253 253 253 253 253 253 253 253 252 252 252 252 252 200 134 167 220 152 122 155 157 153 152 147 144 233 236 235 234 236 236 235 234 235 238 156 90 100 1 57 200 105 73 99 104 85 2 1 76 94 85 47 33 79 46 41 40 39 50 64 103 43 48 51 253 249 245 196 76 57 49 50 63 75 92 250 254 249 250 249 247 246 248 248 248 247 246 246 246 
252 201 138 62 53 36 33 30 35 53 51 67 75 66 105 79 83 90 81 104 97 88 67 79 73 102 80 176 93 74 76 160 254 253 253 253 253 253 253 253 253 253 253 253 253 253 252 252 252 252 252 211 131 169 223 148 142 156 149 139 153 157 150 234 234 237 234 236 237 232 235 233 230 243 164 0 73 1 181 130 111 88 120 37 7 36 76 113 91 58 47 73 58 41 36 41 39 29 92 60 44 59 202 253 243 227 119 65 44 34 108 63 78 157 226 251 250 250 251 249 248 248 248 247 247 246 246 252 
252 176 103 50 36 34 31 32 45 41 48 60 72 80 87 92 101 80 75 88 59 69 79 82 106 88 177 82 72 109 107 225 252 252 253 253 253 253 253 253 253 253 253 253 253 252 252 252 252 252 210 129 167 226 152 154 155 150 144 159 160 151 156 233 238 234 236 235 231 233 234 234 243 113 93 76 59 37 203 92 32 87 0 96 67 74 99 91 32 63 58 71 46 41 38 38 42 8 75 44 48 6 254 247 246 194 74 54 37 34 49 96 63 165 250 250 249 247 250 248 248 248 247 247 246 246 246 252 
252 143 64 51 35 36 31 35 56 67 71 62 59 83 94 112 75 75 69 127 156 97 77 107 94 126 125 87 112 103 206 251 252 253 253 253 253 253 253 253 253 252 253 253 252 252 252 252 252 204 138 158 222 160 142 153 164 149 152 166 149 146 236 236 235 237 233 233 226 236 234 242 209 97 6 97 2 172 135 85 77 114 48 66 85 106 101 23 59 37 57 52 41 39 39 40 51 53 66 44 62 195 253 245 226 122 69 52 52 80 102 19 110 240 248 249 249 248 248 248 248 248 247 247 246 246 252 252 
252 79 51 32 37 28 28 65 71 73 58 54 81 88 88 83 72 72 75 200 89 92 81 106 100 185 128 85 180 142 253 255 253 253 253 253 253 253 253 253 252 253 253 252 252 252 252 252 203 135 145 220 171 140 148 156 146 146 155 154 149 164 235 235 237 234 235 219 236 233 242 202 34 54 0 30 2 199 124 9 118 43 97 74 101 86 68 51 38 65 44 41 39 42 53 43 36 25 50 64 2 255 246 244 194 73 64 51 34 24 19 58 198 248 252 251 248 249 248 248 248 247 247 246 246 246 252 252 
252 52 44 38 28 28 38 81 74 66 85 78 80 70 65 75 87 91 89 166 156 105 85 80 168 137 66 169 173 245 253 253 253 253 253 253 253 253 253 252 253 253 253 252 252 252 252 205 164 105 213 179 150 148 146 152 150 145 157 154 153 238 233 237 235 236 218 235 235 243 202 133 49 36 26 7 164 126 138 115 40 49 40 83 79 49 46 54 40 40 46 39 41 47 40 44 45 73 88 47 189 251 246 222 125 55 41 49 42 36 27 147 255 250 248 251 249 248 248 248 247 247 247 246 246 252 252 252 
252 50 34 32 29 29 70 69 56 88 76 76 56 54 85 73 127 95 251 229 159 86 114 121 233 199 130 215 203 253 253 253 253 253 253 253 253 253 252 253 253 253 252 252 252 252 204 182 91 207 193 144 148 152 154 157 148 157 152 156 146 233 237 236 237 219 236 237 243 194 143 92 50 1 13 33 144 162 209 80 34 93 57 90 29 64 30 35 41 54 39 42 40 45 41 39 44 48 48 0 255 246 242 190 70 55 46 60 46 39 63 208 250 249 251 249 249 248 248 248 247 247 247 246 246 252 252 252 
252 45 41 32 29 31 67 80 86 62 83 84 67 61 78 89 128 119 222 153 101 109 124 210 209 160 204 241 255 253 253 253 253 253 253 253 253 252 252 253 253 252 252 252 252 206 197 116 179 205 131 142 152 151 151 160 157 147 150 142 235 236 236 237 220 237 235 241 197 159 85 47 53 2 0 116 107 248 95 42 43 90 66 48 39 34 50 42 61 44 45 44 44 40 34 48 52 40 55 186 251 246 216 120 57 46 28 53 31 13 0 252 253 249 249 249 248 248 248 247 247 247 247 246 252 252 252 252 
252 44 32 30 35 43 82 72 61 96 109 75 90 67 53 118 109 251 248 133 86 84 160 247 226 206 244 252 253 253 253 253 253 253 253 253 252 252 253 253 252 252 252 252 203 205 142 129 207 129 146 158 153 161 146 160 156 158 139 154 236 237 236 219 236 237 242 191 154 132 77 57 33 8 83 107 203 152 56 35 112 54 80 50 63 58 54 51 44 42 43 37 41 44 43 45 41 38 0 255 244 241 175 66 44 41 45 33 35 50 230 250 250 249 249 249 248 248 248 247 247 247 246 246 252 252 252 252 
215 36 31 32 35 36 89 76 90 102 51 66 79 71 70 121 127 254 164 92 140 168 247 251 217 253 255 253 253 253 253 253 253 253 253 253 252 253 253 252 252 252 252 205 207 150 107 200 131 134 150 157 152 154 161 160 160 143 149 238 236 235 220 233 237 242 179 152 153 141 39 88 1 87 91 41 191 81 53 40 83 19 66 57 50 55 54 42 39 41 44 39 39 39 37 40 44 58 170 254 247 206 104 63 42 67 31 46 94 183 251 249 250 249 249 248 248 248 247 248 247 246 246 252 252 252 252 252 
219 31 27 35 37 84 61 82 95 139 61 102 66 63 86 133 251 219 107 136 141 224 253 249 254 253 253 253 253 253 253 253 253 253 253 252 253 253 252 252 252 252 203 208 147 138 188 135 141 160 159 153 157 159 163 149 147 151 150 236 235 221 233 241 241 173 158 146 212 1 39 93 68 84 41 124 47 46 51 87 60 91 55 63 70 55 52 36 36 40 40 45 44 40 50 38 61 1 254 241 240 149 62 47 53 18 30 77 187 251 250 250 249 249 249 248 248 248 247 247 247 246 245 252 252 252 252 215 
220 29 34 36 42 68 65 96 162 56 110 75 64 57 109 88 254 184 178 165 219 254 254 255 252 253 253 253 253 253 253 253 253 253 253 252 253 252 252 252 252 204 210 153 136 184 146 159 154 162 154 147 155 161 163 144 149 150 238 233 223 233 241 235 173 152 146 213 114 34 69 112 87 91 3 109 67 62 74 94 63 47 47 81 55 55 38 42 42 41 59 40 46 41 43 50 62 146 255 248 190 90 45 38 62 21 64 139 255 249 250 250 249 249 248 248 248 247 247 247 246 245 251 252 252 252 217 219 
222 32 39 36 52 48 89 90 62 59 64 60 52 79 93 253 234 199 194 198 255 255 253 253 253 253 253 253 253 253 253 253 253 253 252 253 252 252 252 252 206 208 162 108 175 166 148 156 159 161 172 158 161 165 149 149 159 147 232 227 233 242 237 171 151 148 211 227 50 53 151 90 51 65 60 121 48 68 111 63 90 37 71 25 43 42 47 44 44 57 45 47 36 43 40 66 1 249 240 236 127 52 48 116 33 63 34 206 251 250 250 249 249 248 248 248 248 247 247 246 246 245 251 252 252 217 220 219 
223 36 32 37 22 97 95 110 67 72 60 90 93 98 79 253 229 230 208 255 250 253 251 253 253 253 253 253 253 253 253 253 253 253 252 252 252 252 252 209 211 177 103 159 178 147 164 158 163 165 161 166 155 152 145 145 142 232 230 234 244 239 158 153 143 202 231 99 83 11 88 11 82 31 100 57 81 102 94 77 50 54 70 34 36 44 45 45 44 47 40 38 57 41 46 61 131 254 248 176 84 52 55 30 58 42 139 250 249 250 249 249 248 248 248 248 247 247 246 246 245 251 252 252 217 221 219 223 
217 33 48 48 78 102 119 88 53 75 122 84 141 95 252 252 254 247 254 254 253 253 253 253 253 253 253 253 253 253 253 253 253 252 252 252 252 252 205 208 191 91 136 187 156 156 163 153 160 145 166 159 157 145 152 145 143 230 237 244 233 150 153 139 201 227 151 88 78 100 58 5 47 54 31 77 83 116 60 86 61 79 47 39 43 47 38 41 45 38 48 58 38 54 44 1 249 242 230 122 50 48 87 41 52 141 221 251 250 250 249 248 248 248 248 247 247 246 246 246 245 251 252 218 221 220 221 224 
222 53 53 58 82 144 48 58 51 84 141 93 98 84 252 255 247 253 252 253 253 253 253 253 253 253 253 253 253 253 253 253 253 252 252 252 252 208 206 197 106 121 190 149 164 163 155 166 156 153 159 146 148 162 147 143 231 238 246 230 143 148 135 196 231 149 120 76 46 40 36 61 42 2 75 84 110 64 38 86 50 34 40 47 52 43 45 51 37 55 36 40 49 44 48 126 254 247 175 84 51 52 42 64 97 207 250 251 250 249 249 248 248 248 247 247 246 246 246 245 251 252 220 221 221 221 224 221 
219 47 41 83 120 135 82 109 101 150 104 132 116 252 253 251 255 253 254 253 253 253 253 253 253 253 253 253 253 253 253 253 252 252 252 252 206 206 208 120 118 199 135 155 156 154 163 161 155 152 156 159 152 153 147 146 237 248 231 138 146 138 189 233 150 189 42 46 98 0 41 43 59 51 78 76 81 65 81 64 41 47 51 54 46 46 44 40 67 55 46 38 44 51 3 248 245 228 123 51 40 34 40 48 155 254 250 249 249 249 248 248 248 247 247 247 247 247 245 245 251 222 222 221 222 222 218 224 
215 43 71 90 212 91 114 94 124 95 122 117 90 251 252 253 252 251 254 253 253 253 253 253 253 253 253 252 253 253 253 253 252 252 252 203 210 210 132 131 210 152 148 157 144 161 160 165 154 152 152 154 147 150 143 237 246 226 105 143 144 181 234 150 185 187 5 101 64 37 48 46 40 64 82 72 87 73 75 57 53 81 50 44 50 37 51 51 57 42 43 49 38 47 123 255 250 167 83 43 78 52 41 90 242 250 250 250 249 249 248 248 248 247 247 247 247 246 245 251 223 218 221 222 222 221 220 221 
