P2
128 91
255
148 116 88 73 195 212 205 185 198 184 195 148 144 146 190 115 34 80 93 94 193 221 217 202 201 197 213 189 185 193 207 220 214 134 162 139 152 135 150 31 55 97 108 33 48 96 48 91 90 125 137 140 99 61 116 70 156 197 131 90 107 81 126 136 149 166 162 166 130 136 143 177 221 205 217 214 209 208 214 221 235 231 238 229 218 226 227 238 169 178 147 101 78 86 111 96 84 105 121 133 84 92 107 113 91 62 28 87 33 25 70 140 51 36 122 99 7 35 96 78 101 108 70 61 51 135 163 171 
66 104 64 119 210 199 188 192 181 188 192 159 72 195 154 46 74 87 77 225 242 220 217 191 206 203 212 192 202 204 235 201 168 149 138 95 161 150 50 42 63 111 19 59 66 74 60 99 94 164 165 106 69 98 63 127 188 165 96 103 121 119 161 142 160 176 116 143 145 143 180 220 208 214 203 212 210 216 231 239 234 240 238 217 226 225 235 134 175 194 159 97 89 91 108 90 83 96 130 93 86 108 113 116 88 14 61 70 33 25 116 106 71 74 149 29 57 64 106 68 110 118 63 62 120 148 153 138 
91 70 78 230 208 199 164 202 182 196 143 160 169 155 90 70 107 111 187 239 239 216 198 204 199 218 171 182 189 226 218 180 158 146 95 154 155 77 21 37 90 38 76 75 71 53 93 57 149 148 120 62 51 96 66 179 189 86 117 140 122 135 131 142 159 145 165 137 168 194 214 211 209 206 214 211 218 233 241 235 240 238 216 227 224 233 101 158 183 193 143 83 85 96 87 81 102 103 136 112 96 115 110 76 40 55 89 31 20 55 144 96 56 156 39 42 51 71 94 63 135 103 82 73 112 130 136 101 
89 87 183 210 195 165 195 182 193 184 167 124 132 133 88 106 92 120 238 214 237 220 203 204 213 199 182 198 216 230 167 170 161 126 124 162 108 10 39 64 50 88 90 73 74 107 51 112 161 134 73 64 104 38 164 190 74 91 134 142 151 98 139 142 157 142 159 186 191 221 210 204 208 209 213 220 236 238 235 240 237 225 228 224 229 93 134 157 195 187 137 86 91 115 87 77 97 141 112 93 99 106 108 96 64 84 42 32 21 119 135 56 115 92 49 67 88 112 105 70 107 94 70 110 122 125 104 67 
106 122 215 198 177 168 198 194 188 145 165 129 150 106 108 69 89 236 212 246 200 215 202 207 212 182 176 181 235 163 139 183 157 122 156 134 8 55 50 55 65 106 96 73 78 73 100 118 124 91 62 62 85 117 194 94 101 141 157 179 103 149 146 142 127 182 182 209 223 209 205 207 210 213 222 239 239 235 238 236 224 229 227 225 97 112 154 175 196 186 132 90 90 94 79 76 124 125 137 95 87 90 111 68 87 42 45 18 68 153 136 103 150 40 62 106 89 120 77 115 115 69 89 103 121 101 74 67 
128 214 194 167 168 193 179 186 186 167 142 153 114 81 98 97 186 228 247 201 120 203 208 212 202 175 187 216 199 110 183 164 157 157 156 4 30 42 69 57 92 96 83 100 153 87 86 141 80 55 64 74 98 203 126 92 123 159 166 149 121 149 140 135 194 195 220 223 204 211 205 212 218 222 242 242 237 235 235 222 222 229 225 96 104 143 144 178 198 180 117 80 102 98 69 105 130 128 106 50 76 106 70 92 49 38 26 40 124 162 97 160 69 45 51 119 114 105 115 112 81 76 116 123 111 94 99 91 
182 177 163 176 162 204 189 189 144 151 157 130 85 91 69 111 238 243 202 132 102 204 206 218 186 182 189 204 121 147 143 160 176 171 33 41 33 85 78 81 98 111 126 170 90 107 117 101 39 70 64 133 181 167 72 112 159 155 177 103 144 160 167 175 206 210 220 207 216 209 213 218 223 244 245 236 233 233 222 222 231 226 87 101 134 145 148 180 194 184 92 88 114 82 65 133 115 117 58 59 41 61 91 79 18 40 38 81 168 96 137 121 32 43 142 135 117 90 115 83 56 105 117 117 90 100 56 131 
190 156 168 154 173 177 187 189 151 154 160 119 61 91 111 252 253 225 129 68 94 209 214 206 182 181 205 116 132 141 147 160 167 99 63 42 75 96 81 87 108 130 152 121 98 88 104 62 91 95 94 158 201 39 97 137 170 153 125 144 170 184 173 214 213 215 210 221 219 215 219 229 246 248 236 232 231 222 222 232 229 82 92 130 154 124 145 168 192 153 77 87 100 49 111 119 126 93 27 25 74 92 108 15 57 40 62 136 139 93 149 72 46 93 157 117 100 121 102 57 75 120 117 108 117 56 82 171 
191 173 150 162 202 190 194 132 138 165 138 68 97 106 168 245 229 91 93 85 63 201 224 186 184 199 118 154 158 126 138 158 114 61 44 49 91 100 91 109 96 155 163 83 89 95 105 93 87 41 170 191 47 100 131 177 145 146 121 162 180 196 218 215 210 212 224 227 219 222 230 246 250 236 231 231 224 223 234 231 85 85 117 159 122 115 142 163 194 108 90 99 66 56 138 122 89 39 54 73 36 119 44 56 55 62 97 173 105 150 142 59 63 155 150 135 116 108 50 44 117 126 119 136 96 64 154 188 
176 136 166 176 181 190 184 135 140 138 85 84 97 93 241 207 96 125 69 103 65 219 194 183 192 149 136 164 124 131 162 118 43 59 55 85 117 90 117 64 172 146 46 80 101 76 131 81 48 132 196 112 88 125 107 162 123 139 175 188 210 214 207 208 211 227 227 224 226 231 248 252 237 229 226 226 226 237 238 97 83 98 161 135 104 114 122 163 170 87 85 87 32 111 132 116 71 58 63 31 123 88 41 72 65 85 159 133 128 178 98 83 151 188 126 108 109 99 53 79 123 133 92 169 77 97 172 199 
148 156 155 203 193 196 119 131 139 120 92 84 97 178 175 95 102 73 106 47 57 218 181 189 179 120 159 141 143 158 160 52 63 45 87 123 87 84 101 128 148 74 81 114 66 167 131 60 88 191 149 79 138 111 161 117 167 164 210 204 205 206 207 211 228 229 228 229 232 249 252 239 228 226 228 230 241 242 102 74 86 161 153 110 95 108 118 166 133 89 93 27 48 140 128 77 67 74 34 50 131 35 78 87 91 116 159 157 171 158 105 115 176 141 117 120 110 48 56 163 186 162 212 77 84 168 202 166 
141 148 189 186 188 182 127 140 145 82 91 54 99 115 92 132 75 84 77 67 100 187 182 184 150 167 142 144 156 166 72 59 32 91 130 94 69 159 78 148 100 95 113 92 124 129 59 100 171 165 92 126 121 89 145 153 182 206 202 206 210 206 212 229 231 227 229 234 248 253 241 229 228 226 234 244 248 100 85 83 153 171 116 98 103 91 113 172 92 102 45 18 101 138 103 69 97 56 42 161 57 65 88 97 85 157 155 154 181 106 90 139 189 98 105 98 89 68 149 208 227 140 148 115 136 186 173 160 
134 164 196 189 198 111 127 130 75 103 77 109 114 97 148 79 93 79 85 96 114 172 189 186 143 124 138 147 142 70 64 78 87 138 106 84 140 76 112 129 97 98 104 130 158 81 117 154 186 86 113 145 68 162 142 207 203 211 214 214 211 214 229 233 229 229 235 245 252 243 233 230 229 236 247 254 100 86 72 136 187 125 107 97 97 78 136 158 93 56 27 48 120 120 68 91 89 41 85 117 52 83 100 83 131 155 155 148 125 86 129 165 108 99 58 97 71 125 205 232 164 210 82 94 193 161 159 139 
156 174 182 189 181 121 135 74 82 99 88 113 84 163 96 95 66 85 100 102 129 194 182 165 124 134 137 138 91 52 151 81 127 109 97 106 100 102 118 99 89 117 125 147 68 102 155 208 95 131 130 98 104 163 202 204 204 210 211 216 219 231 233 233 245 237 240 250 242 236 234 233 235 249 254 90 83 83 117 188 134 108 104 103 80 76 156 91 98 27 24 80 136 87 64 102 62 85 183 57 81 106 94 104 154 139 115 133 89 93 112 152 76 70 87 81 99 226 244 214 173 115 108 193 163 162 119 135 
135 211 187 201 105 133 58 53 120 106 100 142 138 113 54 88 82 90 97 107 165 181 197 111 130 141 149 116 20 143 130 115 103 97 105 132 90 99 90 124 99 70 151 103 85 158 208 125 134 101 108 98 182 192 205 211 198 206 220 222 233 233 236 247 238 239 248 242 239 238 238 238 249 254 82 84 84 120 173 148 102 105 105 91 56 111 152 92 17 63 68 108 112 43 82 94 70 86 107 81 111 112 99 140 131 71 89 107 103 100 124 83 92 68 84 102 194 222 201 177 159 120 167 164 133 159 146 136 
155 181 192 178 102 69 42 107 135 98 178 123 112 10 108 84 81 95 103 156 148 186 138 124 142 147 143 40 90 189 125 140 105 99 130 56 103 116 97 71 93 120 125 91 149 191 152 77 103 84 137 128 199 203 208 199 211 222 225 230 235 238 248 248 241 246 242 244 242 243 243 246 254 87 81 85 106 152 169 89 106 108 98 77 57 162 102 61 52 67 78 144 68 53 103 57 71 173 85 118 125 104 123 136 67 58 101 115 103 65 129 94 80 89 98 106 173 184 188 161 136 172 163 167 119 127 148 139 
197 190 200 85 90 47 79 160 99 180 119 109 18 83 89 91 102 102 142 154 188 179 124 130 136 144 55 80 171 139 118 125 140 89 106 85 135 41 119 128 78 162 98 140 175 165 77 97 87 138 125 206 208 200 210 221 222 226 231 237 241 248 249 245 245 242 245 245 246 247 249 254 74 79 94 117 152 186 85 103 112 100 84 39 90 151 64 21 63 94 122 88 38 72 78 43 73 120 115 126 101 118 133 77 40 53 91 112 49 114 101 97 105 101 99 152 169 167 173 144 188 178 169 104 133 173 112 87 
185 191 181 68 74 65 170 116 173 88 100 31 44 91 107 96 91 144 154 187 200 145 144 125 133 75 67 138 137 100 137 156 99 120 95 110 87 127 118 99 122 103 110 167 184 68 86 100 95 166 132 214 204 213 218 222 225 233 243 245 248 248 244 245 242 246 252 248 250 251 254 80 89 100 138 162 194 108 93 103 99 85 61 57 160 107 39 67 100 92 105 50 34 103 31 31 171 111 127 127 122 119 99 43 43 33 102 64 62 128 108 107 103 102 140 124 164 176 136 181 179 143 135 118 158 110 125 110 
190 197 70 103 70 163 117 176 142 86 54 61 94 95 102 101 134 151 182 211 178 147 114 141 80 47 157 144 89 125 164 150 73 117 104 126 102 86 96 58 136 102 163 203 75 94 109 82 176 123 212 216 214 219 221 224 234 244 248 250 245 245 245 242 247 253 248 250 252 254 94 94 110 136 187 196 150 84 101 112 89 72 46 90 159 35 56 63 105 120 76 43 82 58 4 64 142 124 131 128 113 110 55 66 7 55 64 37 112 119 108 84 108 132 105 180 158 143 174 154 165 115 143 117 126 125 10 210 
184 173 82 86 148 130 183 141 80 76 68 102 70 106 94 105 148 172 210 176 192 139 150 78 75 83 156 94 69 159 179 108 112 86 80 118 98 71 98 106 78 156 204 114 97 77 94 147 153 137 217 222 214 212 223 233 243 255 252 242 246 237 242 247 254 251 249 253 254 107 103 128 128 192 197 181 85 105 99 89 83 56 54 155 98 63 65 91 122 101 49 38 99 18 34 192 140 132 138 117 103 71 72 63 15 46 11 59 144 122 110 87 138 98 143 169 160 183 140 134 101 157 111 107 125 71 129 187 
192 93 113 135 139 161 136 90 88 66 93 68 97 92 101 150 158 206 180 190 214 144 96 142 49 151 130 47 118 165 136 88 116 92 139 124 95 143 44 82 152 192 154 105 81 111 128 165 129 212 224 217 216 223 233 241 253 255 241 245 240 242 246 255 252 248 252 254 114 117 132 133 157 200 206 101 106 93 99 100 62 45 88 163 47 80 104 115 113 80 55 106 53 22 52 174 143 127 127 100 81 77 70 31 40 6 44 137 137 134 116 138 104 147 139 150 172 132 114 133 145 160 86 124 99 13 195 190 
188 87 120 135 159 156 106 84 55 102 83 95 78 109 153 149 200 182 186 213 217 119 178 75 122 151 99 82 149 138 110 119 70 113 94 81 142 70 82 118 172 178 100 97 93 119 152 142 182 219 223 221 228 235 238 249 245 242 245 244 244 245 253 253 249 251 254 115 128 141 140 120 177 205 117 98 98 97 105 75 59 67 149 93 92 77 114 122 97 64 84 82 37 62 171 170 124 122 106 86 73 88 77 57 35 49 86 160 161 149 148 130 175 158 146 175 164 128 114 150 174 73 94 116 64 148 180 179 
101 99 121 164 146 64 69 48 94 87 101 61 131 137 146 193 185 175 210 214 229 174 160 106 136 136 90 121 99 100 129 99 84 123 53 151 107 75 85 166 194 72 117 107 122 144 130 168 218 217 226 230 235 237 242 245 244 246 249 245 244 251 254 250 250 254 120 130 152 156 111 121 203 166 84 102 96 99 90 59 50 70 160 78 80 110 134 83 97 71 105 46 72 83 183 132 112 95 97 65 100 102 80 64 46 50 160 162 168 174 155 202 221 123 173 151 117 125 156 170 99 99 115 78 48 207 187 203 
81 88 161 154 102 55 53 73 85 99 73 129 159 146 191 188 177 206 215 221 223 211 115 146 143 78 105 101 89 107 98 117 164 79 117 165 94 71 149 200 75 87 112 102 137 108 168 211 213 229 233 233 237 235 243 240 250 252 248 246 248 253 252 253 254 127 128 154 141 114 70 179 189 74 97 97 91 88 56 45 78 135 102 89 115 145 86 97 77 121 48 64 77 145 153 120 105 111 61 89 90 91 79 49 69 108 159 175 192 183 213 252 136 187 149 128 142 146 167 132 108 74 104 93 157 182 182 176 
55 152 163 107 60 58 63 77 97 88 99 151 149 194 193 178 201 215 218 225 224 139 159 162 94 99 93 90 68 107 114 81 138 95 151 96 79 130 192 118 76 76 94 144 105 154 195 223 228 235 233 239 230 239 241 253 253 250 247 246 250 253 253 254 109 133 145 143 119 44 135 212 86 85 91 92 90 71 48 58 76 168 89 98 119 116 58 103 93 71 34 77 98 157 116 117 115 68 62 100 83 100 84 74 59 148 151 187 181 185 246 187 183 154 120 158 133 129 167 102 48 116 90 91 203 190 188 111 
115 161 89 64 58 71 75 95 78 90 142 147 198 200 179 201 212 218 228 223 206 173 172 160 70 121 7 47 77 86 104 175 129 119 55 97 118 189 151 49 14 99 140 121 138 195 191 225 234 234 227 229 234 241 253 254 252 249 242 248 254 254 255 96 142 134 133 106 30 108 194 116 77 83 94 112 88 58 31 64 135 108 111 125 133 54 101 88 106 18 74 100 115 113 131 133 76 36 92 89 124 128 67 62 91 144 159 165 165 219 206 159 176 156 164 156 119 184 120 88 81 126 108 155 189 164 176 54 
153 83 56 49 78 89 88 76 95 155 122 205 209 179 201 208 219 230 223 210 180 175 169 81 125 15 87 57 57 109 186 161 135 53 92 116 181 172 72 31 75 85 156 127 196 184 223 232 233 227 230 231 239 253 254 252 250 244 246 254 254 255 105 129 136 137 109 58 99 140 160 83 84 87 113 95 74 43 49 103 185 100 113 103 80 70 100 112 38 54 98 120 131 113 135 121 17 105 110 94 140 85 71 76 163 139 153 183 178 196 165 183 158 160 159 126 170 139 89 76 164 93 101 211 171 195 107 72 
79 51 45 77 102 85 93 84 145 122 189 215 179 199 209 218 231 224 214 184 179 174 142 100 80 96 33 52 115 117 175 191 58 89 122 169 199 63 48 34 92 160 123 198 192 196 229 232 227 228 232 238 251 253 251 251 246 245 253 255 254 114 109 144 127 95 59 92 104 175 82 90 91 85 116 86 81 55 75 157 111 122 107 84 70 107 107 72 31 87 115 126 102 122 115 6 78 95 80 127 121 81 110 134 143 107 165 162 187 169 176 138 145 136 128 175 145 86 86 149 137 127 150 170 179 161 85 113 
65 50 76 89 90 110 92 135 157 154 201 180 195 210 222 229 226 218 189 177 194 170 103 116 68 56 74 79 175 196 181 78 80 124 151 200 80 76 69 105 99 146 186 194 198 226 230 227 228 233 237 247 247 250 250 248 246 252 255 252 94 118 136 86 85 78 89 100 145 100 94 94 91 95 97 91 77 59 113 180 110 107 79 74 101 112 119 27 66 96 143 136 93 97 57 3 85 85 106 135 83 119 116 151 109 166 183 177 174 187 160 118 124 127 162 150 83 96 127 215 104 87 204 186 184 151 87 69 
55 68 64 97 113 90 156 166 150 201 182 190 211 221 227 228 219 198 176 189 205 127 120 74 99 86 81 217 234 123 98 105 148 126 196 100 95 90 83 111 135 158 199 200 203 227 227 228 232 239 241 241 249 249 249 247 252 255 252 79 133 112 87 75 85 84 103 111 116 77 73 89 82 98 77 82 85 121 183 124 119 80 49 100 125 122 40 43 74 130 155 91 91 30 10 51 80 96 125 86 95 120 146 150 114 176 184 186 175 140 94 122 125 163 128 105 83 99 216 127 102 140 180 173 181 108 72 75 
83 93 91 106 91 128 153 182 190 173 186 211 221 226 231 219 208 178 184 202 219 120 64 98 87 93 168 230 96 104 107 112 113 192 132 86 95 87 125 100 163 194 198 205 226 227 228 231 240 237 239 247 249 250 248 252 255 252 74 124 123 67 73 82 80 92 95 102 77 82 67 102 71 89 81 106 101 122 187 104 91 81 81 123 134 94 42 63 89 123 131 77 23 3 3 92 93 97 104 88 127 124 145 114 180 174 176 151 143 142 93 125 161 115 140 67 154 220 192 70 69 198 179 192 176 70 66 53 
73 78 102 92 128 160 188 191 183 183 209 221 226 233 221 214 185 181 199 214 102 64 110 96 121 156 243 199 102 73 112 77 169 172 64 84 82 98 122 153 184 194 205 204 227 229 231 233 235 240 245 246 250 250 251 250 252 62 109 151 73 114 76 80 93 88 83 82 89 101 93 93 86 93 83 81 119 177 122 113 78 44 104 149 125 56 59 56 125 145 82 66 6 23 75 79 77 125 111 129 89 143 168 155 163 172 146 133 141 54 124 157 162 106 107 183 199 201 72 68 163 168 182 183 72 56 54 91 
81 109 92 130 151 168 210 189 189 206 221 226 229 225 214 194 178 195 210 87 84 102 110 107 155 237 223 104 79 109 86 153 195 57 85 69 82 121 129 208 189 202 205 227 229 230 233 235 242 245 247 250 251 251 250 252 65 91 157 61 137 91 81 74 68 76 76 68 79 79 88 88 100 79 97 121 110 177 102 91 96 87 132 136 90 64 59 90 96 114 93 46 12 24 73 63 94 117 119 111 123 165 152 134 150 142 124 132 112 117 156 173 68 161 167 193 181 115 39 111 198 188 182 81 62 53 69 79 
119 99 141 156 162 212 192 186 204 220 226 229 229 213 198 179 194 208 89 93 119 113 128 93 236 242 106 97 95 105 116 199 73 81 80 88 116 139 205 186 198 206 198 230 229 233 235 242 246 249 246 251 251 250 242 90 66 148 110 104 145 74 70 105 75 91 62 63 96 75 94 94 113 108 118 107 164 113 116 97 80 95 138 113 79 69 57 117 120 95 111 48 33 57 51 60 98 101 116 46 182 179 144 144 150 132 135 119 108 163 138 118 161 182 205 237 123 46 94 199 174 172 166 65 46 59 91 79 
118 152 163 169 201 196 182 200 218 226 229 232 216 200 179 190 207 98 89 83 187 126 90 210 235 177 77 138 107 115 204 95 78 73 92 124 123 179 185 194 204 201 231 228 231 236 241 246 251 248 251 251 250 243 101 65 123 103 47 211 79 89 117 140 143 118 79 76 100 77 115 110 103 108 112 103 164 111 96 120 96 152 124 88 77 60 101 118 116 121 113 15 28 53 33 94 86 109 38 158 187 151 97 132 133 126 129 144 171 134 148 159 196 207 253 157 74 57 184 197 184 186 74 64 69 74 94 97 
158 170 176 203 197 179 191 216 224 229 231 219 201 179 188 207 76 95 86 157 158 130 157 231 230 91 175 98 88 185 125 70 65 96 141 143 180 187 192 201 206 189 227 229 236 237 244 252 250 249 251 250 244 85 89 87 103 78 162 107 109 135 175 189 182 146 77 61 70 85 108 108 109 113 99 168 110 106 132 133 152 136 111 93 61 82 122 121 111 127 27 44 49 30 91 77 120 90 57 207 148 110 135 138 123 147 133 178 172 138 173 211 194 254 175 81 65 172 193 172 177 162 64 72 64 103 108 138 
175 183 202 199 175 188 211 221 228 231 226 208 181 185 205 97 102 93 83 184 118 164 237 237 108 145 110 74 188 153 41 76 101 139 155 154 190 191 198 209 196 227 227 236 237 242 249 251 250 251 251 245 93 112 86 126 72 65 156 125 163 179 183 190 192 157 76 81 109 109 98 110 105 106 117 155 112 108 146 143 153 131 92 65 86 91 141 143 109 53 43 37 44 80 87 107 113 22 194 171 110 106 132 139 133 130 186 183 143 192 211 195 235 204 54 81 133 190 212 177 184 73 78 74 82 120 124 156 
183 208 206 174 187 207 219 227 231 227 213 188 184 206 133 82 105 79 181 132 117 240 222 153 90 124 91 160 170 13 98 102 114 151 172 193 186 198 209 206 181 225 234 235 233 245 250 250 252 251 247 102 103 99 107 67 60 133 134 179 188 182 164 167 203 182 68 129 93 117 102 109 110 108 189 106 88 167 149 152 145 123 88 76 76 106 159 88 27 37 44 51 59 86 100 134 89 125 174 95 103 126 131 108 163 174 159 173 208 221 207 234 228 65 84 137 200 171 168 178 160 77 78 56 122 111 152 178 
213 208 175 185 211 220 225 230 227 211 197 186 207 140 87 107 107 109 166 113 138 228 219 74 118 87 141 190 8 99 110 127 128 169 197 184 198 208 213 188 223 232 232 233 241 246 248 252 252 249 85 104 118 113 90 55 43 157 187 186 143 137 133 151 201 153 85 127 94 125 113 106 113 137 137 108 125 151 147 150 150 101 76 95 34 117 153 36 36 26 44 26 79 78 141 115 87 176 143 98 115 114 124 167 154 159 183 210 221 196 225 240 78 102 141 187 139 199 181 182 80 91 53 105 85 121 181 177 
212 174 188 209 222 223 230 226 213 206 191 210 103 112 98 95 77 197 121 131 162 243 98 90 75 143 188 47 93 123 119 143 160 199 181 196 208 217 198 184 229 228 232 229 241 244 250 251 252 92 93 102 118 94 50 26 146 177 163 133 130 133 133 140 189 137 149 114 111 108 107 120 119 192 111 83 147 158 140 155 122 109 90 13 24 180 55 28 40 34 14 67 95 96 138 110 159 152 101 106 119 132 146 166 186 167 205 215 208 201 247 101 100 148 199 150 124 172 177 164 87 62 74 81 98 182 173 211 
178 191 198 222 225 229 225 214 198 195 211 79 132 80 106 102 144 140 144 145 148 159 102 85 112 179 65 97 117 99 163 146 200 179 192 209 218 207 189 228 225 229 230 237 239 246 253 253 22 62 94 118 95 52 44 78 166 150 128 122 120 141 122 161 218 136 94 114 97 112 115 119 150 124 115 164 147 138 142 142 107 89 48 15 77 149 47 39 43 30 41 111 70 178 109 141 143 145 124 136 135 158 167 176 171 208 211 206 207 253 146 107 110 195 152 36 187 180 182 89 92 60 99 102 157 176 203 216 
186 197 223 226 229 226 214 201 199 209 59 120 89 99 106 78 194 128 140 147 112 124 99 74 166 75 77 104 92 155 147 200 179 187 207 218 212 195 198 225 225 229 229 236 240 253 250 24 75 77 116 96 49 79 67 147 130 113 121 125 103 123 121 135 189 89 114 105 110 111 127 120 182 129 131 144 153 123 143 100 126 54 41 27 166 72 60 57 42 34 110 75 130 120 113 153 157 155 148 134 172 143 163 199 215 215 201 199 254 198 111 78 208 163 51 146 174 174 168 88 73 92 115 145 182 197 217 178 
200 220 227 227 228 213 203 196 205 128 97 127 97 110 91 177 125 156 132 127 115 99 76 113 89 67 104 94 126 164 200 182 181 206 218 214 200 200 226 223 227 230 233 235 250 253 84 55 50 107 91 67 83 101 110 136 126 124 128 117 114 129 127 178 176 84 100 101 114 122 108 172 129 91 165 152 112 135 104 111 49 26 36 38 109 43 45 63 54 66 74 101 164 112 142 147 162 151 133 170 145 145 171 224 216 206 194 252 228 94 78 176 144 41 93 194 177 182 87 85 78 110 145 171 199 217 179 177 
216 227 227 229 215 203 199 200 169 59 145 66 101 114 99 174 135 130 113 136 118 74 62 100 51 82 102 115 155 177 186 178 204 206 215 203 201 201 223 224 230 229 233 243 255 103 50 73 83 91 72 72 158 117 118 127 124 123 115 123 122 144 156 190 120 113 120 112 114 115 128 181 109 150 143 112 120 119 79 81 17 52 26 77 62 72 69 61 53 76 83 163 115 107 156 154 150 138 167 154 120 138 228 211 209 203 244 234 74 95 180 151 41 126 128 169 173 164 80 84 113 152 169 204 217 182 177 196 
226 227 223 220 203 202 200 167 106 134 95 101 110 90 200 120 134 100 127 143 105 58 76 56 78 115 117 135 182 188 177 199 206 215 205 202 202 225 223 228 230 232 237 254 84 91 82 71 95 71 54 173 121 112 121 119 112 116 120 104 109 125 144 195 87 94 112 113 111 102 202 131 113 156 125 88 133 79 111 29 42 48 57 63 42 58 74 84 104 86 143 113 131 130 167 158 160 146 169 124 129 166 213 207 209 233 240 84 60 163 159 53 99 49 212 175 180 79 80 123 148 159 219 220 184 176 193 211 
227 223 224 207 203 203 153 156 72 139 70 98 119 139 149 136 113 99 166 115 177 54 72 75 107 113 142 181 195 178 194 205 206 208 203 200 217 224 226 230 231 235 248 72 95 78 82 86 82 49 177 138 130 112 113 111 119 116 118 112 112 143 170 145 103 127 110 104 104 147 130 107 152 120 52 131 109 72 52 40 55 41 36 82 82 76 74 107 87 112 145 139 105 169 173 164 135 172 133 124 117 228 211 195 230 251 112 5 128 172 38 57 89 123 167 173 158 74 118 147 148 224 223 186 175 194 207 222 
223 223 214 204 207 136 161 91 128 85 104 111 103 201 129 123 102 125 151 87 166 66 85 121 109 153 173 201 179 187 203 204 210 205 196 214 226 226 229 232 234 241 71 76 117 102 73 108 33 177 136 113 114 121 117 122 113 113 135 119 129 142 190 84 100 96 104 102 110 191 108 130 133 55 86 133 76 96 39 43 55 79 102 76 72 86 92 115 130 147 95 128 124 179 176 158 153 134 131 120 178 221 193 224 250 165 23 108 174 27 57 93 9 193 175 174 72 122 157 143 204 211 186 174 195 205 219 227 
223 221 209 208 134 155 145 132 119 80 97 121 170 137 138 109 88 182 115 136 152 98 133 99 136 163 203 182 181 199 201 215 209 191 210 221 227 228 232 238 238 116 68 118 91 77 117 36 174 150 112 118 116 124 124 118 120 106 118 120 143 157 164 103 105 104 97 106 179 112 109 139 68 28 137 116 100 43 44 65 63 101 113 84 87 114 111 140 133 115 140 103 196 166 152 137 140 132 125 137 213 212 203 249 202 91 119 156 38 65 62 44 139 168 167 151 112 164 138 181 223 185 172 194 204 216 225 223 
226 219 210 139 141 155 150 109 86 106 117 112 190 146 115 105 146 158 119 96 163 128 123 109 154 200 188 177 194 200 213 212 191 207 216 229 227 231 239 237 110 74 94 104 75 108 70 153 145 97 93 110 114 124 126 125 116 118 126 125 144 181 110 106 99 99 103 141 169 97 141 97 25 110 134 119 100 52 58 70 118 118 104 99 151 79 98 123 139 123 97 168 174 172 145 138 123 123 142 187 201 199 254 224 125 140 139 13 78 65 85 49 180 173 167 117 141 151 172 212 185 170 191 203 215 224 223 223 
227 216 131 137 156 154 107 114 90 107 112 184 140 118 107 95 189 130 94 180 138 141 122 145 197 191 170 190 200 211 221 195 206 211 213 229 230 239 245 74 130 79 113 70 102 104 136 159 103 113 105 112 123 130 122 120 134 127 117 134 148 179 111 96 101 101 107 196 114 128 114 40 68 135 144 110 74 47 77 129 86 137 110 160 114 70 151 147 128 107 160 180 144 119 137 128 117 143 128 220 217 254 226 115 151 138 11 80 93 83 79 144 167 162 142 139 176 163 193 198 169 190 201 215 223 224 223 226 
227 115 140 146 155 116 114 88 110 116 117 185 102 92 82 153 177 154 94 118 124 146 137 197 190 175 187 203 211 222 200 206 210 210 231 230 238 246 80 106 79 108 77 87 118 137 168 116 107 104 109 125 125 116 125 130 122 129 123 145 176 149 102 115 106 111 131 135 106 138 68 62 135 151 127 111 47 85 140 117 138 120 137 121 77 113 86 154 151 153 160 146 143 143 130 141 148 151 192 209 254 233 103 122 143 49 74 73 89 108 70 195 168 161 135 140 178 185 203 172 191 201 215 216 224 224 226 225 
65 133 139 156 135 106 118 99 120 100 193 128 96 80 104 178 156 75 184 127 123 143 195 192 177 194 207 213 225 206 206 211 207 207 232 236 246 92 93 130 122 105 95 123 133 177 115 101 105 106 125 118 120 130 133 127 129 124 126 144 191 98 108 110 108 125 192 121 145 79 61 129 141 142 128 79 83 101 131 81 142 99 166 94 75 120 159 159 133 160 142 116 113 132 146 152 159 82 212 244 243 116 145 145 38 70 65 112 102 91 146 163 159 143 131 215 177 200 173 192 202 216 216 225 225 227 225 236 
119 141 153 141 99 130 87 115 113 123 173 100 91 76 117 164 97 173 148 126 120 192 197 175 199 210 217 227 209 205 210 205 209 234 236 245 130 115 97 127 116 83 149 117 191 109 111 106 104 124 115 133 140 144 134 125 130 122 144 174 138 100 109 97 140 147 113 118 103 83 107 138 147 138 96 62 74 142 125 159 98 154 98 115 153 102 174 149 151 129 140 117 130 135 147 155 89 199 250 248 149 145 108 4 78 79 130 95 104 70 182 149 174 118 194 186 197 182 199 203 217 215 230 227 228 226 219 41 
135 151 147 113 110 111 108 128 97 190 124 105 72 99 126 144 79 129 124 126 173 201 174 201 211 222 227 213 201 205 204 209 209 238 243 130 85 116 101 102 101 167 107 188 116 109 106 104 119 119 147 158 165 158 138 132 130 124 141 179 82 115 109 104 129 159 111 136 76 99 146 140 140 122 62 90 79 114 156 129 103 149 120 126 121 159 165 123 121 113 94 124 100 159 162 148 113 244 254 176 104 122 12 75 87 114 101 103 89 139 145 207 119 173 217 192 188 184 204 219 216 229 228 230 227 220 48 98 
151 154 135 86 133 86 117 115 150 159 120 102 106 84 134 72 197 143 130 136 214 177 197 217 225 227 217 200 200 200 206 213 240 243 76 113 157 128 97 152 158 130 173 136 106 111 104 113 123 170 181 190 189 185 150 127 125 136 171 96 104 107 114 140 185 107 131 78 122 140 141 142 132 62 81 17 136 116 140 99 143 144 154 158 155 159 124 91 92 63 96 69 135 170 142 74 209 254 202 55 113 57 68 79 110 112 100 95 86 193 215 148 162 225 194 184 187 202 221 218 229 233 231 228 221 78 71 122 
162 154 95 105 104 111 127 101 188 130 126 90 106 98 101 144 132 122 128 193 220 193 220 215 225 220 201 190 195 200 215 223 244 66 107 86 136 115 155 144 109 169 151 114 109 105 109 120 177 198 209 209 195 179 137 130 127 143 168 88 111 115 116 133 126 121 119 110 102 151 135 133 99 62 26 116 94 127 122 101 141 157 144 156 166 122 74 71 29 72 107 59 159 72 97 125 212 230 43 98 45 73 85 109 106 93 105 112 130 204 184 173 215 206 186 189 206 223 220 229 233 232 229 223 82 65 143 155 
157 138 69 141 79 113 111 159 146 139 99 117 86 135 55 184 137 133 159 223 216 217 219 224 221 202 186 190 194 211 223 246 81 80 89 130 132 121 152 121 121 166 126 111 103 109 115 185 202 220 215 206 205 177 125 129 130 167 78 89 98 123 114 191 112 143 88 87 142 133 137 116 58 28 80 89 147 112 92 98 173 147 132 140 141 103 35 26 46 67 5 114 112 120 80 152 216 96 109 39 82 93 107 82 76 119 96 82 181 196 187 215 188 188 182 209 216 222 229 233 227 230 224 68 84 109 159 165 
174 67 121 89 104 130 102 187 129 124 87 124 121 92 158 138 123 129 208 215 214 221 229 221 207 182 186 192 204 223 240 83 71 77 115 116 110 159 145 73 187 120 116 104 111 112 188 206 223 213 213 204 216 148 129 131 147 175 96 106 119 135 167 109 145 116 105 102 141 122 126 95 6 93 101 108 87 83 60 133 134 124 122 140 121 28 41 27 58 71 97 140 110 84 127 175 168 124 56 86 82 113 70 92 108 92 85 140 188 190 225 200 182 190 208 217 223 229 232 227 230 224 66 81 85 142 157 160 
116 89 141 63 115 103 169 135 129 100 110 95 132 79 164 134 134 177 224 205 219 231 220 212 180 182 191 199 221 237 99 85 79 103 90 101 152 141 62 176 118 117 109 115 115 188 210 214 215 213 203 215 196 133 130 132 168 89 100 108 122 118 148 132 145 127 83 129 102 137 113 69 84 108 81 160 53 58 68 145 122 61 62 110 62 51 37 45 42 141 104 115 99 139 145 169 121 86 87 89 112 84 83 111 109 98 111 166 191 227 203 184 196 205 217 227 230 232 228 235 223 71 67 89 134 147 163 174 
83 144 63 98 106 105 186 116 124 73 128 125 105 175 146 128 130 215 205 214 216 222 218 183 177 191 198 218 233 99 84 78 85 81 90 152 128 79 168 132 117 115 116 119 189 211 213 218 211 204 206 222 171 129 136 144 142 85 102 123 129 190 108 153 145 105 117 99 107 129 96 43 110 79 141 35 49 39 143 84 19 28 69 83 69 48 52 58 70 122 132 121 129 156 175 112 104 82 106 95 95 75 112 101 96 117 150 195 218 195 193 182 203 215 225 231 232 228 235 223 68 77 78 132 135 154 167 162 
132 122 79 112 99 175 126 126 108 120 121 125 110 146 134 136 187 218 206 220 214 222 191 172 190 200 216 233 111 97 89 76 93 76 137 128 86 138 152 124 116 119 114 195 210 212 216 209 204 197 217 208 150 127 137 172 84 104 128 125 149 113 157 157 137 114 120 57 144 100 62 102 84 132 147 36 49 121 83 56 38 4 64 75 65 65 87 23 152 118 142 108 145 184 135 102 76 118 92 94 88 118 141 102 128 142 195 215 193 194 195 204 213 223 229 232 229 235 231 82 88 68 110 133 139 170 172 118 
144 83 106 128 111 181 119 132 80 137 127 84 186 150 134 134 215 210 222 218 198 200 172 187 196 214 236 139 94 86 80 102 72 139 126 99 88 174 135 113 122 114 200 210 209 213 209 200 195 209 211 194 131 137 156 125 82 103 123 107 159 117 159 155 128 135 39 101 117 78 87 95 126 154 47 60 93 143 59 52 32 82 63 79 58 94 54 84 47 112 151 103 161 77 92 77 108 103 97 94 115 106 120 128 146 195 220 201 185 186 206 211 222 226 232 228 236 231 68 72 91 77 137 146 172 170 154 145 
115 91 123 109 173 129 136 107 110 135 115 136 139 135 136 189 227 213 220 203 208 175 184 197 214 236 152 108 94 109 102 80 137 122 95 56 179 131 115 121 115 171 213 206 210 211 195 200 199 219 217 167 124 144 177 80 96 128 123 164 114 176 155 142 140 86 36 144 73 94 102 106 170 94 72 83 185 53 81 78 55 42 54 76 94 82 62 43 128 180 82 93 109 51 87 87 116 90 92 105 109 154 138 150 195 217 202 185 186 210 211 222 222 229 228 236 230 35 77 110 82 129 138 168 175 172 160 149 
74 96 145 112 178 132 131 87 128 130 78 185 152 139 136 216 210 223 217 203 202 181 198 208 233 170 136 91 104 104 90 121 131 62 65 175 131 121 117 118 169 216 203 209 212 191 203 198 215 207 204 132 142 165 90 95 113 113 127 109 166 146 151 133 105 14 113 90 78 98 89 166 115 95 92 161 108 67 51 57 84 30 99 74 77 67 94 117 204 153 89 173 34 97 76 119 92 99 108 115 154 157 151 193 221 195 195 198 210 212 222 223 225 228 235 228 41 69 76 104 111 134 173 179 179 178 162 142 
88 128 115 172 131 140 110 101 127 119 150 145 135 137 181 223 220 213 204 208 203 197 208 229 173 145 104 110 105 94 95 150 78 77 156 132 125 117 120 165 220 201 209 211 203 199 204 210 212 217 175 133 145 159 85 94 119 112 161 134 165 158 124 102 87 70 133 19 91 84 128 158 2 101 125 146 82 72 80 92 69 82 104 62 49 70 98 149 166 81 152 108 120 88 114 97 72 103 104 154 159 162 189 221 199 198 202 209 215 222 226 222 231 233 225 88 51 72 104 109 127 159 176 181 189 171 137 106 
83 110 112 168 136 127 97 107 126 97 178 150 141 148 216 219 216 209 207 203 220 207 226 133 160 133 111 118 95 91 152 67 74 98 146 133 120 122 157 222 201 209 206 204 193 208 205 213 215 202 134 141 164 81 106 129 113 174 88 169 162 120 91 111 73 133 68 69 80 99 176 19 103 129 135 54 129 78 74 71 79 134 68 54 85 123 139 72 90 185 198 116 105 106 104 77 83 135 153 160 177 189 215 200 192 197 209 217 220 227 221 229 232 222 116 50 69 88 96 115 148 160 171 191 180 165 141 63 
104 102 177 123 116 109 100 133 136 156 160 134 127 187 225 222 212 208 210 208 210 223 80 177 139 110 128 115 107 126 85 49 54 177 130 109 125 148 220 194 208 199 203 204 208 202 212 210 210 161 133 147 141 89 107 119 105 95 168 171 127 92 99 157 128 123 47 92 105 148 80 59 138 95 33 108 89 85 104 105 107 94 81 115 85 76 4 119 193 195 134 107 102 107 80 89 152 150 159 170 195 212 200 195 199 210 220 225 226 223 227 231 219 112 76 66 72 64 103 136 151 155 184 179 145 157 101 79 
84 122 156 120 114 112 118 123 87 172 148 148 142 211 225 223 207 209 212 221 188 85 154 150 131 116 111 121 110 113 16 62 181 119 118 128 138 211 201 207 196 201 202 205 200 206 212 223 202 136 140 165 110 107 128 126 161 136 173 141 94 67 176 165 133 75 76 120 118 144 50 123 102 62 126 104 129 134 136 101 103 128 115 126 62 51 106 180 168 146 119 102 103 78 102 111 147 158 172 202 212 199 195 208 210 222 226 224 224 226 233 217 119 102 61 72 78 68 112 145 150 170 168 179 163 122 47 75 
92 185 116 105 92 96 148 153 161 171 156 133 179 223 228 218 208 221 216 208 185 99 180 138 104 96 114 108 124 7 43 130 123 125 132 129 198 207 211 198 199 199 205 201 197 211 222 224 160 133 157 148 85 123 122 176 96 188 143 95 61 137 186 130 104 95 107 120 167 76 69 142 106 122 80 139 130 159 121 111 146 142 131 100 82 160 211 160 118 111 92 91 72 111 143 143 155 174 206 213 199 197 202 212 223 227 230 221 224 235 229 142 113 66 77 75 22 75 135 136 157 158 189 152 137 89 79 76 
143 154 105 106 102 153 119 100 169 137 147 141 195 218 237 212 219 218 221 186 191 177 113 114 88 98 100 138 15 31 65 143 126 121 122 182 210 212 201 199 197 201 201 192 206 221 225 194 136 145 159 125 117 115 122 110 179 147 104 59 74 183 158 105 92 73 132 166 121 67 139 132 127 139 93 130 142 159 136 123 168 120 77 83 162 197 141 85 101 97 80 69 101 160 140 151 176 208 213 202 200 202 212 222 228 228 218 222 235 235 131 110 87 83 71 37 38 95 118 165 157 174 180 150 100 43 61 94 
191 112 100 89 92 118 156 166 161 154 150 153 203 231 215 216 227 209 234 181 176 175 131 103 70 97 137 30 41 41 157 129 113 127 163 213 209 200 203 197 195 197 194 198 217 226 215 156 135 173 142 97 133 132 154 134 160 112 59 48 122 158 124 77 81 82 167 145 100 71 131 126 145 118 140 114 146 134 115 149 122 66 118 168 208 142 82 109 81 77 69 83 170 165 147 178 210 215 203 202 205 216 220 229 226 220 218 233 241 119 131 112 49 64 75 12 37 102 142 161 169 178 157 114 79 77 74 100 
164 95 94 82 139 110 166 183 154 157 144 174 201 221 213 216 183 236 190 181 186 130 117 73 103 112 81 36 40 158 136 117 123 147 214 204 200 206 199 191 194 197 195 209 222 219 182 135 162 119 109 136 123 177 104 171 122 71 32 63 166 125 54 103 58 170 152 149 63 95 109 124 134 135 99 96 121 138 114 119 61 117 190 189 152 91 107 67 72 72 77 160 175 144 178 213 215 202 203 210 216 219 228 224 221 215 229 243 88 126 108 84 74 92 7 9 68 101 152 156 161 179 134 95 61 65 98 144 
117 93 99 106 91 153 147 175 151 153 139 175 207 196 195 163 171 245 174 183 180 119 114 101 97 134 17 45 62 143 125 123 122 207 205 200 200 203 189 190 191 197 202 218 216 208 146 148 170 123 125 128 141 114 173 131 81 18 62 131 151 91 114 52 120 160 171 106 91 109 106 95 150 93 81 132 166 112 101 76 124 186 180 167 124 107 74 76 88 88 136 177 138 177 216 214 198 205 209 216 220 227 224 223 212 226 242 70 130 129 108 60 73 70 16 23 77 130 162 165 167 157 122 89 77 87 97 193 
87 74 98 105 97 161 157 153 154 151 162 173 183 151 153 120 246 196 186 196 157 131 115 109 142 49 39 26 145 128 121 126 198 211 200 200 206 191 185 192 201 198 217 213 221 168 138 171 93 93 137 134 134 161 140 86 25 58 66 162 82 104 89 90 165 174 125 86 106 92 60 137 100 70 125 139 130 102 93 135 198 153 136 125 124 79 72 74 103 124 162 126 177 217 212 198 208 206 217 220 227 226 224 218 225 239 55 114 129 113 87 63 107 17 16 71 81 159 161 153 175 133 98 75 88 106 142 183 
82 90 108 111 156 89 170 154 139 150 151 168 132 149 129 166 226 184 189 181 137 140 131 120 113 78 65 152 126 117 133 178 211 198 199 199 193 183 191 189 198 211 211 213 199 135 166 131 117 124 129 167 132 160 92 40 30 75 137 115 113 93 74 144 179 133 115 108 101 59 96 89 56 84 126 115 111 99 160 186 150 83 145 106 80 57 84 94 132 141 137 186 218 210 197 206 209 216 220 226 228 226 226 226 239 82 96 149 110 91 57 88 54 48 55 59 109 166 164 165 162 113 90 83 106 104 195 126 
73 125 108 102 122 152 160 139 152 149 144 128 143 143 108 244 189 184 199 149 125 155 108 140 90 58 106 125 115 134 161 204 198 199 197 195 185 188 192 200 205 210 210 225 150 150 156 104 98 128 169 102 170 111 43 18 62 83 135 95 79 100 75 185 141 102 81 106 65 76 77 78 100 115 114 103 113 169 189 132 78 141 80 87 69 95 104 148 133 160 167 218 208 195 206 215 215 220 226 230 227 234 229 240 73 66 148 128 103 86 49 66 59 54 78 83 148 167 161 168 145 97 68 120 108 137 197 81 
88 87 94 114 102 163 163 147 150 132 150 134 140 126 217 221 186 191 175 138 124 122 138 103 69 48 154 126 128 138 206 196 199 196 197 189 185 194 186 203 205 210 216 182 136 173 88 99 124 151 123 157 132 50 47 54 90 136 78 58 76 69 135 174 79 91 74 80 68 71 93 81 97 110 77 112 138 178 106 82 105 94 104 102 86 114 84 142 153 178 218 207 194 207 213 214 219 227 229 228 237 235 248 74 80 131 141 112 82 40 59 40 79 79 77 103 163 175 165 167 99 67 93 106 110 187 134 88 
124 100 100 141 155 177 152 134 133 175 152 150 160 161 248 187 178 194 164 121 166 109 97 75 62 153 139 120 122 192 194 200 196 195 191 186 188 191 205 199 210 213 211 139 165 132 120 114 119 148 140 136 77 58 44 75 115 92 77 43 91 90 165 75 95 69 82 63 98 101 87 115 99 98 87 101 152 84 50 96 132 104 123 91 139 130 154 129 210 217 205 192 208 212 214 217 227 230 228 235 239 245 92 84 91 168 130 96 77 29 5 86 59 62 77 150 171 174 160 147 93 79 118 97 124 197 97 103 
78 83 97 149 150 167 156 131 170 177 154 164 128 238 230 183 193 189 148 164 212 125 51 82 71 122 119 121 165 211 201 197 193 200 192 178 190 189 197 206 213 220 160 149 171 104 102 105 162 99 141 109 51 50 67 125 102 86 3 85 147 120 126 110 104 89 90 115 112 93 112 94 105 102 89 111 29 40 99 144 130 95 112 169 135 116 140 209 220 199 191 210 212 213 216 227 231 229 230 239 241 77 79 93 154 138 113 93 26 12 56 52 68 60 112 155 184 165 166 113 97 91 71 107 170 153 119 110 
83 109 162 129 156 169 106 106 171 157 161 139 194 252 198 188 200 177 166 214 151 88 105 101 138 123 125 139 206 202 200 192 198 197 175 179 191 200 202 212 217 181 143 175 102 96 113 154 106 160 112 55 59 65 109 107 80 28 65 143 101 141 117 130 84 112 118 132 119 104 105 98 98 91 71 2 57 80 139 153 103 120 171 140 128 176 180 225 207 191 211 212 213 215 226 232 229 227 237 237 79 82 98 92 163 131 100 65 11 11 88 66 56 83 146 176 178 155 138 108 75 96 91 111 195 130 135 95 
94 109 140 116 151 143 29 150 148 168 166 152 235 223 185 196 193 186 226 168 167 120 129 151 134 122 128 207 214 204 194 196 203 181 162 180 194 202 209 217 216 149 162 117 100 121 148 120 147 120 75 81 88 99 124 72 77 17 96 132 109 141 160 106 150 130 135 134 110 148 107 74 93 60 32 50 79 119 145 115 149 158 175 147 181 186 222 205 201 213 213 213 208 225 233 230 228 232 233 83 69 85 82 161 136 110 93 23 29 90 38 60 49 114 153 177 168 159 137 101 128 61 101 155 177 147 119 88 
94 113 102 121 157 134 133 139 167 178 142 200 248 201 188 194 201 209 200 151 183 167 159 140 117 131 189 211 207 198 194 201 186 153 190 182 206 205 215 218 154 155 152 110 115 145 145 127 149 82 117 84 101 120 81 68 3 64 144 91 130 167 116 124 120 132 134 108 156 109 70 77 76 60 58 85 87 139 115 148 155 166 164 187 220 214 196 198 214 214 214 209 224 234 230 227 228 231 106 80 77 85 110 157 126 105 47 27 71 80 86 62 79 132 168 179 151 143 118 141 68 56 110 187 156 117 68 62 
100 123 107 131 137 123 136 157 165 150 176 249 238 184 191 195 216 225 154 185 174 147 155 119 128 146 217 222 203 195 201 200 154 169 170 206 209 210 221 193 150 174 93 110 129 171 105 155 91 81 94 96 119 93 57 54 70 136 110 98 183 142 104 166 116 107 106 124 172 107 42 58 51 72 68 105 148 113 137 164 140 173 197 218 212 197 195 213 215 215 211 231 233 230 227 230 230 102 89 66 103 97 161 139 102 67 32 93 73 91 57 32 103 150 154 174 141 134 146 91 71 102 135 190 122 50 51 74 
96 112 118 112 103 116 158 160 167 158 216 244 192 187 188 214 189 164 183 179 166 184 131 120 118 213 214 206 198 201 202 160 96 195 196 216 206 223 201 144 169 77 116 106 177 104 150 117 32 133 99 129 102 67 54 57 113 125 112 172 144 77 164 62 46 94 97 182 110 38 65 39 69 74 115 154 136 131 180 156 172 206 218 216 206 198 205 216 217 213 233 233 229 225 230 230 96 116 83 90 102 124 154 118 98 39 64 100 88 97 74 57 134 141 179 161 117 129 99 79 76 105 173 154 58 38 33 56 
120 138 126 103 79 160 158 161 143 171 245 234 183 187 200 189 160 191 176 159 152 119 124 121 182 222 225 202 201 204 195 143 186 184 201 210 217 216 161 157 114 98 118 150 122 136 139 70 120 115 115 109 61 49 85 114 144 133 162 162 85 154 183 26 79 88 103 136 84 57 41 64 86 108 145 173 151 180 150 167 210 219 211 205 202 204 213 219 215 234 232 228 223 229 233 97 106 97 94 91 106 149 149 96 51 46 93 73 127 69 12 105 131 132 185 133 113 101 61 89 95 113 178 53 57 11 45 86 
137 143 91 17 108 151 152 128 144 244 244 191 186 190 188 164 189 166 156 153 97 119 129 151 228 215 205 202 206 198 188 109 200 211 217 210 226 177 152 164 93 118 117 144 113 144 114 87 143 133 125 65 63 83 89 131 123 161 161 83 110 176 65 77 76 80 111 101 58 62 49 88 127 151 199 178 165 151 162 208 219 210 193 205 211 216 220 217 236 233 228 221 229 234 99 93 126 97 89 102 119 157 113 82 45 72 80 85 97 77 53 132 112 169 155 96 78 37 95 125 91 144 115 17 24 51 54 108 
136 99 51 32 152 133 127 139 221 250 225 184 190 187 161 171 166 152 181 98 83 120 133 214 215 222 204 206 203 192 139 210 193 210 211 224 202 146 174 113 126 112 158 97 134 143 109 126 153 140 57 44 76 109 127 129 137 153 104 85 172 192 81 64 80 68 95 88 74 58 97 141 147 177 185 157 145 174 205 220 207 205 206 215 216 211 219 238 233 222 219 227 235 86 101 110 122 102 82 99 133 155 93 59 69 65 89 116 85 11 108 106 116 161 138 41 39 101 128 80 77 161 49 72 58 69 58 101 
118 106 27 147 120 124 124 193 252 225 199 188 190 165 183 164 152 199 136 85 82 120 186 223 214 205 205 207 195 179 161 176 220 217 217 221 160 163 117 167 123 163 96 109 148 129 90 144 158 63 46 83 103 102 117 102 155 114 56 156 200 79 89 87 74 66 122 82 83 98 133 168 169 176 151 153 171 202 220 206 204 206 213 216 213 220 239 233 222 217 226 237 79 90 87 109 122 90 88 109 154 115 69 57 66 95 100 97 64 64 109 74 122 172 50 36 79 108 61 34 116 98 61 90 78 73 62 119 
136 72 133 134 118 67 158 246 220 219 183 193 177 174 152 161 191 152 106 58 119 152 219 215 217 204 207 195 200 181 196 204 223 215 224 158 151 129 181 123 146 106 87 127 139 82 93 169 96 34 61 85 103 138 122 122 98 78 158 188 183 107 82 73 80 108 104 113 115 142 173 147 144 141 177 174 209 219 206 204 204 213 220 218 221 239 233 221 227 224 238 118 82 101 106 108 99 88 89 120 151 94 67 87 77 113 94 79 31 93 63 65 158 112 7 40 122 140 25 64 129 74 110 84 102 5 69 124 
154 124 153 125 37 138 242 214 209 199 188 188 174 138 157 188 173 120 31 114 86 205 217 216 204 206 205 200 197 189 170 217 220 220 175 161 165 117 155 152 115 71 83 132 75 50 131 105 33 80 71 93 156 116 75 124 103 118 180 198 83 86 84 98 109 148 133 126 149 152 152 143 135 187 188 206 218 209 204 205 217 226 224 223 239 231 221 227 223 238 171 112 88 99 97 129 95 84 106 138 119 87 83 78 117 118 88 44 67 69 33 96 161 23 36 108 149 5 43 109 91 123 137 66 75 5 115 152 
136 156 141 55 70 227 205 206 204 181 189 187 158 135 192 184 98 28 90 84 193 217 220 215 204 212 194 214 205 185 210 221 217 214 141 170 85 192 135 144 50 58 120 90 39 71 122 47 84 73 117 148 124 101 112 106 90 169 198 91 95 107 83 129 121 145 148 131 155 151 125 130 180 209 204 216 212 206 206 212 226 230 227 237 230 219 226 229 238 192 158 89 76 102 93 95 96 87 108 144 89 82 97 108 122 84 45 49 92 32 40 137 88 43 43 138 58 21 54 107 55 153 65 107 33 85 157 173 
