P2
128 72
255
88 88 86 91 127 188 212 207 187 132 141 102 75 96 14 44 85 47 58 42 36 37 40 40 34 31 26 27 47 63 74 64 44 60 91 140 159 162 212 214 215 204 176 162 165 166 163 163 163 162 162 162 162 161 161 160 159 158 157 157 156 155 153 153 152 151 150 148 146 77 78 80 83 87 88 100 99 121 155 141 140 137 136 132 129 131 83 20 43 37 28 1 201 211 219 0 51 56 62 161 160 159 158 159 165 165 162 170 158 153 154 153 142 140 141 141 140 140 141 141 139 141 138 139 138 38 74 82 
90 81 91 124 188 211 209 211 125 132 109 65 96 95 49 136 43 58 61 42 34 39 25 42 37 27 22 44 62 58 65 54 65 88 136 160 156 212 213 211 217 172 169 163 165 163 162 161 162 161 161 162 161 161 161 159 159 157 157 155 155 155 154 151 151 149 149 147 76 77 79 85 90 91 99 98 120 125 134 143 137 134 133 126 130 127 83 41 59 27 33 162 210 207 114 46 61 58 61 161 159 160 159 161 167 161 168 158 154 154 152 141 141 140 141 139 139 139 140 139 138 139 139 138 39 73 82 87 
82 92 120 185 214 206 215 122 139 109 41 51 89 40 40 84 62 74 83 39 30 31 43 37 29 26 38 69 51 65 79 86 110 143 160 159 177 212 212 214 173 176 162 163 162 163 163 162 162 162 162 162 161 161 159 159 158 158 157 155 154 155 152 152 149 149 147 75 79 79 86 89 91 96 97 132 126 187 143 138 135 135 131 129 132 45 39 68 43 37 90 213 207 185 52 47 64 77 149 161 157 159 160 165 161 166 161 155 153 153 153 139 141 139 139 139 141 139 138 138 137 138 138 51 77 83 89 85 
94 125 183 210 206 209 145 137 96 89 48 68 76 49 118 50 38 144 48 33 43 29 43 35 35 41 54 57 72 82 83 110 158 160 156 155 215 215 213 187 179 161 162 162 162 162 163 161 162 162 162 159 161 160 158 158 157 157 155 155 155 152 151 149 149 147 74 78 79 83 87 89 98 97 136 121 134 133 142 135 134 131 128 129 107 64 36 74 18 22 215 211 217 22 29 65 93 143 158 160 158 159 165 161 165 164 155 154 152 153 139 139 139 139 138 140 139 138 138 138 137 137 62 77 87 91 86 80 
124 179 214 208 207 192 137 99 103 0 28 65 31 30 84 59 173 142 45 31 36 42 52 39 39 44 65 71 79 91 149 155 159 158 158 195 213 214 208 174 164 163 161 162 162 162 162 161 162 162 161 160 159 159 158 158 157 156 153 156 152 151 151 149 147 76 77 78 84 92 94 99 98 132 116 94 205 143 136 131 133 129 126 134 20 25 67 33 17 210 210 216 0 40 55 83 152 160 158 160 159 160 162 162 163 155 154 153 153 150 139 139 138 139 140 137 139 137 137 138 137 61 78 89 87 88 83 94 
182 213 208 207 214 142 94 134 94 48 27 60 55 132 68 121 146 50 42 45 40 47 47 45 41 59 81 86 142 149 157 158 158 158 156 211 216 214 175 162 162 162 161 163 162 162 161 161 162 160 161 160 158 157 158 157 156 154 155 153 150 151 149 147 76 77 79 87 94 94 94 98 127 114 105 161 137 141 135 135 130 128 128 61 2 38 50 45 185 208 210 123 47 50 47 161 161 159 159 161 158 163 160 160 155 154 153 154 151 138 139 138 139 139 138 138 137 137 136 137 66 85 89 86 81 86 96 121 
213 209 211 214 128 78 118 87 26 45 71 35 51 85 106 176 133 50 53 35 40 49 45 42 56 69 86 142 139 158 157 157 158 159 204 212 215 177 163 161 162 162 163 162 162 161 161 161 161 161 160 159 159 158 157 156 156 155 152 152 150 150 147 75 79 80 86 96 91 94 97 134 111 102 74 210 140 135 132 132 129 127 129 40 39 50 57 140 211 209 191 53 56 81 127 159 158 159 160 158 158 159 158 156 155 153 153 152 150 138 139 139 138 138 139 136 137 136 136 73 86 91 84 84 85 95 124 179 
208 209 210 150 101 54 105 66 58 46 69 56 117 97 151 127 49 48 47 42 44 44 50 55 64 93 130 157 157 159 156 158 157 161 213 213 191 170 160 162 162 163 161 162 162 161 161 162 162 159 159 159 158 157 156 156 155 153 150 150 150 148 75 79 79 86 95 91 92 100 121 111 101 100 185 147 142 134 134 129 125 126 39 44 78 50 73 217 211 217 5 54 110 0 160 158 159 160 161 160 160 159 157 155 153 154 152 151 138 138 137 138 138 136 137 136 136 136 79 86 91 83 85 90 90 126 175 213 
208 208 196 62 63 117 86 41 48 63 47 44 90 151 182 138 41 53 46 51 52 49 45 91 111 133 157 158 157 157 158 157 158 210 215 211 170 161 161 161 162 162 161 160 161 161 162 161 159 159 158 157 157 155 156 155 152 154 150 149 148 77 78 80 85 93 92 91 97 104 112 102 96 0 213 137 136 132 131 128 125 109 93 74 56 4 217 211 214 33 58 47 124 153 158 158 160 160 162 160 160 157 156 153 153 153 151 150 138 137 137 137 137 135 137 136 136 83 88 89 81 84 94 93 126 178 214 210 
208 214 45 78 0 68 62 44 35 54 65 133 148 149 127 55 56 46 46 47 54 39 105 93 145 156 156 157 157 159 158 160 155 212 219 165 161 162 161 162 161 161 162 161 161 161 161 159 158 157 158 158 155 156 154 153 152 150 149 148 78 79 83 83 90 91 92 96 107 110 100 99 48 209 159 140 135 132 130 123 130 90 89 54 14 201 209 209 134 55 57 158 112 158 161 160 160 162 164 158 156 155 155 154 152 152 151 138 136 137 137 135 137 136 136 135 85 90 87 80 87 91 96 124 179 215 211 209 
215 79 99 56 104 93 35 44 54 65 83 149 148 188 154 55 47 46 51 39 50 83 91 162 160 155 156 157 157 159 158 157 213 216 173 161 161 161 161 162 161 162 159 161 161 161 160 159 158 157 157 156 155 154 154 154 150 151 149 77 80 81 87 90 89 94 97 106 107 106 100 44 105 214 136 135 132 128 127 121 85 106 52 49 167 207 210 197 55 64 118 155 159 159 160 160 161 164 168 156 156 153 155 152 152 151 151 136 137 136 136 136 137 134 134 84 89 88 79 88 90 93 125 179 216 210 211 211 
146 126 71 1 51 57 44 38 60 72 161 150 154 114 49 56 46 52 38 44 65 99 153 162 153 156 157 157 157 159 159 191 210 190 162 160 159 161 161 161 161 161 161 161 161 160 160 158 157 156 155 156 155 154 154 151 149 149 76 80 85 85 93 88 95 99 106 112 101 94 65 92 219 167 140 132 132 131 120 125 65 68 67 107 211 210 219 5 65 85 159 161 161 160 161 161 163 169 167 155 156 154 152 152 151 151 136 136 136 136 136 134 135 134 82 89 86 78 87 86 90 124 178 217 210 213 211 209 
120 73 77 84 89 48 34 51 59 147 145 146 187 150 56 47 47 52 59 66 111 135 156 153 156 156 155 157 157 159 161 213 210 160 162 161 160 160 161 161 161 161 161 161 160 158 157 158 157 157 156 155 154 153 150 152 148 76 83 82 85 92 88 95 98 107 113 102 93 82 99 135 214 134 135 130 128 123 122 0 55 83 46 217 209 213 52 63 51 160 159 160 163 161 161 163 167 167 164 154 154 152 152 151 151 150 136 136 135 134 135 134 134 83 90 86 81 87 88 94 130 176 215 209 210 211 208 201 
61 37 0 55 59 48 38 59 133 158 149 159 148 48 54 62 48 55 69 94 146 155 153 156 155 155 156 157 158 160 203 212 157 161 161 161 160 161 161 160 161 161 161 160 158 157 158 157 156 156 153 153 152 152 151 149 81 84 84 85 92 87 95 99 105 116 105 98 67 94 50 222 179 138 131 131 130 117 111 43 67 55 212 209 208 147 57 53 157 159 158 161 161 162 162 164 166 163 164 154 153 153 152 151 150 136 135 135 134 134 135 134 80 89 85 81 84 90 91 130 177 212 214 208 210 210 216 114 
0 80 90 80 54 49 59 100 148 149 143 152 149 49 59 43 30 61 72 149 157 154 154 155 156 156 156 158 158 167 213 166 161 159 160 161 160 160 160 160 160 160 160 159 157 158 157 155 156 155 154 152 152 151 149 78 84 84 88 92 86 96 99 104 115 106 95 81 95 85 164 216 133 135 130 124 119 122 39 46 52 184 210 211 202 57 41 129 160 160 160 160 161 162 165 165 165 162 162 154 154 152 151 150 149 135 135 134 134 134 134 85 90 81 82 83 89 93 128 178 214 212 209 209 211 214 126 46 
56 18 58 64 56 60 94 153 156 141 152 149 56 48 50 45 54 80 123 155 154 153 155 156 156 157 155 159 161 207 192 162 160 159 159 160 160 160 160 159 160 160 159 158 157 157 155 155 154 153 152 151 152 149 80 84 83 84 90 90 95 96 101 111 108 93 107 98 88 0 215 190 137 129 129 125 115 81 37 31 139 209 211 219 7 46 107 160 161 160 162 162 162 165 163 163 162 161 163 154 152 153 150 149 134 134 134 134 134 133 92 87 80 84 84 90 94 129 175 213 211 213 212 212 209 157 59 2 
76 98 88 54 63 73 153 149 150 150 149 148 34 42 54 56 72 105 156 152 154 156 155 155 155 157 156 157 172 209 159 160 161 161 160 159 159 160 159 159 159 159 158 156 156 156 154 154 154 153 152 151 149 79 83 81 84 90 90 92 95 101 110 107 89 98 98 85 40 195 217 134 134 128 124 117 124 37 20 76 212 209 213 72 59 90 162 160 161 160 161 163 164 163 162 163 163 161 162 153 154 151 150 148 134 134 133 133 133 88 89 79 79 84 89 95 130 174 212 213 212 211 208 210 205 66 1 20 
47 62 65 66 46 150 150 157 149 150 149 43 42 65 59 70 110 139 154 153 155 155 156 155 155 157 158 157 215 156 158 159 161 161 160 159 160 158 160 159 158 158 157 156 156 152 154 154 153 151 152 149 76 83 80 80 87 91 93 96 101 111 105 88 73 92 81 41 28 210 196 135 128 123 122 114 62 6 6 213 209 208 151 67 66 163 160 160 161 161 163 163 166 164 164 162 163 162 161 153 151 150 148 133 133 133 133 132 91 87 83 82 83 88 97 131 173 213 213 211 213 210 212 221 0 64 26 56 
87 95 67 59 141 150 151 154 151 151 149 44 51 64 70 114 142 152 153 154 155 155 155 155 156 158 159 178 168 162 159 158 159 160 158 159 158 159 159 158 158 157 155 156 155 152 154 154 152 151 151 79 82 79 80 91 90 95 97 99 105 106 88 88 113 92 34 23 211 214 140 130 129 122 113 114 42 0 200 207 210 203 56 73 160 161 161 161 162 163 163 167 164 167 162 162 162 161 160 152 151 148 148 132 132 132 132 94 84 81 81 86 88 99 130 169 214 211 211 212 212 212 214 140 65 17 30 71 
68 70 59 106 149 150 160 152 149 150 50 48 60 58 126 146 152 152 154 156 155 155 156 157 157 157 153 195 161 160 160 158 159 159 158 159 159 158 157 157 157 156 155 153 155 153 153 151 152 150 79 83 78 82 95 94 92 95 97 106 100 87 101 90 85 32 19 102 210 204 132 126 121 118 116 31 63 171 208 208 217 0 77 146 160 160 163 163 163 165 165 164 167 165 163 160 162 161 159 151 149 148 131 132 132 132 95 75 81 80 83 88 94 125 167 212 213 211 210 213 211 210 182 60 28 35 49 63 
88 65 82 151 152 150 152 151 150 150 56 62 59 88 145 156 156 154 155 155 155 155 155 158 156 158 193 156 157 159 160 159 159 159 158 158 158 157 157 157 156 155 154 154 152 151 152 151 151 81 83 76 82 92 92 92 94 99 107 104 88 88 90 128 76 16 0 218 213 149 131 127 121 111 85 72 129 211 211 211 81 88 147 163 161 162 163 161 164 163 165 164 165 163 163 161 161 161 159 149 148 147 132 131 131 94 79 82 81 87 90 95 123 166 211 214 211 212 212 213 212 206 82 5 21 42 64 108 
72 100 153 151 153 153 150 150 149 52 61 51 96 152 156 156 153 155 154 155 155 155 156 156 158 155 157 160 159 158 159 159 158 159 159 157 158 157 157 155 154 154 155 152 152 151 150 151 83 80 77 84 92 94 92 95 98 110 110 102 100 100 98 104 28 46 153 209 210 129 127 120 117 118 86 87 214 210 208 165 110 153 163 161 162 162 162 165 163 166 163 163 163 162 162 161 161 160 160 148 146 131 131 131 93 82 82 81 90 90 96 125 166 213 213 212 212 212 214 214 221 62 30 12 31 56 47 65 
78 148 151 150 150 151 150 150 150 55 53 95 143 153 154 155 155 154 153 157 156 156 156 156 159 167 157 159 157 157 158 158 159 157 157 157 157 155 155 154 154 153 152 151 151 152 151 84 81 79 83 93 92 92 92 98 107 108 95 92 100 81 121 23 26 0 216 208 158 130 124 117 110 101 68 209 207 209 209 142 158 163 160 162 161 162 163 163 164 163 162 163 162 161 161 161 160 160 162 145 144 131 131 99 81 81 84 85 93 95 130 159 213 214 212 212 212 212 214 215 94 49 12 28 43 63 102 107 
153 151 148 152 152 151 151 150 58 76 92 147 151 155 157 153 154 155 154 156 155 156 157 157 158 160 157 159 158 159 158 157 157 156 158 156 156 155 155 153 154 152 152 150 151 151 83 82 80 83 89 92 88 91 98 106 105 92 132 102 94 86 14 9 61 188 208 211 127 126 121 113 89 78 187 207 210 215 143 160 162 161 161 162 161 163 162 164 162 163 163 162 162 161 161 161 159 164 159 144 131 130 102 80 83 87 92 94 100 131 159 212 216 214 213 212 213 214 214 170 52 21 27 33 67 61 64 130 
153 148 153 153 152 152 151 151 94 113 139 152 153 157 154 155 154 156 155 155 155 156 156 156 157 159 158 158 158 158 156 156 157 157 156 156 155 155 153 153 154 151 151 152 151 81 80 78 84 87 91 88 94 96 105 107 102 120 93 90 72 104 26 42 1 212 209 168 130 123 119 111 87 145 209 210 210 162 164 161 160 162 161 163 162 161 164 162 164 162 162 163 161 162 160 161 163 167 158 144 130 88 84 86 83 92 97 98 121 161 212 215 214 213 213 212 213 216 213 27 4 7 39 58 58 94 152 148 
152 140 151 151 152 151 151 100 127 139 151 152 156 156 154 154 153 157 155 155 155 156 157 158 158 158 157 157 158 158 157 157 158 155 155 155 156 154 152 154 152 151 151 151 80 80 79 84 88 91 88 91 97 104 109 102 42 128 91 59 79 0 32 52 209 208 212 126 125 119 110 74 76 216 208 210 192 164 162 162 162 162 162 164 163 163 163 163 163 163 163 162 162 161 160 161 167 160 161 130 83 82 86 85 93 104 98 110 160 212 214 213 213 213 213 212 214 224 0 2 30 36 47 59 43 137 155 152 
144 151 153 151 152 152 153 144 149 151 151 154 156 153 153 155 155 155 156 155 156 157 157 158 157 158 157 158 156 157 158 155 156 156 154 155 153 153 153 151 151 151 150 78 77 78 84 86 86 86 90 100 102 106 90 109 137 80 40 67 88 33 49 91 207 206 176 129 120 115 70 1 217 209 208 211 162 160 161 161 162 163 163 163 163 163 163 163 163 161 161 161 162 161 160 166 163 161 158 82 78 85 82 96 107 95 124 148 211 212 215 213 214 213 213 213 215 96 40 40 34 49 41 53 126 152 154 152 
153 153 152 154 152 153 142 147 149 153 151 153 153 153 155 154 155 155 155 156 156 156 159 157 158 157 157 157 156 158 155 156 156 154 155 153 153 152 152 151 152 150 77 77 77 83 85 85 88 93 100 106 106 90 105 79 108 30 19 75 2 34 26 217 209 213 129 124 117 105 27 205 210 210 214 155 161 161 161 161 162 163 163 163 165 163 162 163 161 161 161 161 160 159 163 169 158 158 156 78 82 86 91 110 99 129 145 212 216 212 213 214 213 214 214 212 178 45 40 33 51 49 56 89 153 152 154 155 
152 153 154 153 153 152 147 149 152 151 153 153 153 153 154 154 154 155 155 155 155 156 156 157 157 156 157 157 156 155 157 155 156 155 154 153 152 150 152 151 151 56 76 79 81 84 86 84 92 101 101 105 92 57 122 134 37 32 55 107 29 46 137 205 207 187 131 119 115 44 169 212 210 209 171 162 163 161 162 163 162 163 163 164 164 163 164 162 161 162 161 160 159 161 164 156 156 158 157 84 86 94 114 97 128 153 213 213 212 212 212 215 213 212 214 219 0 50 46 51 52 59 55 157 151 154 152 152 
153 153 154 153 153 145 145 148 151 153 154 153 154 154 153 154 154 155 155 156 157 156 156 157 157 156 155 157 153 155 155 155 155 154 152 152 150 151 151 150 57 80 78 86 84 86 81 90 102 100 106 89 60 111 87 50 34 7 85 31 24 1 214 208 213 131 126 112 61 119 213 212 209 196 162 161 162 162 164 163 163 163 163 164 163 165 162 161 161 161 161 159 160 161 162 158 158 156 155 84 90 109 97 120 157 214 215 213 216 215 215 215 213 214 220 1 36 51 33 51 66 50 153 154 153 153 152 152 
154 154 153 154 154 147 146 152 152 153 151 153 153 153 153 154 155 155 156 158 157 156 156 157 156 156 154 155 156 154 154 153 153 152 151 151 151 150 150 64 66 77 84 84 84 84 89 100 102 116 87 30 97 127 119 34 30 48 76 10 48 179 207 208 194 127 115 100 51 218 215 211 213 159 160 161 162 162 163 163 163 163 164 163 163 163 162 160 161 160 159 160 163 164 159 157 155 154 155 89 107 96 121 156 209 213 214 212 214 213 216 213 215 215 109 29 31 34 47 62 45 132 153 152 151 153 153 153 
154 153 153 154 144 148 151 151 152 150 152 152 153 153 154 156 155 157 157 156 159 157 157 156 156 156 153 155 155 153 152 153 151 152 150 151 149 150 70 69 79 83 81 84 83 91 99 101 120 89 52 99 101 84 0 28 6 42 39 24 0 211 209 212 135 122 111 0 213 211 213 214 158 162 161 161 163 162 163 163 163 164 164 163 162 162 162 161 160 159 160 162 163 157 157 156 155 155 154 100 94 116 144 210 212 215 214 214 214 215 214 212 213 190 31 20 54 32 43 49 114 153 152 153 153 153 153 155 
154 153 154 155 146 148 150 151 150 151 153 154 154 153 154 156 155 156 156 155 157 156 156 156 154 156 154 155 153 154 152 152 151 151 150 150 150 72 71 61 77 79 80 83 89 99 103 115 94 56 54 100 108 91 21 13 42 14 31 46 201 209 206 201 123 108 19 192 210 214 213 174 161 162 162 162 164 163 163 162 163 164 163 163 162 161 161 160 160 160 160 161 159 157 156 156 156 154 152 93 119 146 208 214 215 215 213 214 214 216 214 214 220 0 30 40 58 45 56 106 155 153 153 153 154 153 154 154 
154 155 154 146 147 151 150 153 152 155 153 154 154 154 155 154 155 156 155 156 155 156 156 155 154 154 154 153 152 152 153 152 150 150 149 149 74 71 65 75 78 81 85 89 97 104 108 93 64 91 104 42 126 0 19 42 14 19 36 67 208 208 209 146 122 92 152 211 214 213 199 162 162 162 162 162 163 163 164 164 164 162 162 163 161 162 161 161 159 161 160 160 157 156 156 155 154 153 153 118 142 210 217 212 215 213 215 214 215 216 215 219 0 22 20 63 48 45 106 159 153 153 153 153 153 154 155 155 
155 154 153 146 149 151 150 151 153 152 153 153 154 154 155 156 157 157 156 155 156 155 155 155 154 153 152 153 151 152 150 150 150 149 149 75 74 62 59 80 79 84 92 101 103 107 89 57 98 57 61 79 62 12 8 17 29 28 14 215 208 207 206 118 108 80 216 212 214 216 158 160 161 162 162 163 163 164 165 164 164 162 162 161 161 161 160 159 161 160 160 158 157 156 154 154 152 153 153 149 210 216 214 211 215 213 214 214 217 213 215 124 33 26 37 59 43 119 156 153 160 153 153 153 154 154 155 154 
155 154 147 149 150 151 149 150 152 152 153 155 155 156 157 156 155 156 155 156 155 155 155 154 152 152 152 152 151 151 149 150 149 148 75 74 67 57 80 79 82 91 101 103 105 91 51 93 85 69 0 135 17 21 39 22 24 29 121 210 208 211 153 116 1 217 212 214 218 157 161 161 162 164 163 164 164 162 164 164 162 162 163 162 162 160 161 159 159 158 158 157 156 154 153 154 152 153 152 210 216 212 214 214 214 214 215 214 214 213 195 29 38 50 33 50 132 157 153 155 154 154 153 155 154 156 154 155 
155 155 149 151 152 150 149 153 152 151 153 153 155 154 156 155 155 156 156 155 154 154 152 153 152 152 150 151 151 150 149 149 148 77 73 71 62 83 78 81 90 98 101 108 91 39 94 105 46 1 36 11 13 32 6 43 29 1 216 211 208 211 116 57 207 211 214 215 178 162 163 163 163 163 163 163 163 162 164 162 162 162 162 161 160 161 160 160 158 158 158 156 155 156 154 154 153 152 151 218 215 212 213 215 214 214 215 214 214 219 0 32 40 27 41 127 158 154 154 156 155 153 156 154 156 154 155 155 
156 148 150 152 151 151 152 153 153 155 154 154 154 154 154 156 155 156 155 154 153 153 152 151 151 150 149 150 149 149 148 147 77 76 64 66 76 79 81 91 98 100 111 91 33 97 101 64 15 0 5 25 8 6 44 36 31 163 210 211 209 166 111 174 208 213 212 202 162 161 163 163 163 163 161 162 165 164 164 162 162 163 162 162 162 161 159 159 159 157 156 155 155 155 153 153 153 151 149 214 213 213 214 214 213 215 215 215 218 0 29 27 54 53 106 159 153 154 154 154 154 156 155 155 155 156 155 155 
156 148 150 148 152 152 153 153 152 153 155 155 154 154 155 156 155 155 153 153 153 153 151 151 151 150 150 149 149 147 147 78 75 65 69 72 44 82 91 100 101 109 91 42 92 104 73 26 53 19 28 11 25 31 45 25 0 212 212 209 214 118 114 211 213 213 218 157 161 161 163 162 164 164 163 164 165 164 162 162 163 161 162 160 160 159 159 159 157 157 156 155 154 154 153 153 152 150 149 214 213 212 215 214 214 216 216 213 138 54 35 53 52 82 156 154 155 156 155 154 154 156 155 156 156 155 155 153 
149 149 149 151 152 152 152 153 152 153 154 156 155 154 155 155 155 154 153 152 152 152 151 150 148 150 148 148 147 147 76 70 70 73 76 42 82 93 100 102 105 92 37 87 110 84 15 42 8 37 25 29 7 57 31 40 194 213 210 209 177 68 215 210 213 217 158 162 163 164 163 164 163 165 165 162 163 162 162 163 162 161 162 162 159 160 159 157 157 157 155 154 154 153 153 152 150 148 144 212 214 213 216 217 216 214 213 199 41 43 32 54 21 157 153 156 155 155 155 155 157 155 157 156 156 156 155 155 
149 151 151 154 155 152 151 152 153 152 153 154 154 155 155 153 154 153 152 153 152 151 150 150 149 148 148 148 146 78 72 67 67 75 39 48 96 97 100 103 95 31 88 110 83 94 8 60 36 18 9 6 37 41 11 22 208 214 209 215 90 213 210 211 212 180 162 162 164 163 164 164 162 165 164 162 162 162 164 161 162 161 162 160 160 159 156 157 157 155 154 154 154 153 152 150 147 144 145 211 213 214 215 215 213 214 221 0 46 22 39 44 153 155 153 155 155 153 155 157 156 156 157 156 156 155 154 155 
152 151 157 160 151 152 152 153 153 154 153 154 154 155 153 154 152 152 153 151 151 150 150 148 148 147 147 147 81 73 69 73 81 38 47 96 101 96 100 96 30 83 107 66 170 35 48 23 19 17 46 23 36 26 21 209 209 211 209 188 191 205 210 214 205 162 160 163 163 164 164 164 163 162 164 162 162 163 161 161 162 162 161 160 159 157 156 157 155 153 153 155 151 151 149 147 145 145 143 214 213 217 216 212 212 219 31 35 35 23 55 125 156 156 155 155 155 155 155 156 156 157 157 156 155 155 155 148 
152 158 163 154 153 152 154 153 154 154 153 154 154 154 154 152 153 153 149 149 150 149 148 148 147 146 146 84 75 78 71 108 38 49 78 99 97 98 88 49 88 104 64 154 86 7 53 29 19 40 24 33 40 33 102 208 213 209 214 156 210 211 211 218 158 164 162 163 164 164 164 164 164 164 162 162 163 162 162 161 162 163 159 159 157 158 157 156 154 154 153 152 151 148 148 145 146 142 142 212 215 216 216 213 212 147 49 39 17 40 88 156 155 156 155 155 160 157 154 157 157 157 156 156 155 155 155 150 
157 165 159 152 152 152 153 153 154 154 154 153 153 153 153 152 152 151 150 150 149 148 147 147 146 145 78 83 75 73 61 36 52 76 97 98 98 87 44 100 105 73 189 78 48 32 22 13 0 40 43 17 52 1 215 210 209 210 196 214 209 212 215 160 161 162 163 163 165 164 164 165 165 162 162 163 162 162 163 163 164 160 159 159 158 157 156 154 154 153 152 150 150 148 146 145 143 142 85 214 216 215 215 214 206 37 41 24 57 43 160 156 156 155 155 155 155 157 158 156 157 157 156 156 155 156 150 153 
166 166 152 152 152 151 153 152 154 154 153 152 153 153 152 152 152 150 150 149 148 147 146 145 145 80 78 76 68 58 41 58 79 81 96 99 90 50 94 105 68 145 108 53 14 33 13 16 55 21 37 68 63 151 207 212 209 212 213 208 210 211 184 162 162 163 164 164 163 164 163 163 163 162 163 163 162 161 162 164 160 159 157 158 155 156 155 154 152 151 151 148 150 147 144 143 142 83 80 217 216 214 213 223 0 39 53 47 46 158 156 155 156 155 154 158 156 158 157 157 157 155 156 158 156 156 153 159 
169 153 150 150 150 153 152 153 154 154 152 153 153 152 152 151 150 150 149 148 147 145 146 145 81 79 76 77 48 17 61 80 81 91 96 88 57 94 104 65 104 168 92 43 33 19 18 45 24 49 66 66 1 215 208 214 210 210 211 209 211 207 162 163 163 164 164 164 164 164 163 164 162 163 162 162 163 162 165 164 159 158 157 156 156 155 155 153 152 152 150 148 146 144 144 142 85 80 83 217 218 215 215 64 53 48 52 62 136 154 156 156 155 156 159 159 156 157 157 157 157 156 155 154 154 151 158 167 
155 151 152 152 153 152 153 153 154 152 153 152 151 150 151 150 149 148 147 146 146 145 145 84 79 82 72 42 27 65 85 82 92 97 87 49 89 100 80 155 167 87 33 22 11 12 26 44 3 65 64 43 188 208 212 211 212 211 211 209 217 158 163 163 164 164 164 163 163 164 164 162 163 162 162 162 162 164 165 160 159 158 156 157 155 154 153 152 151 149 150 147 145 144 143 84 82 82 83 214 216 211 162 62 50 46 53 74 155 157 157 155 155 155 160 159 158 158 157 157 156 157 157 155 132 159 166 169 
151 152 151 152 151 151 152 154 152 152 151 151 150 150 151 148 148 147 147 146 144 144 78 78 83 72 40 30 73 87 84 93 97 87 61 65 102 88 161 92 71 35 26 25 14 9 65 30 52 67 32 13 210 208 212 209 208 212 212 209 163 162 162 163 164 164 163 163 164 164 164 163 163 163 161 163 162 163 159 158 159 157 156 156 154 153 153 152 150 148 147 145 144 143 80 82 81 85 84 217 217 212 29 53 34 57 49 160 158 156 156 156 157 158 155 158 158 157 157 157 157 158 156 153 161 165 171 158 
150 151 150 151 150 152 152 151 151 152 151 150 149 150 149 148 147 146 146 145 145 76 74 80 66 25 36 75 86 84 95 95 86 56 76 101 92 102 137 91 44 23 24 11 13 27 56 42 55 41 27 206 209 209 211 211 211 211 211 186 162 163 163 164 164 164 164 163 162 164 163 163 162 162 163 162 161 160 159 158 156 157 155 155 154 152 151 150 149 146 146 144 143 83 82 83 86 79 95 217 222 0 47 44 42 59 150 156 157 156 157 157 157 158 158 159 157 158 157 157 155 154 158 60 167 173 171 151 
150 151 150 150 151 152 152 152 150 150 150 149 149 148 148 147 146 145 145 145 77 79 82 64 32 44 79 87 83 91 97 89 40 106 69 92 73 200 96 58 14 24 18 17 12 40 44 54 46 29 84 208 208 211 210 212 213 211 208 161 163 161 165 164 164 164 162 162 163 163 163 163 162 161 163 162 160 160 157 156 155 156 155 153 152 151 151 149 147 145 145 143 84 82 85 87 85 87 93 215 83 47 40 43 52 88 155 157 156 156 157 158 157 160 157 157 158 157 157 154 155 158 119 171 173 180 150 148 
151 151 151 151 152 150 152 151 149 149 148 148 149 148 147 146 145 145 144 68 81 81 55 29 49 86 86 82 88 96 100 39 89 85 95 54 144 44 64 5 30 21 14 16 1 51 66 18 40 5 215 210 209 211 212 211 214 215 156 164 163 163 165 164 164 163 163 164 164 162 163 163 161 163 160 160 158 159 157 158 155 156 154 153 150 150 148 147 146 143 143 85 83 82 89 90 87 92 121 173 58 41 49 57 49 159 157 156 156 157 157 160 137 156 157 157 157 157 155 156 155 119 71 173 180 172 151 151 
151 151 150 150 152 150 151 149 148 148 149 148 148 147 146 145 145 144 63 86 85 48 31 66 90 86 83 93 96 104 49 97 94 76 54 58 59 74 0 25 10 13 10 21 28 54 36 49 38 140 208 210 210 214 213 211 214 166 162 161 163 163 164 164 163 162 164 163 163 163 162 162 161 160 160 160 157 156 157 157 155 154 153 150 150 148 147 145 145 144 84 84 80 87 86 87 91 113 147 9 47 47 56 51 154 156 157 157 157 157 159 147 158 158 156 159 157 156 157 156 140 101 174 181 180 152 151 151 
149 150 150 151 150 149 149 148 149 148 148 147 146 145 145 144 144 63 83 85 48 42 68 93 87 84 91 97 105 117 102 89 83 46 28 64 49 0 16 21 15 12 17 52 28 44 14 42 0 214 209 210 212 213 211 212 188 163 163 163 164 164 164 164 162 164 164 163 163 163 161 161 160 160 158 160 156 158 156 156 153 154 151 149 149 148 147 144 143 81 87 84 87 86 88 91 108 163 207 56 53 54 49 138 156 157 157 157 158 159 161 159 159 159 158 158 158 157 156 150 123 108 180 182 164 150 150 150 
149 150 149 150 150 149 148 148 147 147 148 146 145 145 144 143 73 80 70 35 50 75 91 89 83 89 95 104 115 93 93 95 42 43 24 56 0 19 24 10 19 32 64 50 30 6 44 57 176 210 210 210 213 211 214 210 162 162 162 162 164 164 164 163 164 164 163 163 163 161 161 161 160 159 157 158 156 156 154 155 154 151 149 149 147 146 145 143 81 87 84 87 88 84 86 107 146 207 218 47 52 46 117 159 157 156 158 158 159 158 161 157 159 158 158 158 157 157 157 113 128 178 185 168 148 149 150 149 
148 149 148 150 149 147 147 146 147 146 146 145 144 144 143 77 84 63 38 53 81 92 89 81 94 93 103 113 114 92 93 51 29 8 2 10 21 19 18 13 31 51 65 28 37 51 60 30 213 209 210 211 217 212 218 157 162 162 166 165 164 163 163 164 164 164 163 163 162 162 161 161 158 160 157 157 155 155 155 154 153 149 150 147 147 144 144 84 86 85 85 88 84 84 103 131 210 217 217 58 56 102 161 157 157 158 158 160 159 160 159 160 160 158 158 156 156 156 140 152 107 182 160 152 150 150 148 149 
150 149 150 147 147 146 146 147 146 146 145 144 144 143 75 78 60 30 68 81 91 94 81 89 95 103 110 114 85 91 57 19 49 12 7 22 18 16 14 21 46 58 45 34 65 53 56 202 211 210 210 213 215 213 168 162 163 165 170 162 164 164 164 163 163 163 163 163 162 161 159 159 160 157 156 155 154 155 154 152 150 149 147 146 145 144 83 93 84 83 86 86 85 105 154 182 225 215 216 65 93 162 157 157 159 158 158 159 160 158 160 160 157 158 157 156 157 158 157 122 181 170 153 151 150 149 149 148 
148 148 148 146 145 147 146 146 146 144 144 143 143 80 80 52 37 66 85 86 99 80 90 99 100 111 113 127 90 67 24 24 14 21 24 17 13 20 18 43 65 43 16 58 65 68 72 208 211 210 211 215 213 192 163 164 168 170 164 163 164 164 163 164 163 163 163 162 161 160 158 159 156 158 156 155 155 153 153 150 149 148 146 146 145 85 88 85 83 88 84 85 106 145 143 202 221 212 214 73 160 157 157 159 158 158 160 160 159 161 160 158 158 158 157 158 155 155 144 105 177 149 150 149 148 148 149 149 
147 146 146 145 146 145 146 145 144 144 143 143 78 76 33 36 71 84 92 96 90 88 97 104 111 121 126 88 71 15 17 20 30 26 13 20 20 18 21 51 39 18 29 58 63 53 213 210 211 211 212 215 212 164 163 166 172 166 162 164 164 163 164 163 163 163 162 160 161 160 159 157 156 158 155 155 154 153 151 149 148 147 145 145 87 86 83 84 88 81 89 102 135 149 142 193 219 211 214 157 157 158 158 159 159 160 159 160 160 160 159 160 158 157 157 157 156 159 111 174 150 148 149 147 148 148 149 149 
146 146 145 145 145 145 144 144 143 143 142 78 68 30 46 70 86 95 144 86 92 94 106 113 120 123 37 72 32 31 12 15 20 19 22 22 21 20 37 34 23 13 46 55 65 129 208 213 210 211 213 218 166 163 162 172 167 162 164 164 163 164 163 163 163 162 162 161 160 160 159 157 157 157 155 154 153 151 149 148 147 146 145 88 85 79 84 82 80 91 104 144 146 134 133 195 220 211 213 157 158 158 159 160 159 159 160 161 160 159 159 158 158 157 157 156 159 148 119 158 149 149 146 148 148 147 148 147 
146 144 145 145 144 144 143 143 144 142 83 62 17 53 76 86 96 117 77 89 97 106 113 130 128 35 78 25 33 19 20 26 21 24 22 37 19 29 29 16 35 39 35 69 51 217 211 211 211 214 213 179 161 164 170 167 165 165 164 163 163 163 163 162 162 162 160 161 159 158 157 157 156 155 154 152 152 151 149 148 146 145 86 89 80 85 85 83 93 105 137 148 137 138 108 193 219 212 214 158 159 159 160 159 159 160 160 161 160 160 158 158 157 158 158 159 160 113 158 151 148 148 148 147 147 147 147 147 
144 145 144 144 144 143 143 142 143 80 50 20 57 79 89 93 128 133 87 100 106 115 136 129 65 6 36 28 29 14 33 21 33 33 33 25 25 30 17 47 48 44 56 76 166 209 210 212 212 213 201 166 164 170 169 162 164 162 163 163 163 163 163 162 162 161 160 160 158 158 156 156 155 153 153 151 150 148 147 146 146 86 87 81 88 83 85 92 102 139 146 140 137 118 88 194 218 212 217 159 159 160 159 160 159 161 160 160 160 159 158 158 158 160 158 158 145 148 146 149 149 146 148 145 148 146 146 144 
144 144 144 143 143 143 142 142 77 41 30 57 81 90 90 133 180 87 101 105 113 139 130 66 8 63 10 19 23 26 28 34 29 22 42 28 43 30 40 65 54 44 60 18 213 210 212 213 215 214 168 162 165 166 164 164 162 163 163 163 163 163 162 162 161 160 159 159 159 157 156 155 154 152 151 149 149 149 146 145 82 83 79 91 84 88 90 105 141 147 140 141 136 76 53 193 218 212 215 160 160 160 160 160 162 161 161 161 159 159 159 158 160 163 158 163 141 149 146 147 146 147 146 146 147 145 144 145 
144 143 143 143 142 142 141 71 38 18 68 81 90 91 110 200 79 92 108 107 140 130 46 51 23 49 21 22 14 31 37 29 25 37 43 46 34 41 60 56 60 42 72 194 211 211 213 212 218 168 163 167 168 163 163 162 163 163 163 163 163 162 162 160 160 160 157 159 155 157 155 154 153 152 151 150 148 147 145 81 80 78 92 92 91 94 104 136 149 142 139 136 88 53 48 196 219 213 215 160 160 161 162 161 162 161 160 159 159 158 158 161 166 157 164 119 153 148 146 145 147 145 147 145 147 144 144 144 
143 142 142 142 141 141 67 42 36 69 81 90 90 113 192 108 89 108 115 134 132 16 78 19 59 34 12 18 30 21 41 19 32 38 56 40 33 50 56 48 57 52 66 210 212 211 214 212 184 166 168 167 163 163 164 163 163 163 163 163 162 162 161 159 159 159 157 157 157 155 154 154 153 150 149 148 148 145 83 78 76 94 87 92 104 101 122 152 141 137 139 126 77 13 50 197 218 212 215 162 163 166 161 162 161 161 159 159 158 158 160 167 160 160 136 166 147 146 147 146 146 145 146 146 144 144 143 143 
142 142 141 141 141 59 22 45 71 87 91 92 127 192 167 101 109 120 136 128 85 47 45 49 29 23 20 20 20 39 20 21 40 52 51 34 37 54 49 57 63 60 210 212 211 212 214 202 166 169 165 163 163 163 163 162 163 163 163 163 162 161 160 158 158 158 156 157 155 154 154 152 150 149 148 146 145 80 75 76 93 87 91 106 100 108 151 141 139 138 137 28 39 1 62 199 219 212 217 163 168 161 161 162 161 160 159 158 158 160 166 169 159 165 169 170 147 147 146 146 146 145 145 144 143 143 143 143 
141 141 141 140 55 2 54 80 86 91 91 120 195 206 92 109 120 143 128 115 2 71 56 21 25 21 10 34 24 25 11 34 42 42 35 33 31 59 54 71 69 120 208 212 211 213 215 164 171 164 163 163 164 162 162 163 163 163 163 162 162 161 159 158 157 156 157 156 154 154 152 152 149 148 147 145 79 75 75 94 92 92 101 98 113 151 141 139 137 134 98 31 31 0 68 203 220 215 217 168 163 162 162 161 160 160 158 159 159 165 168 162 165 151 171 147 147 145 146 145 145 143 144 142 143 143 143 142 
141 140 140 39 9 54 83 89 92 90 129 199 216 84 107 119 138 126 34 96 66 63 51 7 19 26 36 43 28 25 19 32 26 42 34 29 67 68 63 69 81 214 212 213 211 217 163 167 165 163 163 163 163 162 163 163 163 162 162 162 161 161 158 160 156 157 156 155 154 152 152 150 149 147 146 79 78 74 81 94 86 96 97 112 149 139 142 137 137 133 0 6 32 0 71 203 216 213 216 165 163 162 161 162 159 158 159 159 165 169 167 163 166 167 159 146 145 144 144 143 144 143 142 142 142 143 142 141 
140 140 36 17 63 88 88 89 86 127 196 208 118 110 123 127 126 88 127 36 67 60 23 18 32 19 46 32 31 37 36 44 51 44 41 47 64 57 74 100 180 209 213 209 216 177 167 170 162 163 163 164 163 164 163 163 162 162 162 161 161 158 158 158 156 156 155 154 153 151 151 149 147 146 80 77 75 79 90 85 96 103 113 147 141 141 136 134 133 81 32 18 34 0 106 197 213 215 219 163 163 162 162 159 159 158 159 163 169 169 163 172 172 154 145 144 145 143 143 142 143 142 142 142 141 142 141 141 
140 27 30 68 87 90 88 88 127 195 208 176 111 122 129 99 86 0 99 67 71 44 15 42 28 43 39 28 43 43 36 52 56 46 34 50 65 76 101 143 213 210 212 210 203 168 171 163 162 162 163 164 164 163 163 162 162 161 161 160 159 158 157 157 156 156 155 153 151 150 149 147 146 79 78 80 79 83 83 97 104 127 148 138 141 138 133 134 138 1 34 14 39 22 71 214 211 222 2 162 162 159 161 160 158 161 161 170 167 165 168 172 154 152 145 143 144 143 143 142 141 142 142 143 141 140 140 140 
15 41 76 86 87 90 88 131 191 209 208 103 118 142 84 93 87 116 53 73 62 24 33 32 33 45 31 34 43 30 59 68 49 45 52 69 62 87 154 199 210 213 213 216 167 164 163 164 163 162 163 163 162 163 162 162 162 161 161 158 159 158 157 157 156 154 152 152 151 149 147 146 77 79 78 82 82 85 96 97 154 146 137 137 139 135 133 130 78 42 41 20 68 85 140 211 213 97 48 162 160 161 160 159 158 159 167 168 165 168 167 153 153 144 144 142 143 142 143 141 141 141 141 142 141 139 140 139 
47 75 88 91 88 93 129 188 210 212 95 126 143 92 83 79 11 82 58 64 43 32 46 35 47 33 28 31 24 39 74 66 63 53 55 69 68 157 154 211 210 213 214 169 170 162 166 163 163 163 162 162 162 162 162 162 161 161 159 159 157 158 156 154 155 153 152 150 150 148 146 78 78 79 83 82 86 97 94 140 150 136 138 136 135 132 131 123 5 46 30 52 69 0 210 210 183 40 49 162 160 161 159 159 158 161 168 165 167 165 160 154 153 143 143 141 142 142 141 140 141 140 139 140 140 139 139 32 
80 89 89 90 88 132 190 212 208 133 134 132 101 53 95 48 140 34 52 58 36 34 40 30 39 31 22 24 28 57 69 67 64 56 61 82 149 158 207 212 214 214 187 176 162 166 164 163 163 163 163 163 162 162 162 161 161 159 159 158 157 156 154 155 153 152 150 150 148 146 78 78 81 85 85 88 96 95 126 152 137 137 137 135 131 129 132 76 39 49 35 47 74 210 211 214 2 48 61 162 162 159 159 160 159 165 163 167 169 157 154 153 144 141 142 141 141 140 141 141 140 140 138 139 139 139 35 57 
