P2
128 82
255
111 93 97 102 95 91 66 199 246 251 232 216 226 180 188 179 143 207 193 146 120 141 90 45 39 63 32 41 43 42 51 51 71 72 94 170 193 189 204 205 192 211 189 182 182 183 187 189 190 190 191 192 193 205 195 192 174 162 78 160 181 173 188 198 190 192 198 181 92 104 71 78 97 50 21 20 23 21 9 16 8 26 1 12 119 115 86 99 103 103 112 107 97 120 99 119 108 108 106 105 109 105 70 94 101 102 97 104 97 99 93 100 89 104 76 114 95 88 100 48 105 117 119 82 111 120 107 117 
98 90 103 97 86 156 244 250 230 218 226 179 187 182 139 203 199 145 120 137 95 95 52 81 80 44 44 42 40 44 53 74 70 92 174 192 197 193 206 198 212 188 180 181 184 188 189 189 189 191 191 186 153 102 60 92 77 155 180 180 190 193 191 193 199 171 107 78 75 69 77 67 99 22 28 19 6 3 6 13 3 47 128 124 103 70 92 101 101 114 110 102 121 105 118 106 104 114 104 88 68 107 104 114 95 95 104 98 99 93 101 91 105 76 113 93 91 62 92 120 134 107 91 129 110 106 122 111 
96 93 94 98 240 245 231 227 222 178 186 183 139 199 204 150 123 129 89 122 110 55 110 32 39 47 44 44 45 52 73 69 93 171 199 189 193 208 203 207 185 178 180 186 189 189 189 193 183 195 187 120 143 138 147 151 180 182 191 196 187 188 186 180 94 77 91 48 101 57 99 117 37 24 0 5 13 15 1 68 139 120 96 105 56 93 96 109 112 106 107 126 104 113 108 109 111 80 80 113 120 109 99 96 98 101 99 99 93 102 93 106 76 107 87 77 79 134 133 119 93 133 115 110 109 114 111 98 
83 100 194 217 243 229 223 179 185 182 140 198 207 155 123 132 82 118 149 139 86 16 47 48 52 47 45 45 50 71 69 93 176 194 186 192 209 198 195 173 177 181 187 189 188 188 191 191 190 195 204 193 201 148 177 179 181 200 187 196 165 172 114 95 69 18 78 64 80 148 111 33 28 1 17 8 5 79 144 112 82 94 103 56 93 95 111 118 113 113 119 102 116 111 101 88 95 113 119 113 107 96 102 100 101 99 98 93 104 95 106 70 102 76 69 116 123 116 97 130 118 121 109 103 105 110 99 85 
184 184 212 211 225 178 181 186 142 198 208 156 124 126 85 121 141 162 147 32 47 35 39 53 46 47 44 49 71 69 92 172 197 184 194 211 186 190 184 178 182 187 188 185 192 192 187 183 181 145 194 147 175 187 191 195 189 203 186 152 127 82 82 54 1 54 80 135 144 111 30 26 11 1 1 101 138 104 92 78 92 99 69 88 90 105 121 118 106 117 108 112 95 75 102 104 120 104 120 101 100 101 94 101 98 98 95 107 96 113 81 93 46 70 114 120 100 121 142 127 115 112 96 104 99 84 96 142 
181 198 192 177 180 183 144 195 208 155 124 127 74 116 135 160 139 62 62 29 50 52 48 47 49 42 52 73 67 93 183 194 195 200 208 181 214 180 179 183 187 188 190 188 188 188 191 113 164 145 175 180 187 200 194 190 206 175 125 133 49 61 50 4 95 118 129 138 100 15 11 1 4 108 139 103 93 99 82 89 103 77 80 95 104 121 109 109 117 99 90 79 103 125 110 107 118 100 110 98 101 99 102 97 100 98 108 98 118 90 65 1 107 165 103 113 139 110 112 116 103 97 91 95 123 171 194 191 
199 177 179 181 192 191 204 160 123 131 70 125 153 132 147 116 79 53 37 47 52 46 49 49 45 57 75 68 91 178 203 199 199 192 197 205 189 180 183 187 187 188 186 186 187 139 154 143 173 187 188 195 191 188 183 182 141 157 106 63 66 30 93 148 118 117 128 61 20 3 28 127 127 96 103 97 93 82 95 101 79 78 94 105 112 113 104 98 79 99 111 118 125 103 110 105 104 107 100 96 93 101 100 103 101 109 103 100 60 3 75 187 129 108 125 124 115 110 105 96 98 124 159 184 194 185 186 195 
179 182 208 207 201 165 122 129 76 117 157 114 134 144 95 138 34 40 60 49 47 51 49 52 62 76 66 95 179 203 194 185 180 216 189 200 181 180 182 192 187 179 152 156 162 142 169 190 189 205 195 198 176 155 121 144 155 66 24 33 86 147 121 89 67 54 1 0 36 137 126 78 107 96 98 85 87 99 103 68 84 87 104 121 103 82 85 97 123 109 112 116 99 105 107 103 102 90 99 89 104 106 107 104 106 70 82 61 89 136 130 99 116 129 118 120 104 96 119 161 185 194 193 177 179 192 198 177 
212 225 191 168 127 123 79 128 142 125 44 129 94 108 94 43 47 58 50 50 52 53 59 62 74 70 97 179 200 192 165 199 202 161 176 176 180 188 188 178 113 122 136 143 166 188 187 197 202 198 198 169 89 94 115 136 80 0 25 80 63 29 3 3 1 3 62 129 108 71 101 95 101 98 98 83 107 119 66 79 87 103 99 76 80 115 116 106 102 110 115 107 100 105 90 98 98 96 95 109 109 106 85 72 81 95 101 107 107 87 118 125 115 99 91 104 149 187 196 194 187 183 186 181 181 178 180 183 
200 180 133 121 73 122 150 143 70 87 83 71 102 57 58 30 66 44 51 53 57 60 62 76 72 94 184 206 182 173 208 164 172 163 184 184 180 183 117 83 157 149 165 195 186 194 194 191 185 181 129 21 102 100 119 84 5 1 7 1 21 3 15 7 89 142 96 76 98 97 99 104 106 97 87 107 113 56 80 76 78 60 81 96 131 97 107 105 119 113 101 92 90 98 103 98 97 94 114 94 74 67 102 118 115 115 124 96 121 129 104 89 131 168 191 195 195 189 183 188 188 181 184 177 180 185 213 220 
129 125 71 119 155 125 135 72 78 77 77 74 85 57 34 56 55 54 56 59 60 63 78 69 95 189 197 182 219 176 185 166 204 185 174 183 158 82 161 150 157 186 185 200 193 198 171 166 123 84 63 54 72 99 48 2 15 35 79 55 7 0 93 142 86 74 95 106 101 101 101 108 94 88 99 114 52 70 62 66 71 101 98 119 103 114 108 122 117 87 87 103 92 106 96 100 99 82 64 81 110 133 121 117 116 120 113 130 100 113 175 203 206 193 192 188 185 188 189 180 183 177 180 184 212 215 194 177 
76 129 155 105 92 77 100 104 85 84 94 127 87 25 50 48 58 56 62 61 64 76 71 97 166 195 220 180 178 171 184 242 176 182 187 121 145 154 156 188 190 192 200 200 193 161 118 111 78 54 64 62 91 86 97 88 113 90 1 0 101 145 87 90 84 107 104 101 89 104 105 84 81 108 110 44 74 79 93 90 87 97 118 113 103 114 116 112 92 91 93 97 104 96 87 62 62 99 120 129 118 125 114 128 105 119 112 152 200 225 203 187 189 189 191 188 186 183 184 178 179 187 186 220 194 182 120 123 
140 104 42 43 82 111 118 86 92 149 184 82 22 44 55 55 60 61 60 63 78 74 94 174 218 151 173 176 168 245 246 185 182 152 129 158 156 184 189 200 194 195 199 175 125 44 102 81 56 83 100 102 117 130 113 93 3 14 125 130 86 96 95 96 93 100 88 94 101 109 91 89 103 88 63 104 106 95 86 95 98 128 104 110 104 112 99 85 86 97 99 91 66 66 85 118 124 126 112 128 127 117 103 107 150 178 200 213 194 188 186 189 190 189 183 187 188 178 176 191 155 194 205 188 131 115 75 93 
46 38 71 76 90 76 87 147 199 177 83 31 56 58 59 59 59 60 64 81 72 96 179 174 168 180 172 242 236 238 166 144 123 161 155 185 188 189 192 199 184 180 118 94 93 108 104 81 107 65 95 144 123 93 1 39 118 107 87 104 94 95 75 84 90 92 93 100 115 92 74 88 83 105 106 94 95 91 110 104 130 111 106 99 104 107 87 91 95 69 61 75 103 122 130 122 120 123 127 108 115 142 190 194 192 188 184 181 190 183 185 187 184 188 188 177 178 185 151 162 202 186 140 113 81 73 77 79 
63 72 72 80 81 141 189 180 183 86 45 57 50 59 58 61 61 67 81 75 96 182 201 198 161 221 245 237 238 124 125 165 153 184 190 189 199 195 195 170 116 85 74 91 136 87 107 83 95 74 140 88 3 48 111 109 93 97 99 88 91 66 85 87 92 97 107 110 68 72 94 99 104 103 100 99 101 115 107 132 109 100 99 108 89 92 75 63 61 93 117 113 114 120 128 122 117 112 135 169 199 210 194 176 180 186 185 187 182 184 189 188 179 175 180 190 153 165 197 188 136 110 83 68 64 49 36 65 
80 85 97 163 184 166 195 165 58 54 48 65 58 60 60 62 68 76 75 97 201 211 164 204 243 240 237 238 129 172 152 177 192 188 201 193 203 176 120 81 74 32 134 90 38 86 108 46 74 112 1 69 137 108 95 101 92 94 83 94 80 76 83 91 102 97 86 74 103 102 94 104 111 101 109 106 113 106 125 108 102 100 96 88 64 57 84 111 113 111 110 120 133 121 113 127 161 194 203 209 206 192 185 183 187 184 184 187 195 194 171 174 181 184 154 165 208 190 143 103 86 57 69 38 74 54 60 71 
98 168 200 173 184 174 85 46 56 57 57 61 58 59 64 66 76 76 97 188 177 208 251 236 240 237 238 179 156 173 189 188 198 200 188 187 110 139 50 58 121 84 29 48 81 97 49 99 2 85 135 84 80 95 95 92 93 83 95 72 69 83 90 89 78 91 106 110 99 95 111 109 107 117 102 110 103 119 113 96 95 64 53 62 103 123 112 117 119 123 122 121 125 150 184 201 203 204 217 218 204 188 183 183 182 182 192 203 181 175 184 182 163 150 204 188 153 100 90 55 67 54 43 59 61 66 88 69 
198 177 190 150 76 56 71 54 54 57 59 57 62 66 66 77 76 99 171 223 241 238 237 241 238 240 162 172 190 187 195 200 201 179 114 112 108 58 85 89 55 77 66 98 97 97 31 94 135 78 60 91 88 95 97 95 81 91 65 69 78 78 80 87 111 107 102 100 98 108 111 118 113 104 120 106 123 103 82 47 63 98 120 124 119 120 135 122 114 122 142 174 196 196 198 203 213 231 225 216 190 183 180 182 184 202 198 173 187 188 166 150 196 190 148 100 80 63 62 64 58 71 32 86 75 81 65 164 
193 145 53 50 110 57 54 56 60 57 60 61 67 68 78 77 103 203 250 236 239 238 242 240 242 168 191 188 197 198 202 197 133 69 132 107 52 69 25 118 40 61 85 122 56 119 142 84 58 81 86 86 97 97 92 76 87 67 62 71 79 95 101 106 107 108 99 97 109 123 114 113 111 122 108 107 71 46 94 104 110 121 120 114 127 111 118 156 185 192 194 192 193 205 215 218 221 225 217 193 184 182 187 192 212 170 188 186 163 149 199 189 159 96 68 64 61 65 67 82 50 75 65 90 70 123 210 181 
53 48 127 86 53 58 56 61 61 61 62 70 69 79 80 108 220 241 237 240 240 244 242 245 189 187 196 204 198 199 155 68 128 130 84 63 48 45 43 28 62 88 81 123 122 92 87 72 75 85 86 92 94 88 72 85 59 63 86 93 103 94 105 108 104 101 98 120 121 112 122 107 114 83 70 69 105 125 118 111 115 110 108 109 148 199 206 195 186 192 196 205 219 209 222 220 225 219 203 192 188 200 204 168 186 179 171 146 200 183 167 102 68 54 59 64 69 84 72 27 74 62 104 80 189 201 190 149 
136 94 73 54 54 55 61 62 62 64 71 69 79 84 112 217 241 237 242 242 247 245 246 186 194 205 203 194 162 114 63 105 113 83 68 49 7 4 28 40 89 126 108 74 91 86 65 77 87 81 89 93 87 75 77 65 93 100 92 96 94 104 101 109 104 108 122 117 122 121 106 80 70 93 114 119 136 121 125 112 107 134 191 221 211 193 193 192 203 204 211 215 224 221 222 224 224 215 199 203 216 168 187 178 181 177 192 181 166 103 72 46 55 59 72 80 87 57 49 64 97 84 115 194 204 135 25 43 
78 70 52 52 58 61 63 63 65 72 71 82 87 112 218 243 239 245 245 250 246 248 194 203 202 198 159 131 48 22 71 105 94 64 49 20 3 18 40 136 114 74 85 86 79 68 80 86 81 90 92 80 67 79 102 106 96 87 100 99 102 110 113 109 115 119 127 105 79 63 86 106 110 120 120 125 121 114 121 179 221 214 196 189 200 195 209 210 201 223 226 223 223 224 227 230 221 210 219 168 186 175 181 218 196 188 162 102 54 44 54 54 68 80 87 81 71 59 77 94 75 148 192 144 1 26 133 93 
75 51 59 67 65 63 64 66 72 73 84 83 115 219 245 242 248 248 251 250 247 206 199 194 167 120 105 3 19 79 116 131 68 47 16 1 10 95 104 91 85 79 80 80 67 80 91 86 91 84 73 73 106 110 99 97 92 96 101 107 106 113 118 113 124 96 63 74 103 121 110 117 120 118 116 129 157 217 223 200 190 189 202 207 202 219 206 222 228 227 223 222 223 230 229 225 220 167 185 186 189 228 200 193 170 102 55 50 58 53 55 75 85 88 86 81 80 83 78 142 163 131 2 23 117 86 82 73 
56 61 68 61 63 66 68 74 74 87 87 118 221 248 245 250 249 251 249 247 203 189 166 110 110 92 33 12 127 147 127 55 52 8 17 91 90 82 87 84 75 81 76 69 83 93 86 82 79 84 92 106 99 104 99 99 99 102 106 120 121 115 108 84 83 95 124 108 117 115 121 112 121 148 172 206 213 200 202 202 205 220 217 211 218 217 226 230 226 222 221 223 230 225 229 167 183 192 186 215 189 194 172 101 57 53 53 55 49 62 77 87 88 91 88 94 63 152 171 103 2 19 122 89 83 81 80 73 
62 66 62 64 68 71 76 82 89 90 118 224 250 247 251 250 250 250 250 195 162 106 112 107 88 40 47 139 144 133 73 30 38 95 92 83 93 94 81 76 75 73 71 78 85 83 84 95 91 91 95 105 105 103 99 99 106 113 113 116 98 85 89 117 132 108 122 108 116 119 142 170 191 199 199 208 209 218 215 222 229 221 217 215 223 233 230 224 220 220 225 228 225 167 181 192 176 194 209 197 171 105 51 53 58 51 53 53 62 79 89 91 91 100 58 122 182 91 1 11 126 101 82 83 86 77 75 54 
67 64 66 71 72 80 84 90 89 118 226 252 248 250 250 251 252 250 171 107 104 125 94 74 54 76 153 151 144 48 55 105 91 89 96 94 92 83 72 71 76 62 60 76 91 101 91 89 87 104 103 105 104 102 106 105 115 110 91 85 102 117 127 124 105 105 99 132 169 187 200 193 191 197 204 223 229 227 231 229 221 219 220 233 235 229 222 219 222 227 229 168 178 190 174 162 204 177 178 109 57 49 67 50 60 55 53 62 84 97 94 98 85 93 161 76 12 1 121 108 85 89 84 81 78 80 54 66 
67 69 72 72 82 85 90 91 119 227 253 248 249 250 254 253 249 123 92 119 97 89 99 62 85 138 143 113 60 106 94 90 92 91 95 94 82 70 74 70 56 73 89 105 95 87 94 94 95 103 109 107 107 102 110 93 84 107 108 121 118 131 120 110 115 141 188 196 198 192 188 196 199 218 235 236 229 229 226 222 221 231 236 235 226 222 221 223 228 168 177 185 182 141 192 185 173 108 56 47 53 52 54 63 56 50 67 87 98 96 98 105 132 68 1 2 110 113 79 88 91 78 85 85 76 61 69 68 
71 74 75 84 84 92 94 118 228 253 247 250 253 254 251 248 132 100 84 95 112 121 68 82 118 128 103 92 90 100 85 94 93 98 93 83 72 71 69 84 89 94 103 93 99 97 90 103 112 110 109 106 95 75 96 115 118 121 112 119 125 120 146 144 195 196 191 192 194 202 201 213 232 241 234 230 230 226 224 228 236 240 231 225 223 221 221 171 176 181 187 141 183 193 172 114 38 66 40 50 46 64 61 59 55 66 81 96 98 99 123 60 1 1 100 116 75 84 86 89 85 84 80 82 63 70 68 74 
77 79 84 86 97 97 117 226 253 248 252 254 252 249 248 107 90 71 145 121 142 56 94 126 122 98 74 101 91 86 93 96 94 95 82 68 75 97 106 86 98 103 106 98 98 100 109 109 107 106 83 81 110 116 119 120 106 108 114 130 132 143 186 193 187 190 198 209 210 215 226 241 237 232 232 230 227 231 243 242 236 228 224 222 218 173 175 183 186 145 180 200 170 113 49 95 85 47 54 58 61 65 53 52 62 80 101 91 100 77 4 2 95 118 78 85 88 83 92 85 82 88 77 62 70 69 69 74 
80 86 90 101 98 112 224 253 250 254 251 249 248 249 74 79 126 179 135 136 58 133 133 93 75 81 93 93 86 92 91 95 90 72 73 101 105 98 93 99 113 104 101 97 105 106 104 96 85 104 117 122 122 112 109 116 119 166 126 146 178 187 188 193 197 206 220 219 218 238 238 234 235 235 232 236 242 246 241 233 225 222 219 172 176 182 187 149 174 204 171 112 49 103 154 65 59 52 57 61 62 61 56 62 92 97 90 90 55 1 92 121 80 92 89 91 87 91 83 93 77 71 61 72 67 71 77 80 
89 94 103 95 111 222 254 251 252 249 248 252 251 89 79 181 182 160 136 80 123 89 77 76 79 96 94 88 94 91 88 75 75 95 94 97 96 94 102 116 107 99 105 99 97 84 99 124 117 117 113 111 103 124 137 170 177 154 163 196 194 197 197 198 214 213 205 230 233 234 235 236 235 236 240 243 242 238 229 222 219 173 172 184 187 154 171 199 175 114 47 95 166 95 49 49 49 54 62 66 58 60 68 95 95 98 91 56 85 128 79 95 88 88 98 95 91 95 80 72 70 60 74 77 73 78 82 82 
95 96 94 110 222 254 250 250 248 251 252 249 90 124 165 180 171 131 90 75 73 85 77 85 96 97 92 90 84 75 79 90 83 87 99 97 91 111 115 109 105 96 82 91 112 123 113 101 95 110 114 148 127 149 151 157 147 200 195 188 200 199 197 198 198 209 227 228 233 232 233 239 239 240 242 244 236 228 220 177 170 183 186 153 174 195 171 117 47 96 153 97 36 61 47 56 55 62 61 56 51 73 89 106 97 101 90 117 86 93 92 71 89 89 96 93 79 77 74 62 66 78 76 77 79 84 85 91 
96 94 110 222 254 248 250 247 251 250 247 133 133 128 173 170 129 77 66 80 91 85 85 100 95 89 78 75 82 87 83 80 95 102 96 102 107 118 105 88 84 99 125 113 107 102 99 117 135 172 157 116 119 148 142 195 195 188 205 207 190 191 197 193 203 216 215 227 225 233 242 241 241 247 242 236 226 177 170 178 175 191 174 199 168 108 48 86 158 92 3 80 62 59 50 56 60 59 56 54 70 91 95 99 98 99 88 92 95 75 52 91 89 99 94 75 85 63 69 64 78 76 80 80 87 86 91 98 
92 108 220 254 247 247 247 249 247 247 154 103 123 180 172 115 77 66 83 93 86 92 95 86 79 77 87 87 85 87 88 96 99 104 97 115 104 77 96 119 118 116 102 111 121 136 168 181 180 161 143 133 143 193 197 194 197 199 192 190 197 193 187 189 206 198 218 216 239 245 245 246 247 238 236 179 167 183 180 204 207 194 172 101 46 92 160 92 11 73 88 61 53 48 60 59 61 57 59 65 87 102 95 101 84 87 88 89 44 58 96 92 96 82 84 70 67 89 67 78 77 80 83 89 86 96 99 95 
104 219 254 244 247 246 247 247 249 93 110 157 191 159 102 93 51 86 89 94 90 81 77 82 93 91 85 93 89 88 94 109 103 106 94 85 105 130 112 118 117 109 111 145 191 180 173 180 140 121 142 193 206 208 199 197 198 188 193 191 190 182 186 194 204 212 227 244 242 247 245 245 242 187 167 183 186 211 213 202 169 104 51 101 148 100 20 59 95 65 67 54 55 62 59 59 57 52 68 96 99 100 107 81 105 85 58 45 93 97 96 76 81 64 71 97 92 71 79 77 80 86 89 93 97 98 94 90 
219 252 244 248 247 247 250 249 110 158 169 187 141 120 104 60 82 96 89 76 74 80 96 95 86 93 90 89 91 103 110 98 78 102 117 120 111 110 113 123 72 119 184 188 162 170 173 122 137 184 221 220 211 200 199 196 190 188 184 198 183 188 194 208 222 238 238 232 244 244 250 193 173 174 187 184 218 192 172 109 64 81 152 85 45 63 66 95 85 71 55 57 62 59 57 56 56 61 93 101 109 105 84 88 53 45 80 113 92 87 71 78 60 89 98 95 75 81 78 82 86 87 95 97 97 93 88 102 
250 245 250 248 249 250 246 165 142 149 185 137 142 91 64 89 89 75 76 79 91 94 99 92 89 90 95 94 103 94 86 106 119 113 110 107 99 171 72 81 167 185 180 163 169 165 132 172 230 223 220 209 200 194 195 193 177 197 191 184 192 210 224 233 239 221 220 246 251 191 169 181 195 154 203 185 170 94 43 91 158 80 64 81 75 92 89 73 60 52 53 61 54 57 56 57 61 94 101 109 98 80 57 48 62 96 105 84 83 80 53 85 91 97 97 78 82 80 85 89 89 94 94 97 92 86 101 216 
248 250 248 250 248 249 136 101 152 179 130 141 89 69 82 70 78 86 86 87 96 91 90 89 97 92 86 91 98 105 108 112 108 112 108 154 150 46 163 173 188 185 157 160 172 156 233 223 219 216 200 200 199 193 186 185 191 179 195 212 225 224 234 230 206 218 254 189 168 184 193 169 169 195 146 99 5 92 147 112 48 106 76 97 109 62 52 55 49 54 60 54 60 60 63 68 98 98 106 98 79 41 74 62 86 89 85 84 69 85 92 90 93 98 78 81 82 88 91 88 93 97 98 91 85 101 212 250 
250 248 248 247 248 105 115 157 152 149 137 78 66 64 75 90 89 72 92 97 99 90 90 86 78 93 109 101 95 111 112 113 140 103 192 124 144 171 172 185 177 171 169 141 207 225 217 218 206 199 200 200 188 188 190 177 194 215 226 224 223 229 226 202 225 189 170 177 178 169 160 193 130 102 1 74 140 110 61 87 77 80 80 66 74 48 61 51 62 59 56 54 61 68 82 99 104 104 109 75 77 90 53 76 96 85 65 79 96 96 85 92 98 74 81 82 89 89 85 96 101 99 90 91 100 211 253 249 
247 246 247 251 135 129 148 154 147 122 80 49 70 86 88 81 83 99 94 97 85 79 78 97 108 96 97 102 121 126 148 95 153 163 162 170 166 164 179 179 150 156 144 224 219 220 218 194 200 197 190 198 196 181 190 215 230 224 222 222 229 228 204 189 173 174 195 174 155 187 128 86 12 93 121 77 74 82 74 65 50 68 65 54 62 60 59 65 57 62 63 70 79 91 103 105 102 103 87 109 92 54 90 109 62 75 94 101 95 84 92 93 69 84 84 80 85 87 102 104 99 90 86 99 213 254 247 248 
247 249 251 131 140 135 154 138 127 82 63 80 78 90 94 86 89 95 87 75 84 94 104 86 104 100 120 154 149 128 134 77 158 171 168 164 165 179 161 143 136 195 214 223 229 211 204 200 186 191 211 190 192 215 233 227 222 222 219 230 228 187 178 175 186 178 153 200 133 108 2 84 132 88 3 90 102 56 57 64 65 78 53 56 50 63 60 60 70 73 88 92 91 105 95 95 101 91 117 80 77 108 95 62 97 97 112 96 87 90 87 70 75 84 80 87 96 106 104 98 86 82 94 215 253 245 247 245 
251 247 126 113 137 155 136 147 89 70 71 77 102 83 87 90 79 81 92 94 98 93 99 124 131 155 169 167 150 30 104 165 178 162 171 169 184 143 133 161 219 227 236 232 208 209 189 191 198 207 190 211 236 231 224 222 219 223 227 182 179 173 187 165 147 198 156 149 56 74 141 78 56 37 110 99 48 56 74 112 95 60 29 47 63 60 63 81 79 88 93 90 102 107 96 96 89 111 80 104 98 60 91 100 107 107 101 88 86 77 60 73 85 93 96 101 107 100 98 82 85 100 214 252 245 246 247 249 
238 117 113 154 139 153 139 91 65 79 86 87 95 82 74 90 103 103 93 104 109 141 169 147 158 142 188 71 89 167 163 178 171 169 171 185 136 156 206 223 236 234 215 203 197 190 195 197 212 208 235 236 229 224 219 223 225 178 177 175 188 182 172 183 140 154 156 103 134 67 62 78 80 94 90 74 66 123 151 74 3 15 51 55 63 74 78 81 83 90 93 102 107 96 94 88 98 98 103 65 90 99 105 109 101 103 86 81 64 57 74 88 90 100 101 96 102 97 89 93 96 215 253 247 248 249 251 248 
107 134 134 141 138 133 99 66 83 89 100 70 86 103 103 108 101 101 132 160 171 162 147 117 134 176 108 166 164 163 166 167 181 162 168 173 211 226 237 237 225 199 193 186 190 189 207 213 235 240 234 228 221 222 223 177 174 177 186 185 220 194 141 117 159 152 121 73 26 135 76 56 77 94 70 79 184 88 4 3 21 53 59 70 74 79 85 90 93 93 99 106 98 101 85 95 102 69 91 105 100 114 104 114 101 66 69 51 67 72 90 89 101 99 97 106 104 93 91 91 218 247 249 249 251 250 242 233 
121 130 130 140 152 119 67 100 96 67 95 118 104 94 92 106 149 173 157 155 158 153 105 148 148 148 167 140 162 175 152 135 155 169 217 234 239 240 233 213 188 192 181 181 191 213 222 243 240 233 224 222 220 177 180 176 188 187 218 202 143 101 79 158 129 59 32 127 154 68 65 80 98 42 163 104 1 8 1 20 45 58 68 76 84 88 85 94 91 100 102 102 105 85 101 77 83 113 104 110 112 113 114 89 64 48 67 71 79 98 105 109 99 101 110 100 93 84 115 247 250 250 250 250 246 238 232 118 
120 160 168 170 112 80 93 79 104 108 114 102 108 138 177 169 145 150 144 146 100 118 85 164 151 145 151 154 155 122 129 162 193 223 238 243 227 232 193 195 191 179 186 209 221 235 243 239 230 224 218 176 180 180 191 184 210 201 134 98 34 117 115 66 28 111 180 127 117 76 107 59 123 104 1 8 10 5 4 44 62 69 76 78 81 85 93 97 100 99 105 104 88 81 81 106 112 112 108 111 112 100 85 49 63 87 65 105 112 108 111 106 103 108 102 91 87 231 251 251 250 249 249 244 238 226 109 129 
192 181 168 108 81 89 120 97 105 110 133 162 191 188 138 151 146 134 137 132 3 143 165 138 164 141 141 152 143 172 191 202 231 248 221 219 200 186 198 182 193 200 217 231 243 243 235 229 219 175 180 179 182 180 175 206 164 101 43 122 142 67 27 101 115 173 124 157 73 83 101 88 1 19 6 15 4 18 75 61 71 66 76 80 85 99 103 96 101 107 103 83 89 102 104 116 110 99 110 110 82 63 60 99 69 75 130 116 100 120 98 110 108 108 76 194 254 252 250 249 249 248 245 230 199 132 111 160 
178 169 93 96 122 110 99 118 150 173 184 190 172 138 156 148 161 163 17 120 164 165 140 165 128 170 161 165 182 211 200 239 227 211 220 190 183 184 188 193 211 227 237 245 239 237 224 175 182 180 184 194 151 177 179 127 75 89 163 101 35 98 69 118 156 107 105 54 83 65 1 23 5 8 12 9 100 68 63 68 73 72 81 86 102 101 96 106 108 101 86 98 100 104 115 96 97 105 93 88 55 98 92 57 100 119 105 113 100 111 109 111 89 161 251 248 251 249 249 249 249 234 224 202 110 143 187 199 
152 105 102 110 121 150 172 173 171 181 171 163 141 159 116 186 112 101 159 154 167 157 146 144 158 174 172 179 198 191 225 218 228 196 197 180 182 193 204 225 234 239 243 242 232 173 183 169 190 190 150 181 150 122 73 138 126 114 59 99 87 47 152 145 109 84 90 35 2 12 6 10 9 5 117 106 43 71 70 67 73 82 86 96 98 98 110 106 102 91 104 96 105 101 97 90 96 92 49 84 107 73 77 119 111 118 107 112 108 100 102 165 243 246 251 250 250 249 249 235 244 215 196 135 161 190 193 184 
125 104 124 162 175 190 158 189 165 160 158 144 116 141 167 126 155 142 150 153 142 133 111 153 197 196 184 203 186 216 228 213 183 182 192 193 203 220 235 238 241 241 238 171 182 180 186 186 151 186 155 114 60 105 137 89 85 95 93 71 77 144 153 152 127 38 5 8 4 6 22 1 116 119 66 53 61 67 68 73 82 88 94 98 99 102 108 103 94 103 99 92 102 96 91 93 57 75 110 87 86 120 119 118 107 107 109 94 112 195 247 245 248 254 251 250 248 249 238 225 205 191 153 162 188 198 175 154 
154 153 166 165 184 177 193 133 153 152 128 107 98 150 152 154 124 151 153 125 99 117 180 219 194 176 197 181 224 241 189 202 189 194 204 215 233 241 241 243 242 169 181 183 181 188 157 186 166 88 105 49 81 71 69 102 89 82 84 62 149 183 167 58 2 5 7 3 22 1 104 129 82 86 39 64 68 68 74 85 91 97 96 101 105 110 104 94 97 85 92 100 102 90 70 65 112 98 75 122 129 118 112 118 99 98 140 226 253 245 246 251 252 250 248 251 227 215 221 210 210 144 165 191 198 173 164 136 
155 155 159 175 177 149 137 149 140 87 106 62 157 168 125 112 145 158 111 112 179 166 237 197 173 198 198 238 223 199 202 208 206 218 228 240 244 245 244 164 180 169 182 181 178 185 181 116 68 110 67 94 67 107 116 63 85 106 105 167 151 41 8 10 5 12 19 1 98 137 79 102 85 50 65 68 70 77 89 92 99 97 103 106 110 103 93 90 84 87 105 100 79 58 109 112 73 116 134 115 119 123 100 120 174 243 252 242 248 250 252 248 248 232 215 207 229 240 222 232 154 161 198 196 178 155 176 168 
153 153 153 137 158 136 132 152 122 1 140 171 142 121 135 141 155 117 188 175 161 227 194 193 187 174 220 192 199 197 216 223 230 236 245 247 248 161 183 176 187 185 196 194 171 148 97 112 131 62 73 103 165 85 85 110 169 137 128 18 1 13 0 8 19 1 85 134 85 88 102 82 51 65 68 72 81 90 91 100 99 104 107 108 104 92 86 91 90 100 95 50 108 115 91 107 131 115 122 113 106 150 218 249 246 239 249 250 252 252 253 229 205 205 237 249 240 232 254 148 166 199 198 166 162 175 154 154 
140 130 138 158 152 172 165 4 141 153 168 150 129 108 119 151 164 208 145 188 240 171 151 129 167 199 202 204 218 232 236 238 243 249 250 160 182 177 195 191 200 202 173 113 121 74 127 107 57 68 162 106 71 140 172 176 108 10 5 8 10 9 14 2 76 138 62 102 82 106 84 50 65 70 75 82 90 94 104 100 102 104 108 107 92 88 92 85 98 55 93 123 100 103 124 120 115 95 124 190 239 252 244 243 247 252 251 254 254 244 214 200 238 249 231 238 247 173 148 173 196 196 160 165 164 146 142 158 
124 146 138 95 156 134 113 167 162 171 161 123 84 116 168 188 170 209 172 164 112 96 149 205 209 218 220 233 240 244 244 250 251 160 182 180 181 186 171 177 171 117 34 68 93 110 84 92 139 150 90 126 152 173 106 15 1 18 5 11 9 3 59 142 73 73 108 79 103 85 51 68 74 76 81 92 95 106 98 101 103 110 110 94 83 88 84 65 79 115 118 101 128 123 102 97 154 224 252 248 249 249 248 250 251 255 254 251 225 210 218 248 218 224 247 173 202 153 175 196 195 162 160 160 143 146 155 149 
156 106 129 154 145 163 155 161 174 154 111 79 153 174 158 205 140 111 120 107 162 196 184 204 218 230 243 243 247 250 255 160 183 181 184 199 162 125 137 127 22 46 100 100 131 121 138 156 96 117 109 132 108 1 8 8 0 12 15 7 47 136 81 90 85 105 75 109 86 54 71 74 75 83 93 97 104 96 103 107 112 109 90 83 86 68 70 105 113 98 134 126 95 125 191 243 253 245 248 246 250 246 253 255 252 255 236 212 205 232 224 212 232 174 205 210 149 181 199 197 161 161 160 145 151 145 143 124 
111 72 145 166 159 150 146 163 149 88 115 173 149 174 157 99 120 130 137 181 115 169 213 232 242 249 252 250 254 160 182 185 180 199 161 152 99 117 54 43 100 122 165 131 148 151 107 97 89 113 88 3 3 11 9 16 16 4 40 124 93 77 112 79 102 81 111 90 58 72 73 77 83 95 98 102 98 108 110 108 112 87 89 77 54 107 107 100 130 124 87 153 225 251 251 247 248 248 249 243 254 252 253 255 246 226 218 221 230 223 222 175 202 215 192 149 188 202 193 161 161 163 136 137 129 128 142 110 
46 161 178 139 154 141 160 139 119 170 169 146 164 109 121 123 125 202 56 141 206 231 246 251 253 255 252 161 180 188 175 195 163 168 159 86 91 18 106 53 133 124 137 100 88 61 94 116 78 9 3 12 11 12 10 1 80 110 92 86 87 104 74 106 84 111 95 60 70 71 78 83 95 98 102 104 113 109 114 109 91 75 50 103 117 101 114 117 118 185 245 253 248 251 249 250 249 252 254 252 255 254 248 239 228 231 235 227 237 177 186 222 189 198 148 184 199 189 156 164 152 118 133 107 120 113 104 101 
186 172 163 140 125 157 143 173 160 153 150 113 120 105 119 187 106 129 202 194 233 254 251 255 253 163 179 182 179 190 178 169 172 96 71 83 54 92 89 101 78 83 75 46 86 125 76 4 1 17 2 23 1 1 113 142 73 84 95 84 101 75 110 85 120 97 59 71 72 78 83 95 96 104 110 104 110 113 108 90 51 101 119 106 101 118 153 212 253 248 248 253 252 251 250 250 254 252 255 254 248 244 240 236 238 225 240 180 164 188 195 196 182 147 184 197 180 153 155 130 120 123 95 127 81 112 54 165 
179 148 96 109 147 170 146 152 151 140 114 117 122 181 147 75 200 130 180 240 255 255 252 168 180 181 183 188 194 187 174 123 10 93 96 74 115 153 121 108 47 49 77 100 71 0 3 16 6 17 1 22 126 143 101 68 94 97 82 100 78 111 93 128 96 63 73 73 78 83 94 96 108 113 97 107 108 114 78 69 120 114 100 143 185 238 247 242 248 250 253 252 251 249 252 254 255 255 250 244 245 242 239 240 232 183 152 125 196 198 185 82 152 187 193 174 144 138 128 119 108 112 154 121 40 156 189 188 
97 97 125 161 168 139 129 159 139 113 125 165 178 16 199 86 128 200 254 252 255 168 171 190 181 188 191 203 184 129 36 48 133 95 92 118 138 128 69 44 78 70 54 0 12 12 5 21 1 51 135 129 85 118 76 92 99 80 102 80 117 99 123 79 63 72 72 78 84 96 98 110 107 93 106 111 113 84 118 122 103 172 219 247 241 239 244 247 253 253 251 249 248 252 254 250 250 245 245 246 242 241 241 185 155 102 186 204 184 82 93 156 186 193 157 128 139 113 106 97 165 159 22 134 187 139 170 187 
139 155 189 149 114 112 131 130 105 136 196 24 161 145 114 182 230 253 255 168 172 190 178 186 179 192 188 141 54 24 68 108 110 87 115 96 62 20 76 63 37 0 14 7 9 20 1 75 130 114 91 108 123 74 97 100 82 104 84 120 93 94 78 60 70 73 80 86 97 104 112 106 98 108 113 109 108 121 102 172 249 247 242 237 242 242 252 253 251 251 248 247 252 254 247 245 245 248 245 244 243 179 163 115 190 206 182 74 91 99 149 194 177 127 130 139 111 137 150 166 141 125 189 162 116 188 159 122 
176 162 149 122 135 132 116 119 204 125 129 176 70 201 203 254 254 166 173 185 176 184 178 172 185 140 90 0 22 37 94 103 69 141 73 45 78 69 27 4 8 7 8 22 0 88 136 97 100 120 99 124 71 102 103 85 105 86 115 72 88 73 56 72 75 82 88 95 102 115 109 101 108 107 110 112 95 154 254 243 244 239 240 241 244 254 251 252 250 244 247 247 246 244 244 248 248 247 247 179 168 118 200 203 178 75 81 103 96 153 189 136 117 120 135 154 163 139 131 139 172 164 124 150 169 171 162 160 
144 147 147 105 126 118 188 172 118 195 64 186 196 254 254 163 173 183 186 188 185 160 189 133 107 56 18 1 8 79 88 80 128 45 86 75 20 4 2 8 10 19 0 118 139 96 111 112 113 102 113 75 107 106 86 106 81 82 75 99 67 56 75 76 82 85 94 100 114 110 101 105 102 103 106 116 248 241 243 241 238 241 244 247 251 251 252 243 241 240 241 239 241 245 247 248 250 180 169 118 196 199 163 85 78 97 98 90 158 161 113 127 156 160 156 128 91 164 174 182 128 149 118 186 200 150 177 155 
148 112 101 99 165 173 72 199 86 146 194 252 254 160 172 187 191 182 186 155 186 142 94 63 70 4 2 43 84 81 151 80 62 80 24 1 5 1 18 5 2 117 128 97 112 119 105 101 91 109 77 111 105 86 105 68 97 87 65 68 62 76 75 83 86 94 100 108 110 99 103 106 106 115 216 239 239 239 240 240 243 246 248 249 252 245 237 237 237 238 240 241 244 246 247 181 172 113 194 195 150 81 91 89 94 104 108 152 146 148 168 186 127 149 157 169 165 175 163 148 126 139 187 176 164 156 132 152 
108 95 157 192 51 172 155 108 201 237 249 158 171 191 184 182 184 162 170 147 90 49 41 66 26 72 77 97 107 107 68 61 24 2 13 0 20 0 22 120 129 99 111 113 122 102 95 86 108 70 108 106 88 91 82 108 58 81 75 64 73 75 84 87 94 103 107 111 99 102 105 98 166 254 234 238 241 240 243 246 248 248 252 248 237 235 236 237 239 241 242 244 244 181 174 117 187 202 153 73 96 92 87 104 114 93 156 173 182 169 155 151 167 180 171 168 168 178 132 102 157 183 167 198 137 140 145 149 
138 183 98 143 201 102 196 214 252 157 171 190 180 186 187 193 176 131 94 46 2 56 102 66 97 36 94 120 82 60 14 1 13 3 17 0 51 131 128 98 105 116 115 115 100 94 86 104 67 107 110 83 98 84 88 60 104 79 62 74 75 85 87 94 103 111 112 94 100 98 100 187 245 236 239 239 242 246 248 249 249 251 242 235 236 237 239 241 240 244 244 182 177 117 189 204 170 79 100 100 86 93 91 98 83 149 179 171 164 164 172 166 170 177 155 158 145 90 132 138 185 201 151 131 134 139 135 107 
122 113 205 96 176 201 252 168 171 186 191 186 190 200 197 140 87 50 12 15 117 97 62 72 38 93 110 58 13 2 6 4 17 3 77 142 123 94 106 106 119 115 113 103 91 86 104 70 113 97 83 97 70 80 83 107 77 62 74 76 85 83 93 104 113 111 101 95 101 92 178 246 236 238 241 246 249 250 250 250 247 238 235 236 238 239 240 241 246 182 179 110 183 208 173 138 113 113 93 85 85 98 138 152 143 168 179 162 171 165 157 166 153 132 153 137 140 170 181 196 170 159 126 124 134 119 120 201 
201 94 153 199 248 176 164 183 200 187 187 174 192 142 83 64 13 26 75 115 55 21 49 102 105 78 1 9 8 0 11 0 80 145 117 98 101 117 113 116 113 116 103 85 91 104 71 103 89 90 88 48 113 81 103 74 61 74 76 82 81 92 107 115 116 101 99 98 86 188 245 236 239 245 249 251 251 250 251 242 237 235 236 237 238 240 244 182 181 116 181 200 174 159 108 126 101 97 87 115 164 213 176 155 172 165 173 159 167 175 168 150 154 174 186 200 176 177 176 173 173 114 122 133 138 172 148 59 
127 201 212 178 167 190 197 185 186 157 176 129 105 52 21 2 86 101 80 2 49 110 121 71 8 3 16 0 16 6 66 134 103 107 104 114 123 116 119 114 120 98 89 96 100 71 92 105 88 60 85 112 74 101 73 61 75 74 79 79 94 110 111 118 97 100 97 95 182 248 238 242 248 252 253 252 251 252 241 236 234 235 235 238 243 180 181 127 185 202 179 171 132 132 103 75 78 110 169 184 215 208 145 175 173 162 162 160 167 140 147 162 205 171 164 178 176 165 192 109 111 123 125 154 188 47 191 131 
165 175 166 184 195 177 188 168 178 139 96 59 34 5 62 126 76 51 64 98 137 73 2 8 9 4 17 1 38 119 92 105 115 113 117 121 123 123 112 122 102 96 94 109 81 117 102 61 91 88 108 80 103 73 63 73 73 79 82 94 110 112 111 98 99 102 83 184 250 241 247 252 254 253 252 249 248 239 235 235 236 237 241 180 182 121 172 207 184 182 145 127 106 72 51 111 143 170 175 210 190 158 178 175 150 166 157 144 144 141 194 183 160 171 194 153 187 120 111 106 108 164 183 107 159 176 90 202 
166 184 191 188 187 189 181 165 91 57 32 22 79 86 97 70 119 109 99 81 1 10 3 6 13 0 52 99 89 97 109 120 114 114 126 123 118 109 129 109 98 88 117 66 117 75 72 101 87 101 82 103 74 62 73 75 82 86 96 104 112 112 102 98 94 88 181 251 245 250 254 254 253 248 248 241 236 235 237 239 240 178 181 192 168 201 190 156 153 120 106 70 55 116 144 201 155 177 210 191 145 177 167 171 165 158 151 146 195 212 186 152 187 159 173 134 105 124 113 137 188 106 142 198 57 189 160 175 
195 193 181 201 188 150 99 46 6 24 88 72 90 89 119 103 86 51 5 12 2 8 13 7 70 111 99 98 95 110 125 117 116 127 117 108 113 135 109 86 90 108 83 94 61 90 102 81 103 83 101 73 60 75 79 85 85 96 106 115 117 100 90 94 84 174 250 248 252 253 254 250 248 244 235 235 237 241 243 177 179 218 203 210 196 142 126 126 105 67 59 101 177 198 189 163 185 210 189 143 173 164 164 167 170 143 181 195 201 186 157 159 166 156 101 98 120 116 200 108 81 200 75 175 181 173 170 178 
83 104 82 100 70 60 79 75 80 86 99 108 113 113 93 89 95 75 174 252 250 251 252 253 246 245 238 234 235 239 245 176 178 210 223 202 193 167 110 151 98 65 41 70 164 191 186 187 160 184 208 196 152 167 171 151 176 141 177 192 192 198 183 149 150 174 130 100 109 124 188 144 20 199 129 143 201 172 172 175 197 191 191 196 206 137 74 47 18 13 55 93 103 119 110 102 79 45 1 7 4 14 7 16 81 116 108 100 93 93 116 121 117 118 123 117 113 119 131 100 80 90 108 78 68 85 92 101 
104 82 101 68 61 77 69 85 88 99 106 107 111 90 92 90 73 182 251 249 249 253 244 241 239 233 234 234 240 178 178 203 221 210 175 156 134 157 135 52 45 36 82 169 182 194 186 194 182 213 193 149 176 161 159 144 160 197 193 192 200 183 142 169 130 140 108 99 165 168 1 188 159 128 201 176 171 184 191 189 191 174 188 165 68 62 0 30 17 51 92 155 137 115 83 46 1 9 13 21 1 40 78 112 108 113 101 91 95 112 122 119 117 124 123 127 116 120 89 84 77 91 54 103 89 89 102 84 
83 99 66 60 67 80 91 90 97 107 111 107 93 89 84 81 186 251 247 249 244 235 237 233 231 233 233 180 181 201 216 207 184 115 128 141 143 61 39 46 38 89 166 197 188 192 193 188 212 190 134 169 168 150 147 196 188 193 200 198 177 165 113 132 135 97 134 183 6 153 164 62 204 171 174 177 187 192 188 167 171 145 114 93 84 33 6 14 49 111 162 125 94 51 1 14 8 13 1 42 93 95 105 115 108 109 88 100 116 123 118 117 129 129 132 106 112 91 67 60 73 71 112 92 89 103 84 106 
98 55 50 77 85 96 90 99 102 106 112 89 83 87 87 184 253 244 246 235 233 233 229 232 231 183 184 203 219 199 190 122 136 132 100 57 45 42 52 49 93 164 187 186 193 201 188 212 191 116 176 161 143 188 189 190 192 183 205 180 124 108 117 115 83 191 66 116 181 15 187 169 182 170 193 192 196 180 177 156 122 129 109 51 26 27 34 37 109 157 104 53 1 10 8 7 1 51 95 101 89 116 105 105 83 88 108 117 121 117 120 136 130 109 99 107 68 60 63 90 73 109 91 88 102 86 107 83 
52 66 73 89 98 92 99 106 116 108 83 84 91 87 180 253 248 242 233 234 231 230 232 180 187 172 209 213 180 134 129 140 111 54 41 46 44 60 63 88 166 192 187 202 202 189 213 188 134 165 134 182 187 187 189 191 197 194 149 130 115 130 147 196 109 80 196 50 157 168 181 179 201 194 194 203 182 186 94 137 129 33 0 12 41 66 1 112 140 47 1 13 12 0 14 67 106 91 106 93 116 94 86 89 100 113 114 117 116 127 139 117 98 84 85 65 84 80 95 70 108 89 88 104 88 107 81 93 
65 74 92 93 94 96 102 119 103 87 87 94 84 167 247 250 238 232 233 230 232 180 187 157 172 214 190 130 122 136 110 50 38 42 43 43 67 68 88 172 189 195 200 200 191 209 195 147 123 174 185 185 187 189 190 183 184 149 182 190 196 200 143 39 189 106 123 167 181 177 185 183 202 185 209 163 99 56 91 45 0 22 3 46 74 1 117 65 1 20 12 0 23 71 98 95 99 105 100 111 85 93 104 105 109 108 113 122 133 129 109 73 73 85 91 95 86 97 71 106 89 90 107 88 105 86 60 83 
84 90 95 104 91 106 109 104 89 87 96 59 210 249 243 229 230 230 231 181 188 165 149 208 185 138 114 133 110 47 40 37 45 40 46 63 71 95 167 195 192 196 201 187 216 196 123 169 191 185 185 187 189 191 196 181 203 160 153 114 118 6 179 140 77 166 181 172 189 195 195 182 191 178 68 98 35 22 15 30 25 1 66 98 8 55 1 21 5 0 32 73 101 102 105 95 117 102 110 92 104 104 102 105 106 117 129 127 120 86 73 87 102 93 97 85 97 71 105 92 93 106 85 109 55 73 99 66 
101 105 106 88 102 104 105 85 87 94 122 247 250 227 221 227 229 181 188 166 154 203 193 133 116 136 105 49 61 45 37 45 43 46 61 64 97 170 193 188 197 200 193 211 191 175 187 185 185 186 188 189 191 200 200 145 90 3 90 70 145 173 49 164 182 175 191 196 189 186 172 175 100 113 100 64 20 1 31 3 1 73 72 1 1 23 1 1 52 91 99 104 107 105 102 122 98 114 99 104 111 99 106 109 124 127 116 87 84 101 99 100 92 97 86 100 74 108 95 93 104 93 80 62 125 106 75 96 
114 107 89 99 102 100 80 88 80 237 241 248 214 221 227 181 188 172 149 209 197 142 116 135 106 78 29 42 46 37 47 46 48 67 69 97 169 191 189 196 206 197 203 196 183 183 184 186 187 189 190 192 185 186 129 160 161 175 194 195 68 162 182 176 189 200 184 196 173 168 107 82 141 82 82 11 6 8 25 0 64 24 1 21 1 8 87 100 100 106 102 115 110 102 116 98 115 102 110 112 103 108 112 109 96 91 87 97 112 95 101 92 99 87 101 76 113 96 91 103 84 56 118 120 103 82 126 105 
