P2
16 16
255
224 205 191 0 0 0 0 208 209 228 103 49 151 221 117 114 
202 0 0 0 0 0 209 231 104 117 173 240 78 3 71 134 
0 0 0 0 209 212 123 155 240 240 75 18 13 0 139 182 
0 0 207 206 215 119 227 227 85 12 59 11 82 198 0 0 
0 207 223 106 240 204 150 3 50 31 77 210 186 0 0 0 
206 206 131 215 230 10 63 8 67 224 185 0 0 0 0 213 
132 238 207 234 37 47 79 228 186 187 0 0 0 0 209 214 
153 116 130 10 77 221 212 183 0 0 0 0 207 209 230 227 
56 0 101 224 218 188 0 0 0 0 0 207 208 229 144 3 
136 236 211 206 185 0 185 188 186 187 209 211 168 10 34 6 
210 214 184 183 184 183 184 187 188 206 221 6 52 56 104 235 
195 189 201 201 192 183 187 187 215 92 29 31 43 235 210 219 
213 216 214 200 184 186 187 225 14 52 16 205 211 222 206 199 
206 214 203 182 187 187 216 23 45 180 216 215 212 209 214 206 
213 210 191 186 188 128 28 200 223 207 207 209 209 220 232 227 
199 212 183 187 0 120 239 205 208 208 209 233 189 156 222 232 
