P2
4 4
255
8 7 2 12 
254 13 252 4 
9 5 255 150 
1 251 10 253 
